;Layer: Drill PTH
;EasyEDA v6.3.22, 2020-01-17T17:02:50--8:00
;00b4f696a6e84f9c838c38f8efb8d84c,fa4d7a5b45b64ba9a5df01c69efcfd0a,10
;Gerber Generator version 0.2
M48
METRIC,LZ,000.000
;Holesize 1 = 0.305 METRIC
T01C0.305
;Holesize 2 = 1.000 METRIC
T02C1.000
;Holesize 3 = 1.200 METRIC
T03C1.200
;Holesize 4 = 3.000 METRIC
T04C3.000
%
G05
G90
T01
X+024892Y+013843
X+010541Y+015621
X+020320Y+022479
X+032766Y+022479
X+009525Y+013208
X+016637Y+019812
X+020955Y+019812
X+026924Y+008255
X+027940Y+009271
X+013589Y+020140
X+008001Y+014552
X+005842Y+013208
X+017145Y+005588
X+013970Y+006477
X+024765Y+007239
X+024892Y+006350
X+033020Y+006350
X+029591Y+007239
X+006604Y+023495
X+007112Y+022606
X+026416Y+024130
X+030734Y+023876
X+006731Y+007620
X+006731Y+016510
X+020320Y+005588
X+009271Y+008763
X+028067Y+014986
X+026416Y+019431
X+006223Y+010033
X+010668Y+009652
X+025146Y+025527
X+034036Y+023876
T02
X+001524Y+010795
X+001524Y+013335
X+001524Y+015875
X+001524Y+018415
X+001524Y+020955
X+001524Y+023495
X+001524Y+026035
X+001524Y+028575
T03
X+041148Y+028321
X+041148Y+025781
X+041148Y+023241
X+041148Y+020701
X+023622Y+001524
X+021082Y+001524
X+018542Y+001524
X+016002Y+001524
X+013462Y+001524
X+010922Y+001524
X+040640Y+001524
X+038100Y+001524
X+035560Y+001524
X+033020Y+001524
X+030480Y+001524
X+027940Y+001524
T04
X+040005Y+015621
X+002921Y+002921
X+010795Y+027305
M30
