G04 Layer: BottomSolderMaskLayer*
G04 EasyEDA v6.3.22, 2020-01-17T17:02:50--8:00*
G04 00b4f696a6e84f9c838c38f8efb8d84c,fa4d7a5b45b64ba9a5df01c69efcfd0a,10*
G04 Gerber Generator version 0.2*
G04 Scale: 100 percent, Rotated: No, Reflected: No *
G04 Dimensions in millimeters *
G04 leading zeros omitted , absolute positions ,3 integer and 3 decimal *
%FSLAX33Y33*%
%MOMM*%
G90*
G71D02*

%ADD26C,5.703189*%
%ADD28C,2.003196*%
%ADD30C,1.727200*%

%LPD*%
G54D26*
G01X40005Y15621D03*
G01X2921Y2921D03*
G01X10795Y27305D03*
G36*
G01X40147Y27320D02*
G01X40147Y29321D01*
G01X42148Y29321D01*
G01X42148Y27320D01*
G01X40147Y27320D01*
G37*
G54D28*
G01X41148Y25781D03*
G01X41148Y23241D03*
G01X41148Y20701D03*
G54D30*
G01X1524Y10795D03*
G01X1524Y13335D03*
G01X1524Y15875D03*
G01X1524Y18415D03*
G01X1524Y20955D03*
G01X1524Y23495D03*
G01X1524Y26035D03*
G01X1524Y28575D03*
G54D28*
G01X23622Y1524D03*
G01X21082Y1524D03*
G01X18542Y1524D03*
G01X16002Y1524D03*
G01X13462Y1524D03*
G36*
G01X9921Y523D02*
G01X9921Y2524D01*
G01X11922Y2524D01*
G01X11922Y523D01*
G01X9921Y523D01*
G37*
G01X40640Y1524D03*
G01X38100Y1524D03*
G01X35560Y1524D03*
G01X33020Y1524D03*
G01X30480Y1524D03*
G36*
G01X26939Y523D02*
G01X26939Y2524D01*
G01X28940Y2524D01*
G01X28940Y523D01*
G01X26939Y523D01*
G37*
M00*
M02*
