G04 Layer: TopSilkLayer*
G04 EasyEDA v6.3.22, 2020-01-17T17:02:50--8:00*
G04 00b4f696a6e84f9c838c38f8efb8d84c,fa4d7a5b45b64ba9a5df01c69efcfd0a,10*
G04 Gerber Generator version 0.2*
G04 Scale: 100 percent, Rotated: No, Reflected: No *
G04 Dimensions in millimeters *
G04 leading zeros omitted , absolute positions ,3 integer and 3 decimal *
%FSLAX33Y33*%
%MOMM*%
G90*
G71D02*

%ADD10C,0.254000*%
%ADD20C,0.203200*%
%ADD21C,0.202999*%
%ADD22C,0.152400*%

%LPD*%
G54D10*
G01X42672Y29845D02*
G01X42672Y19177D01*
G01X39624Y19177D01*
G01X39624Y29845D01*
G01X42672Y29845D01*
G01X42672Y27051D02*
G01X39624Y27051D01*
G01X25933Y22529D02*
G01X35836Y22529D01*
G01X35836Y26212D01*
G01X25885Y26212D01*
G01X25885Y26212D02*
G01X25885Y24968D01*
G01X25908Y23799D02*
G01X25908Y22529D01*
G01X14071Y25095D02*
G01X14071Y26162D01*
G01X22814Y26162D01*
G01X22814Y26162D02*
G01X22814Y22360D01*
G01X22814Y22360D02*
G01X14097Y22360D01*
G01X14097Y23444D01*
G01X5241Y28955D02*
G01X6441Y28955D01*
G01X5041Y26905D02*
G01X5041Y25905D01*
G01X6642Y26905D02*
G01X6642Y25905D01*
G01X5041Y27705D02*
G01X5041Y28704D01*
G01X6642Y27705D02*
G01X6642Y28704D01*
G01X5241Y25654D02*
G01X6441Y25654D01*
G01X5041Y25854D02*
G01X5041Y25905D01*
G01X6642Y25855D02*
G01X6642Y25905D01*
G01X5041Y28755D02*
G01X5041Y28704D01*
G01X6642Y28754D02*
G01X6642Y28704D01*
G01X889Y29844D02*
G01X2159Y29844D01*
G01X2159Y12065D02*
G01X2794Y11430D01*
G01X2794Y10160D01*
G01X2159Y9525D01*
G01X889Y9525D02*
G01X2159Y9525D01*
G01X889Y29845D02*
G01X254Y29210D01*
G01X254Y27940D01*
G01X889Y27305D01*
G01X2159Y29845D02*
G01X2794Y29210D01*
G01X2794Y27940D01*
G01X2159Y27305D01*
G01X889Y27305D02*
G01X254Y26670D01*
G01X254Y25400D01*
G01X889Y24765D01*
G01X2159Y27305D02*
G01X2794Y26670D01*
G01X2794Y25400D01*
G01X2159Y24765D01*
G01X889Y24765D02*
G01X254Y24130D01*
G01X254Y22860D01*
G01X889Y22225D01*
G01X2159Y24765D02*
G01X2794Y24130D01*
G01X2794Y22860D01*
G01X2159Y22225D01*
G01X889Y22225D02*
G01X254Y21590D01*
G01X254Y20320D01*
G01X889Y19685D01*
G01X2159Y22225D02*
G01X2794Y21590D01*
G01X2794Y20320D01*
G01X2159Y19685D01*
G01X889Y19685D02*
G01X254Y19050D01*
G01X254Y17780D01*
G01X889Y17145D01*
G01X2159Y19685D02*
G01X2794Y19050D01*
G01X2794Y17780D01*
G01X2159Y17145D01*
G01X889Y17145D02*
G01X254Y16510D01*
G01X254Y15240D01*
G01X889Y14605D01*
G01X2159Y17145D02*
G01X2794Y16510D01*
G01X2794Y15240D01*
G01X2159Y14605D01*
G01X889Y14605D02*
G01X254Y13970D01*
G01X254Y12700D01*
G01X889Y12065D01*
G01X2159Y14605D02*
G01X2794Y13970D01*
G01X2794Y12700D01*
G01X2159Y12065D01*
G01X889Y12065D02*
G01X254Y11430D01*
G01X254Y10160D01*
G01X889Y9525D01*
G01X6946Y6070D02*
G01X8547Y6070D01*
G01X8541Y7920D02*
G01X8541Y9170D01*
G01X6941Y7920D02*
G01X6941Y9170D01*
G01X8547Y7320D02*
G01X8547Y6070D01*
G01X6946Y7320D02*
G01X6946Y6070D01*
G01X6941Y9170D02*
G01X8541Y9170D01*
G01X9944Y22758D02*
G01X8343Y22758D01*
G01X8349Y20908D02*
G01X8349Y19658D01*
G01X9949Y20908D02*
G01X9949Y19658D01*
G01X8343Y21508D02*
G01X8343Y22758D01*
G01X9944Y21508D02*
G01X9944Y22758D01*
G01X9949Y19658D02*
G01X8349Y19658D01*
G01X26644Y14808D02*
G01X26644Y15875D01*
G01X35387Y15875D01*
G01X35387Y15875D02*
G01X35387Y12073D01*
G01X35387Y12073D02*
G01X26670Y12073D01*
G01X26670Y13157D01*
G01X7366Y12877D02*
G01X12192Y12877D01*
G01X12192Y16027D01*
G01X7366Y16027D01*
G01X7366Y16027D02*
G01X7366Y15087D01*
G01X7366Y13817D02*
G01X7366Y12877D01*
G54D20*
G01X11557Y2794D02*
G01X9652Y2794D01*
G01X9652Y254D01*
G01X24892Y254D01*
G01X24892Y2794D01*
G54D21*
G01X24892Y2794D02*
G01X11557Y2794D01*
G54D20*
G01X28575Y2794D02*
G01X26670Y2794D01*
G01X26670Y254D01*
G01X41910Y254D01*
G01X41910Y2794D01*
G54D21*
G01X41910Y2794D02*
G01X28575Y2794D01*
G54D22*
G01X38089Y22860D02*
G01X39179Y22860D01*
G01X38089Y23202D02*
G01X39179Y23202D01*
G01X38089Y23202D02*
G01X39179Y23929D01*
G01X38089Y23929D02*
G01X39179Y23929D01*
G01X38089Y24272D02*
G01X39179Y24272D01*
G01X38089Y24272D02*
G01X38089Y24739D01*
G01X38140Y24897D01*
G01X38193Y24947D01*
G01X38298Y25001D01*
G01X38453Y25001D01*
G01X38557Y24947D01*
G01X38608Y24897D01*
G01X38661Y24739D01*
G01X38661Y24272D01*
G01X38089Y25344D02*
G01X38869Y25344D01*
G01X39024Y25394D01*
G01X39128Y25499D01*
G01X39179Y25654D01*
G01X39179Y25758D01*
G01X39128Y25915D01*
G01X39024Y26019D01*
G01X38869Y26070D01*
G01X38089Y26070D01*
G01X38089Y26776D02*
G01X39179Y26776D01*
G01X38089Y26413D02*
G01X38089Y27139D01*
G01X26047Y20076D02*
G01X26047Y19245D01*
G01X25994Y19088D01*
G01X25943Y19037D01*
G01X25839Y18986D01*
G01X25735Y18986D01*
G01X25631Y19037D01*
G01X25577Y19088D01*
G01X25527Y19245D01*
G01X25527Y19349D01*
G01X26390Y20076D02*
G01X26390Y18986D01*
G01X27117Y20076D02*
G01X26390Y19349D01*
G01X26649Y19608D02*
G01X27117Y18986D01*
G01X27459Y19453D02*
G01X28394Y19453D01*
G01X28737Y20076D02*
G01X28737Y18986D01*
G01X28737Y20076D02*
G01X29413Y20076D01*
G01X28737Y19558D02*
G01X29154Y19558D01*
G01X29756Y20076D02*
G01X29756Y18986D01*
G01X29756Y18986D02*
G01X30378Y18986D01*
G01X30721Y20076D02*
G01X30721Y18986D01*
G01X31064Y20076D02*
G01X31064Y18986D01*
G01X31064Y20076D02*
G01X31534Y20076D01*
G01X31689Y20025D01*
G01X31739Y19972D01*
G01X31793Y19867D01*
G01X31793Y19712D01*
G01X31739Y19608D01*
G01X31689Y19558D01*
G01X31534Y19504D01*
G01X31064Y19504D01*
G01X32136Y19453D02*
G01X33070Y19453D01*
G01X33413Y20076D02*
G01X33413Y18986D01*
G01X33413Y20076D02*
G01X34089Y20076D01*
G01X33413Y19558D02*
G01X33830Y19558D01*
G01X34432Y20076D02*
G01X34432Y18986D01*
G01X34432Y18986D02*
G01X35054Y18986D01*
G01X35709Y20076D02*
G01X35605Y20025D01*
G01X35501Y19921D01*
G01X35450Y19817D01*
G01X35397Y19659D01*
G01X35397Y19400D01*
G01X35450Y19245D01*
G01X35501Y19141D01*
G01X35605Y19037D01*
G01X35709Y18986D01*
G01X35918Y18986D01*
G01X36022Y19037D01*
G01X36126Y19141D01*
G01X36177Y19245D01*
G01X36230Y19400D01*
G01X36230Y19659D01*
G01X36177Y19817D01*
G01X36126Y19921D01*
G01X36022Y20025D01*
G01X35918Y20076D01*
G01X35709Y20076D01*
G01X36573Y20076D02*
G01X36573Y18986D01*
G01X36573Y20076D02*
G01X37040Y20076D01*
G01X37195Y20025D01*
G01X37249Y19972D01*
G01X37299Y19867D01*
G01X37299Y19712D01*
G01X37249Y19608D01*
G01X37195Y19558D01*
G01X37040Y19504D01*
G01X36573Y19504D01*
G01X13843Y19822D02*
G01X14569Y18732D01*
G01X14569Y19822D02*
G01X13843Y18732D01*
G01X15224Y19822D02*
G01X15120Y19771D01*
G01X15016Y19667D01*
G01X14965Y19563D01*
G01X14912Y19405D01*
G01X14912Y19146D01*
G01X14965Y18991D01*
G01X15016Y18887D01*
G01X15120Y18783D01*
G01X15224Y18732D01*
G01X15433Y18732D01*
G01X15537Y18783D01*
G01X15641Y18887D01*
G01X15692Y18991D01*
G01X15745Y19146D01*
G01X15745Y19405D01*
G01X15692Y19563D01*
G01X15641Y19667D01*
G01X15537Y19771D01*
G01X15433Y19822D01*
G01X15224Y19822D01*
G01X16088Y19822D02*
G01X16088Y18732D01*
G01X16088Y19822D02*
G01X16555Y19822D01*
G01X16710Y19771D01*
G01X16764Y19718D01*
G01X16814Y19613D01*
G01X16814Y19509D01*
G01X16764Y19405D01*
G01X16710Y19354D01*
G01X16555Y19304D01*
G01X16088Y19304D01*
G01X16451Y19304D02*
G01X16814Y18732D01*
G01X17157Y19199D02*
G01X18092Y19199D01*
G01X19215Y19563D02*
G01X19164Y19667D01*
G01X19060Y19771D01*
G01X18956Y19822D01*
G01X18747Y19822D01*
G01X18643Y19771D01*
G01X18539Y19667D01*
G01X18488Y19563D01*
G01X18435Y19405D01*
G01X18435Y19146D01*
G01X18488Y18991D01*
G01X18539Y18887D01*
G01X18643Y18783D01*
G01X18747Y18732D01*
G01X18956Y18732D01*
G01X19060Y18783D01*
G01X19164Y18887D01*
G01X19215Y18991D01*
G01X19215Y19146D01*
G01X18956Y19146D02*
G01X19215Y19146D01*
G01X19974Y19822D02*
G01X19558Y18732D01*
G01X19974Y19822D02*
G01X20388Y18732D01*
G01X19712Y19095D02*
G01X20233Y19095D01*
G01X21094Y19822D02*
G01X21094Y18732D01*
G01X20731Y19822D02*
G01X21460Y19822D01*
G01X21803Y19822D02*
G01X21803Y18732D01*
G01X21803Y19822D02*
G01X22479Y19822D01*
G01X21803Y19304D02*
G01X22217Y19304D01*
G01X21803Y18732D02*
G01X22479Y18732D01*
G01X7360Y26052D02*
G01X7256Y25999D01*
G01X7152Y25895D01*
G01X7101Y25793D01*
G01X7101Y25585D01*
G01X7152Y25481D01*
G01X7256Y25377D01*
G01X7360Y25323D01*
G01X7518Y25273D01*
G01X7777Y25273D01*
G01X7932Y25323D01*
G01X8036Y25377D01*
G01X8140Y25481D01*
G01X8191Y25585D01*
G01X8191Y25793D01*
G01X8140Y25895D01*
G01X8036Y25999D01*
G01X7932Y26052D01*
G01X7310Y26395D02*
G01X7256Y26499D01*
G01X7101Y26654D01*
G01X8191Y26654D01*
G01X3291Y19489D02*
G01X3342Y19385D01*
G01X3446Y19281D01*
G01X3550Y19227D01*
G01X3708Y19177D01*
G01X3967Y19177D01*
G01X4122Y19227D01*
G01X4226Y19281D01*
G01X4330Y19385D01*
G01X4381Y19489D01*
G01X4381Y19697D01*
G01X4330Y19799D01*
G01X4226Y19903D01*
G01X4122Y19956D01*
G01X3967Y20007D01*
G01X3708Y20007D01*
G01X3550Y19956D01*
G01X3446Y19903D01*
G01X3342Y19799D01*
G01X3291Y19697D01*
G01X3291Y19489D01*
G01X3291Y20350D02*
G01X4071Y20350D01*
G01X4226Y20403D01*
G01X4330Y20507D01*
G01X4381Y20662D01*
G01X4381Y20767D01*
G01X4330Y20921D01*
G01X4226Y21026D01*
G01X4071Y21079D01*
G01X3291Y21079D01*
G01X3291Y21785D02*
G01X4381Y21785D01*
G01X3291Y21422D02*
G01X3291Y22148D01*
G01X3291Y22491D02*
G01X4381Y22491D01*
G01X3291Y22491D02*
G01X3291Y22959D01*
G01X3342Y23114D01*
G01X3395Y23167D01*
G01X3500Y23218D01*
G01X3655Y23218D01*
G01X3759Y23167D01*
G01X3810Y23114D01*
G01X3863Y22959D01*
G01X3863Y22491D01*
G01X3291Y23561D02*
G01X4071Y23561D01*
G01X4226Y23614D01*
G01X4330Y23718D01*
G01X4381Y23873D01*
G01X4381Y23977D01*
G01X4330Y24132D01*
G01X4226Y24236D01*
G01X4071Y24290D01*
G01X3291Y24290D01*
G01X3291Y24996D02*
G01X4381Y24996D01*
G01X3291Y24632D02*
G01X3291Y25359D01*
G01X5196Y6985D02*
G01X6286Y6985D01*
G01X5196Y6985D02*
G01X5196Y7452D01*
G01X5247Y7607D01*
G01X5300Y7660D01*
G01X5405Y7711D01*
G01X5509Y7711D01*
G01X5613Y7660D01*
G01X5664Y7607D01*
G01X5715Y7452D01*
G01X5715Y6985D01*
G01X5715Y7348D02*
G01X6286Y7711D01*
G01X5405Y8054D02*
G01X5351Y8158D01*
G01X5196Y8315D01*
G01X6286Y8315D01*
G01X11440Y21971D02*
G01X10350Y21971D01*
G01X11440Y21971D02*
G01X11440Y21503D01*
G01X11389Y21348D01*
G01X11336Y21295D01*
G01X11231Y21244D01*
G01X11127Y21244D01*
G01X11023Y21295D01*
G01X10972Y21348D01*
G01X10922Y21503D01*
G01X10922Y21971D01*
G01X10922Y21607D02*
G01X10350Y21244D01*
G01X11181Y20848D02*
G01X11231Y20848D01*
G01X11336Y20797D01*
G01X11389Y20744D01*
G01X11440Y20640D01*
G01X11440Y20434D01*
G01X11389Y20330D01*
G01X11336Y20276D01*
G01X11231Y20226D01*
G01X11127Y20226D01*
G01X11023Y20276D01*
G01X10868Y20380D01*
G01X10350Y20901D01*
G01X10350Y20172D01*
G01X28125Y9535D02*
G01X28021Y9484D01*
G01X27917Y9380D01*
G01X27863Y9276D01*
G01X27813Y9118D01*
G01X27813Y8859D01*
G01X27863Y8704D01*
G01X27917Y8600D01*
G01X28021Y8496D01*
G01X28125Y8445D01*
G01X28333Y8445D01*
G01X28435Y8496D01*
G01X28539Y8600D01*
G01X28592Y8704D01*
G01X28643Y8859D01*
G01X28643Y9118D01*
G01X28592Y9276D01*
G01X28539Y9380D01*
G01X28435Y9484D01*
G01X28333Y9535D01*
G01X28125Y9535D01*
G01X28986Y9535D02*
G01X28986Y8445D01*
G01X28986Y9535D02*
G01X29453Y9535D01*
G01X29611Y9484D01*
G01X29662Y9431D01*
G01X29715Y9326D01*
G01X29715Y9222D01*
G01X29662Y9118D01*
G01X29611Y9067D01*
G01X29453Y9017D01*
G01X28986Y9017D01*
G01X29349Y9017D02*
G01X29715Y8445D01*
G01X30058Y8912D02*
G01X30993Y8912D01*
G01X32115Y9276D02*
G01X32062Y9380D01*
G01X31958Y9484D01*
G01X31854Y9535D01*
G01X31648Y9535D01*
G01X31544Y9484D01*
G01X31440Y9380D01*
G01X31386Y9276D01*
G01X31335Y9118D01*
G01X31335Y8859D01*
G01X31386Y8704D01*
G01X31440Y8600D01*
G01X31544Y8496D01*
G01X31648Y8445D01*
G01X31854Y8445D01*
G01X31958Y8496D01*
G01X32062Y8600D01*
G01X32115Y8704D01*
G01X32115Y8859D01*
G01X31854Y8859D02*
G01X32115Y8859D01*
G01X32872Y9535D02*
G01X32458Y8445D01*
G01X32872Y9535D02*
G01X33289Y8445D01*
G01X32613Y8808D02*
G01X33134Y8808D01*
G01X33995Y9535D02*
G01X33995Y8445D01*
G01X33632Y9535D02*
G01X34358Y9535D01*
G01X34701Y9535D02*
G01X34701Y8445D01*
G01X34701Y9535D02*
G01X35377Y9535D01*
G01X34701Y9017D02*
G01X35118Y9017D01*
G01X34701Y8445D02*
G01X35377Y8445D01*
G01X12832Y8140D02*
G01X12727Y8087D01*
G01X12623Y7983D01*
G01X12573Y7881D01*
G01X12573Y7673D01*
G01X12623Y7569D01*
G01X12727Y7465D01*
G01X12832Y7411D01*
G01X12989Y7360D01*
G01X13248Y7360D01*
G01X13403Y7411D01*
G01X13507Y7465D01*
G01X13611Y7569D01*
G01X13662Y7673D01*
G01X13662Y7881D01*
G01X13611Y7983D01*
G01X13507Y8087D01*
G01X13403Y8140D01*
G01X12573Y8796D02*
G01X12623Y8691D01*
G01X12727Y8587D01*
G01X12832Y8534D01*
G01X12989Y8483D01*
G01X13248Y8483D01*
G01X13403Y8534D01*
G01X13507Y8587D01*
G01X13611Y8691D01*
G01X13662Y8796D01*
G01X13662Y9001D01*
G01X13611Y9105D01*
G01X13507Y9210D01*
G01X13403Y9263D01*
G01X13248Y9314D01*
G01X12989Y9314D01*
G01X12832Y9263D01*
G01X12727Y9210D01*
G01X12623Y9105D01*
G01X12573Y9001D01*
G01X12573Y8796D01*
G01X12573Y9657D02*
G01X13662Y9657D01*
G01X12573Y9657D02*
G01X13662Y10073D01*
G01X12573Y10487D02*
G01X13662Y10073D01*
G01X12573Y10487D02*
G01X13662Y10487D01*
G01X12573Y10830D02*
G01X13662Y10830D01*
G01X12573Y10830D02*
G01X12573Y11297D01*
G01X12623Y11455D01*
G01X12677Y11506D01*
G01X12781Y11559D01*
G01X12936Y11559D01*
G01X13040Y11506D01*
G01X13091Y11455D01*
G01X13144Y11297D01*
G01X13144Y10830D01*
G01X12573Y12316D02*
G01X13662Y11902D01*
G01X12573Y12316D02*
G01X13662Y12733D01*
G01X13299Y12057D02*
G01X13299Y12578D01*
G01X12573Y13075D02*
G01X13662Y13075D01*
G01X12573Y13075D02*
G01X12573Y13543D01*
G01X12623Y13698D01*
G01X12677Y13751D01*
G01X12781Y13802D01*
G01X12885Y13802D01*
G01X12989Y13751D01*
G01X13040Y13698D01*
G01X13091Y13543D01*
G01X13091Y13075D01*
G01X13091Y13439D02*
G01X13662Y13802D01*
G01X12573Y14561D02*
G01X13662Y14145D01*
G01X12573Y14561D02*
G01X13662Y14978D01*
G01X13299Y14302D02*
G01X13299Y14820D01*
G01X12573Y15684D02*
G01X13662Y15684D01*
G01X12573Y15321D02*
G01X12573Y16047D01*
G01X12573Y16703D02*
G01X12623Y16598D01*
G01X12727Y16494D01*
G01X12832Y16441D01*
G01X12989Y16390D01*
G01X13248Y16390D01*
G01X13403Y16441D01*
G01X13507Y16494D01*
G01X13611Y16598D01*
G01X13662Y16703D01*
G01X13662Y16911D01*
G01X13611Y17012D01*
G01X13507Y17117D01*
G01X13403Y17170D01*
G01X13248Y17221D01*
G01X12989Y17221D01*
G01X12832Y17170D01*
G01X12727Y17117D01*
G01X12623Y17012D01*
G01X12573Y16911D01*
G01X12573Y16703D01*
G01X12573Y17564D02*
G01X13662Y17564D01*
G01X12573Y17564D02*
G01X12573Y18031D01*
G01X12623Y18188D01*
G01X12677Y18239D01*
G01X12781Y18293D01*
G01X12885Y18293D01*
G01X12989Y18239D01*
G01X13040Y18188D01*
G01X13091Y18031D01*
G01X13091Y17564D01*
G01X13091Y17927D02*
G01X13662Y18293D01*
G01X15494Y4328D02*
G01X15494Y3238D01*
G01X15494Y4328D02*
G01X15857Y4328D01*
G01X16014Y4277D01*
G01X16116Y4173D01*
G01X16169Y4069D01*
G01X16220Y3911D01*
G01X16220Y3652D01*
G01X16169Y3497D01*
G01X16116Y3393D01*
G01X16014Y3289D01*
G01X15857Y3238D01*
G01X15494Y3238D01*
G01X16979Y4328D02*
G01X16563Y3238D01*
G01X16979Y4328D02*
G01X17396Y3238D01*
G01X16720Y3601D02*
G01X17238Y3601D01*
G01X18516Y4069D02*
G01X18465Y4173D01*
G01X18361Y4277D01*
G01X18257Y4328D01*
G01X18049Y4328D01*
G01X17945Y4277D01*
G01X17843Y4173D01*
G01X17790Y4069D01*
G01X17739Y3911D01*
G01X17739Y3652D01*
G01X17790Y3497D01*
G01X17843Y3393D01*
G01X17945Y3289D01*
G01X18049Y3238D01*
G01X18257Y3238D01*
G01X18361Y3289D01*
G01X18465Y3393D01*
G01X18516Y3497D01*
G01X18859Y4119D02*
G01X18963Y4173D01*
G01X19121Y4328D01*
G01X19121Y3238D01*
G01X32893Y4328D02*
G01X32893Y3238D01*
G01X32893Y4328D02*
G01X33256Y4328D01*
G01X33413Y4277D01*
G01X33515Y4173D01*
G01X33568Y4069D01*
G01X33619Y3911D01*
G01X33619Y3652D01*
G01X33568Y3497D01*
G01X33515Y3393D01*
G01X33413Y3289D01*
G01X33256Y3238D01*
G01X32893Y3238D01*
G01X34378Y4328D02*
G01X33962Y3238D01*
G01X34378Y4328D02*
G01X34795Y3238D01*
G01X34119Y3601D02*
G01X34637Y3601D01*
G01X35915Y4069D02*
G01X35864Y4173D01*
G01X35760Y4277D01*
G01X35656Y4328D01*
G01X35448Y4328D01*
G01X35344Y4277D01*
G01X35242Y4173D01*
G01X35189Y4069D01*
G01X35138Y3911D01*
G01X35138Y3652D01*
G01X35189Y3497D01*
G01X35242Y3393D01*
G01X35344Y3289D01*
G01X35448Y3238D01*
G01X35656Y3238D01*
G01X35760Y3289D01*
G01X35864Y3393D01*
G01X35915Y3497D01*
G01X36311Y4069D02*
G01X36311Y4119D01*
G01X36362Y4224D01*
G01X36415Y4277D01*
G01X36520Y4328D01*
G01X36728Y4328D01*
G01X36830Y4277D01*
G01X36883Y4224D01*
G01X36934Y4119D01*
G01X36934Y4015D01*
G01X36883Y3911D01*
G01X36779Y3756D01*
G01X36258Y3238D01*
G01X36987Y3238D01*
G54D10*
G75*
G01X25908Y23800D02*
G03X25911Y24968I25J584D01*
G01*
G75*
G01X14072Y25095D02*
G02X14097Y23495I37J-800D01*
G01*
G75*
G01X5242Y25655D02*
G02X5042Y25855I0J200D01*
G01*
G75*
G01X6442Y25655D02*
G03X6642Y25855I0J200D01*
G01*
G75*
G01X5242Y28955D02*
G03X5042Y28755I0J-200D01*
G01*
G75*
G01X6442Y28955D02*
G02X6642Y28755I0J-200D01*
G01*
G75*
G01X26645Y14808D02*
G02X26670Y13208I37J-800D01*
G01*
G75*
G01X7366Y15088D02*
G02X7366Y13818I0J-635D01*
G01*
G75*
G01X7328Y12294D02*
G03X7328Y12294I-190J0D01*
G01*
M00*
M02*
