G04 Layer: BottomSilkLayer*
G04 EasyEDA v6.3.22, 2020-01-17T17:02:50--8:00*
G04 00b4f696a6e84f9c838c38f8efb8d84c,fa4d7a5b45b64ba9a5df01c69efcfd0a,10*
G04 Gerber Generator version 0.2*
G04 Scale: 100 percent, Rotated: No, Reflected: No *
G04 Dimensions in millimeters *
G04 leading zeros omitted , absolute positions ,3 integer and 3 decimal *
%FSLAX33Y33*%
%MOMM*%
G90*
G71D02*

%ADD23C,0.200000*%

%LPD*%
G54D23*
G01X6858Y29076D02*
G01X6494Y28121D01*
G01X6130Y29076D02*
G01X6494Y28121D01*
G01X5148Y28848D02*
G01X5194Y28939D01*
G01X5285Y29030D01*
G01X5376Y29076D01*
G01X5558Y29076D01*
G01X5648Y29030D01*
G01X5739Y28939D01*
G01X5785Y28848D01*
G01X5830Y28712D01*
G01X5830Y28485D01*
G01X5785Y28348D01*
G01X5739Y28257D01*
G01X5648Y28166D01*
G01X5558Y28121D01*
G01X5376Y28121D01*
G01X5285Y28166D01*
G01X5194Y28257D01*
G01X5148Y28348D01*
G01X4167Y28848D02*
G01X4212Y28939D01*
G01X4303Y29030D01*
G01X4394Y29076D01*
G01X4576Y29076D01*
G01X4667Y29030D01*
G01X4758Y28939D01*
G01X4803Y28848D01*
G01X4848Y28712D01*
G01X4848Y28485D01*
G01X4803Y28348D01*
G01X4758Y28257D01*
G01X4667Y28166D01*
G01X4576Y28121D01*
G01X4394Y28121D01*
G01X4303Y28166D01*
G01X4212Y28257D01*
G01X4167Y28348D01*
G01X6176Y26308D02*
G01X6221Y26399D01*
G01X6312Y26490D01*
G01X6403Y26536D01*
G01X6585Y26536D01*
G01X6676Y26490D01*
G01X6767Y26399D01*
G01X6812Y26308D01*
G01X6858Y26172D01*
G01X6858Y25945D01*
G01X6812Y25808D01*
G01X6767Y25717D01*
G01X6676Y25626D01*
G01X6585Y25581D01*
G01X6403Y25581D01*
G01X6312Y25626D01*
G01X6221Y25717D01*
G01X6176Y25808D01*
G01X6176Y25945D01*
G01X6403Y25945D02*
G01X6176Y25945D01*
G01X5876Y26536D02*
G01X5876Y25581D01*
G01X5876Y26536D02*
G01X5239Y25581D01*
G01X5239Y26536D02*
G01X5239Y25581D01*
G01X4939Y26536D02*
G01X4939Y25581D01*
G01X4939Y26536D02*
G01X4621Y26536D01*
G01X4485Y26490D01*
G01X4394Y26399D01*
G01X4348Y26308D01*
G01X4303Y26172D01*
G01X4303Y25945D01*
G01X4348Y25808D01*
G01X4394Y25717D01*
G01X4485Y25626D01*
G01X4621Y25581D01*
G01X4939Y25581D01*
G01X6221Y23859D02*
G01X6312Y23950D01*
G01X6448Y23996D01*
G01X6630Y23996D01*
G01X6767Y23950D01*
G01X6858Y23859D01*
G01X6858Y23768D01*
G01X6812Y23677D01*
G01X6767Y23632D01*
G01X6676Y23586D01*
G01X6403Y23496D01*
G01X6312Y23450D01*
G01X6267Y23405D01*
G01X6221Y23314D01*
G01X6221Y23177D01*
G01X6312Y23086D01*
G01X6448Y23041D01*
G01X6630Y23041D01*
G01X6767Y23086D01*
G01X6858Y23177D01*
G01X5239Y23768D02*
G01X5285Y23859D01*
G01X5376Y23950D01*
G01X5467Y23996D01*
G01X5648Y23996D01*
G01X5739Y23950D01*
G01X5830Y23859D01*
G01X5876Y23768D01*
G01X5921Y23632D01*
G01X5921Y23405D01*
G01X5876Y23268D01*
G01X5830Y23177D01*
G01X5739Y23086D01*
G01X5648Y23041D01*
G01X5467Y23041D01*
G01X5376Y23086D01*
G01X5285Y23177D01*
G01X5239Y23268D01*
G01X4939Y23996D02*
G01X4939Y23041D01*
G01X4939Y23041D02*
G01X4394Y23041D01*
G01X6221Y21319D02*
G01X6312Y21410D01*
G01X6448Y21456D01*
G01X6630Y21456D01*
G01X6767Y21410D01*
G01X6858Y21319D01*
G01X6858Y21228D01*
G01X6812Y21137D01*
G01X6767Y21092D01*
G01X6676Y21046D01*
G01X6403Y20956D01*
G01X6312Y20910D01*
G01X6267Y20865D01*
G01X6221Y20774D01*
G01X6221Y20637D01*
G01X6312Y20546D01*
G01X6448Y20501D01*
G01X6630Y20501D01*
G01X6767Y20546D01*
G01X6858Y20637D01*
G01X5921Y21456D02*
G01X5921Y20501D01*
G01X5921Y21456D02*
G01X5603Y21456D01*
G01X5467Y21410D01*
G01X5376Y21319D01*
G01X5330Y21228D01*
G01X5285Y21092D01*
G01X5285Y20865D01*
G01X5330Y20728D01*
G01X5376Y20637D01*
G01X5467Y20546D01*
G01X5603Y20501D01*
G01X5921Y20501D01*
G01X4621Y21456D02*
G01X4985Y20501D01*
G01X4621Y21456D02*
G01X4258Y20501D01*
G01X4848Y20819D02*
G01X4394Y20819D01*
G01X6539Y18789D02*
G01X6539Y17834D01*
G01X6858Y18789D02*
G01X6221Y18789D01*
G01X5648Y18789D02*
G01X5739Y18743D01*
G01X5830Y18652D01*
G01X5876Y18561D01*
G01X5921Y18425D01*
G01X5921Y18198D01*
G01X5876Y18061D01*
G01X5830Y17970D01*
G01X5739Y17879D01*
G01X5648Y17834D01*
G01X5467Y17834D01*
G01X5376Y17879D01*
G01X5285Y17970D01*
G01X5239Y18061D01*
G01X5194Y18198D01*
G01X5194Y18425D01*
G01X5239Y18561D01*
G01X5285Y18652D01*
G01X5376Y18743D01*
G01X5467Y18789D01*
G01X5648Y18789D01*
G01X4212Y18561D02*
G01X4258Y18652D01*
G01X4348Y18743D01*
G01X4439Y18789D01*
G01X4621Y18789D01*
G01X4712Y18743D01*
G01X4803Y18652D01*
G01X4848Y18561D01*
G01X4894Y18425D01*
G01X4894Y18198D01*
G01X4848Y18061D01*
G01X4803Y17970D01*
G01X4712Y17879D01*
G01X4621Y17834D01*
G01X4439Y17834D01*
G01X4348Y17879D01*
G01X4258Y17970D01*
G01X4212Y18061D01*
G01X4212Y18198D01*
G01X4439Y18198D02*
G01X4212Y18198D01*
G01X6604Y16249D02*
G01X6604Y15294D01*
G01X6304Y16249D02*
G01X6304Y15294D01*
G01X6304Y16249D02*
G01X5667Y15294D01*
G01X5667Y16249D02*
G01X5667Y15294D01*
G01X5049Y16249D02*
G01X5049Y15294D01*
G01X5367Y16249D02*
G01X4731Y16249D01*
G01X6494Y13709D02*
G01X6858Y12754D01*
G01X6494Y13709D02*
G01X6130Y12754D01*
G01X6721Y13072D02*
G01X6267Y13072D01*
G01X5830Y13709D02*
G01X5830Y12754D01*
G01X5830Y13709D02*
G01X5194Y12754D01*
G01X5194Y13709D02*
G01X5194Y12754D01*
G01X4894Y13709D02*
G01X4894Y12754D01*
G01X4894Y12754D02*
G01X4348Y12754D01*
G01X6176Y10941D02*
G01X6221Y11032D01*
G01X6312Y11123D01*
G01X6403Y11169D01*
G01X6585Y11169D01*
G01X6676Y11123D01*
G01X6767Y11032D01*
G01X6812Y10941D01*
G01X6858Y10805D01*
G01X6858Y10578D01*
G01X6812Y10441D01*
G01X6767Y10350D01*
G01X6676Y10259D01*
G01X6585Y10214D01*
G01X6403Y10214D01*
G01X6312Y10259D01*
G01X6221Y10350D01*
G01X6176Y10441D01*
G01X6176Y10578D01*
G01X6403Y10578D02*
G01X6176Y10578D01*
G01X5876Y11169D02*
G01X5876Y10214D01*
G01X5876Y11169D02*
G01X5239Y10214D01*
G01X5239Y11169D02*
G01X5239Y10214D01*
G01X4939Y11169D02*
G01X4939Y10214D01*
G01X4939Y11169D02*
G01X4621Y11169D01*
G01X4485Y11123D01*
G01X4394Y11032D01*
G01X4348Y10941D01*
G01X4303Y10805D01*
G01X4303Y10578D01*
G01X4348Y10441D01*
G01X4394Y10350D01*
G01X4485Y10259D01*
G01X4621Y10214D01*
G01X4939Y10214D01*
G01X38735Y28822D02*
G01X38371Y27867D01*
G01X38007Y28822D02*
G01X38371Y27867D01*
G01X37025Y28594D02*
G01X37071Y28685D01*
G01X37162Y28776D01*
G01X37253Y28822D01*
G01X37435Y28822D01*
G01X37525Y28776D01*
G01X37616Y28685D01*
G01X37662Y28594D01*
G01X37707Y28458D01*
G01X37707Y28231D01*
G01X37662Y28094D01*
G01X37616Y28003D01*
G01X37525Y27912D01*
G01X37435Y27867D01*
G01X37253Y27867D01*
G01X37162Y27912D01*
G01X37071Y28003D01*
G01X37025Y28094D01*
G01X36044Y28594D02*
G01X36089Y28685D01*
G01X36180Y28776D01*
G01X36271Y28822D01*
G01X36453Y28822D01*
G01X36544Y28776D01*
G01X36635Y28685D01*
G01X36680Y28594D01*
G01X36725Y28458D01*
G01X36725Y28231D01*
G01X36680Y28094D01*
G01X36635Y28003D01*
G01X36544Y27912D01*
G01X36453Y27867D01*
G01X36271Y27867D01*
G01X36180Y27912D01*
G01X36089Y28003D01*
G01X36044Y28094D01*
G01X38053Y25800D02*
G01X38098Y25891D01*
G01X38189Y25982D01*
G01X38280Y26028D01*
G01X38462Y26028D01*
G01X38553Y25982D01*
G01X38644Y25891D01*
G01X38689Y25800D01*
G01X38735Y25664D01*
G01X38735Y25437D01*
G01X38689Y25300D01*
G01X38644Y25209D01*
G01X38553Y25118D01*
G01X38462Y25073D01*
G01X38280Y25073D01*
G01X38189Y25118D01*
G01X38098Y25209D01*
G01X38053Y25300D01*
G01X38053Y25437D01*
G01X38280Y25437D02*
G01X38053Y25437D01*
G01X37753Y26028D02*
G01X37753Y25073D01*
G01X37753Y26028D02*
G01X37116Y25073D01*
G01X37116Y26028D02*
G01X37116Y25073D01*
G01X36816Y26028D02*
G01X36816Y25073D01*
G01X36816Y26028D02*
G01X36498Y26028D01*
G01X36362Y25982D01*
G01X36271Y25891D01*
G01X36225Y25800D01*
G01X36180Y25664D01*
G01X36180Y25437D01*
G01X36225Y25300D01*
G01X36271Y25209D01*
G01X36362Y25118D01*
G01X36498Y25073D01*
G01X36816Y25073D01*
G01X38371Y23488D02*
G01X38735Y22533D01*
G01X38371Y23488D02*
G01X38007Y22533D01*
G01X38598Y22851D02*
G01X38144Y22851D01*
G01X37707Y23488D02*
G01X37707Y22533D01*
G01X37707Y23488D02*
G01X37071Y22533D01*
G01X37071Y23488D02*
G01X37071Y22533D01*
G01X36771Y23488D02*
G01X36771Y22533D01*
G01X36771Y22533D02*
G01X36225Y22533D01*
G01X38053Y20720D02*
G01X38098Y20811D01*
G01X38189Y20902D01*
G01X38280Y20948D01*
G01X38462Y20948D01*
G01X38553Y20902D01*
G01X38644Y20811D01*
G01X38689Y20720D01*
G01X38735Y20584D01*
G01X38735Y20357D01*
G01X38689Y20220D01*
G01X38644Y20129D01*
G01X38553Y20038D01*
G01X38462Y19993D01*
G01X38280Y19993D01*
G01X38189Y20038D01*
G01X38098Y20129D01*
G01X38053Y20220D01*
G01X38053Y20357D01*
G01X38280Y20357D02*
G01X38053Y20357D01*
G01X37753Y20948D02*
G01X37753Y19993D01*
G01X37753Y20948D02*
G01X37116Y19993D01*
G01X37116Y20948D02*
G01X37116Y19993D01*
G01X36816Y20948D02*
G01X36816Y19993D01*
G01X36816Y20948D02*
G01X36498Y20948D01*
G01X36362Y20902D01*
G01X36271Y20811D01*
G01X36225Y20720D01*
G01X36180Y20584D01*
G01X36180Y20357D01*
G01X36225Y20220D01*
G01X36271Y20129D01*
G01X36362Y20038D01*
G01X36498Y19993D01*
G01X36816Y19993D01*
M00*
M02*
