G04 Layer: BottomLayer*
G04 EasyEDA v6.3.22, 2020-01-17T17:02:50--8:00*
G04 00b4f696a6e84f9c838c38f8efb8d84c,fa4d7a5b45b64ba9a5df01c69efcfd0a,10*
G04 Gerber Generator version 0.2*
G04 Scale: 100 percent, Rotated: No, Reflected: No *
G04 Dimensions in millimeters *
G04 leading zeros omitted , absolute positions ,3 integer and 3 decimal *
%FSLAX33Y33*%
%MOMM*%
G90*
G71D02*

%ADD11C,0.299999*%
%ADD14C,0.609600*%
%ADD16C,5.499989*%
%ADD17R,1.799996X1.799996*%
%ADD18C,1.799996*%
%ADD19C,1.524000*%

%LPD*%
G36*
G01X35984Y4165D02*
G01X31198Y4165D01*
G01X31182Y4164D01*
G01X31167Y4160D01*
G01X31152Y4154D01*
G01X31138Y4146D01*
G01X31126Y4135D01*
G01X29126Y2135D01*
G01X29116Y2123D01*
G01X29107Y2109D01*
G01X29101Y2094D01*
G01X29097Y2079D01*
G01X29096Y2063D01*
G01X29096Y623D01*
G01X29095Y599D01*
G01X29092Y576D01*
G01X29086Y553D01*
G01X29078Y530D01*
G01X29069Y509D01*
G01X29057Y488D01*
G01X29043Y468D01*
G01X29028Y450D01*
G01X29011Y433D01*
G01X29000Y421D01*
G01X28991Y406D01*
G01X28983Y391D01*
G01X28979Y374D01*
G01X28978Y358D01*
G01X28979Y343D01*
G01X28982Y329D01*
G01X28987Y315D01*
G01X28994Y303D01*
G01X29003Y291D01*
G01X29013Y281D01*
G01X29025Y272D01*
G01X29037Y265D01*
G01X29051Y260D01*
G01X29065Y257D01*
G01X29079Y256D01*
G01X30007Y256D01*
G01X30022Y257D01*
G01X30037Y261D01*
G01X30052Y257D01*
G01X30068Y256D01*
G01X30891Y256D01*
G01X30907Y257D01*
G01X30922Y261D01*
G01X30937Y257D01*
G01X30952Y256D01*
G01X32547Y256D01*
G01X32561Y257D01*
G01X32575Y260D01*
G01X32589Y265D01*
G01X32601Y272D01*
G01X32613Y281D01*
G01X32623Y291D01*
G01X32632Y303D01*
G01X32639Y315D01*
G01X32644Y329D01*
G01X32647Y343D01*
G01X32648Y358D01*
G01X32647Y373D01*
G01X32644Y387D01*
G01X32639Y401D01*
G01X32631Y415D01*
G01X32622Y426D01*
G01X32611Y436D01*
G01X32598Y445D01*
G01X32585Y452D01*
G01X32540Y471D01*
G01X32496Y492D01*
G01X32453Y516D01*
G01X32410Y541D01*
G01X32369Y567D01*
G01X32329Y595D01*
G01X32291Y625D01*
G01X32253Y657D01*
G01X32217Y690D01*
G01X32183Y725D01*
G01X32150Y761D01*
G01X32118Y799D01*
G01X32088Y837D01*
G01X32060Y877D01*
G01X32034Y918D01*
G01X32009Y961D01*
G01X31986Y1004D01*
G01X31965Y1049D01*
G01X31946Y1093D01*
G01X31929Y1139D01*
G01X31914Y1186D01*
G01X31900Y1233D01*
G01X31889Y1281D01*
G01X31880Y1328D01*
G01X31872Y1377D01*
G01X31867Y1425D01*
G01X31864Y1475D01*
G01X31863Y1524D01*
G01X31864Y1573D01*
G01X31867Y1622D01*
G01X31872Y1670D01*
G01X31880Y1719D01*
G01X31889Y1767D01*
G01X31900Y1815D01*
G01X31914Y1862D01*
G01X31929Y1909D01*
G01X31947Y1955D01*
G01X31965Y2000D01*
G01X31987Y2044D01*
G01X32010Y2087D01*
G01X32034Y2130D01*
G01X32061Y2171D01*
G01X32090Y2211D01*
G01X32120Y2250D01*
G01X32151Y2288D01*
G01X32184Y2324D01*
G01X32219Y2359D01*
G01X32255Y2392D01*
G01X32293Y2423D01*
G01X32332Y2453D01*
G01X32372Y2482D01*
G01X32413Y2509D01*
G01X32456Y2533D01*
G01X32499Y2556D01*
G01X32543Y2578D01*
G01X32588Y2596D01*
G01X32634Y2614D01*
G01X32681Y2629D01*
G01X32728Y2643D01*
G01X32776Y2654D01*
G01X32824Y2663D01*
G01X32873Y2671D01*
G01X32921Y2676D01*
G01X32970Y2679D01*
G01X33020Y2680D01*
G01X33069Y2679D01*
G01X33118Y2676D01*
G01X33166Y2671D01*
G01X33215Y2663D01*
G01X33263Y2654D01*
G01X33311Y2643D01*
G01X33358Y2629D01*
G01X33405Y2614D01*
G01X33451Y2596D01*
G01X33496Y2578D01*
G01X33540Y2556D01*
G01X33583Y2533D01*
G01X33626Y2509D01*
G01X33667Y2482D01*
G01X33707Y2453D01*
G01X33746Y2423D01*
G01X33784Y2392D01*
G01X33820Y2359D01*
G01X33855Y2324D01*
G01X33888Y2288D01*
G01X33919Y2250D01*
G01X33949Y2211D01*
G01X33978Y2171D01*
G01X34005Y2130D01*
G01X34029Y2087D01*
G01X34052Y2044D01*
G01X34074Y2000D01*
G01X34092Y1955D01*
G01X34110Y1909D01*
G01X34125Y1862D01*
G01X34139Y1815D01*
G01X34150Y1767D01*
G01X34159Y1719D01*
G01X34167Y1670D01*
G01X34172Y1622D01*
G01X34175Y1573D01*
G01X34176Y1524D01*
G01X34175Y1475D01*
G01X34172Y1425D01*
G01X34167Y1377D01*
G01X34159Y1328D01*
G01X34150Y1281D01*
G01X34139Y1233D01*
G01X34125Y1186D01*
G01X34110Y1139D01*
G01X34093Y1093D01*
G01X34074Y1049D01*
G01X34053Y1004D01*
G01X34030Y961D01*
G01X34005Y918D01*
G01X33979Y877D01*
G01X33951Y837D01*
G01X33921Y799D01*
G01X33889Y761D01*
G01X33856Y725D01*
G01X33822Y690D01*
G01X33786Y657D01*
G01X33748Y625D01*
G01X33710Y595D01*
G01X33670Y567D01*
G01X33629Y541D01*
G01X33586Y516D01*
G01X33543Y492D01*
G01X33499Y471D01*
G01X33454Y452D01*
G01X33441Y445D01*
G01X33428Y436D01*
G01X33417Y426D01*
G01X33408Y415D01*
G01X33401Y401D01*
G01X33395Y387D01*
G01X33392Y373D01*
G01X33391Y358D01*
G01X33392Y343D01*
G01X33395Y329D01*
G01X33400Y315D01*
G01X33407Y303D01*
G01X33416Y291D01*
G01X33426Y281D01*
G01X33438Y272D01*
G01X33450Y265D01*
G01X33464Y260D01*
G01X33478Y257D01*
G01X33492Y256D01*
G01X35087Y256D01*
G01X35101Y257D01*
G01X35115Y260D01*
G01X35129Y265D01*
G01X35141Y272D01*
G01X35153Y281D01*
G01X35163Y291D01*
G01X35172Y303D01*
G01X35179Y315D01*
G01X35184Y329D01*
G01X35187Y343D01*
G01X35188Y358D01*
G01X35187Y373D01*
G01X35184Y387D01*
G01X35179Y401D01*
G01X35171Y415D01*
G01X35162Y426D01*
G01X35151Y436D01*
G01X35138Y445D01*
G01X35125Y452D01*
G01X35080Y471D01*
G01X35036Y492D01*
G01X34993Y516D01*
G01X34950Y541D01*
G01X34909Y567D01*
G01X34869Y595D01*
G01X34831Y625D01*
G01X34793Y657D01*
G01X34757Y690D01*
G01X34723Y725D01*
G01X34690Y761D01*
G01X34658Y799D01*
G01X34628Y837D01*
G01X34600Y877D01*
G01X34574Y918D01*
G01X34549Y961D01*
G01X34526Y1004D01*
G01X34505Y1049D01*
G01X34486Y1093D01*
G01X34469Y1139D01*
G01X34454Y1186D01*
G01X34440Y1233D01*
G01X34429Y1281D01*
G01X34420Y1328D01*
G01X34412Y1377D01*
G01X34407Y1425D01*
G01X34404Y1475D01*
G01X34403Y1524D01*
G01X34404Y1573D01*
G01X34407Y1622D01*
G01X34412Y1670D01*
G01X34420Y1719D01*
G01X34429Y1767D01*
G01X34440Y1815D01*
G01X34454Y1862D01*
G01X34469Y1909D01*
G01X34487Y1955D01*
G01X34505Y2000D01*
G01X34527Y2044D01*
G01X34550Y2087D01*
G01X34574Y2130D01*
G01X34601Y2171D01*
G01X34630Y2211D01*
G01X34660Y2250D01*
G01X34691Y2288D01*
G01X34724Y2324D01*
G01X34759Y2359D01*
G01X34795Y2392D01*
G01X34833Y2423D01*
G01X34872Y2453D01*
G01X34912Y2482D01*
G01X34953Y2509D01*
G01X34996Y2533D01*
G01X35039Y2556D01*
G01X35083Y2578D01*
G01X35128Y2596D01*
G01X35174Y2614D01*
G01X35221Y2629D01*
G01X35268Y2643D01*
G01X35316Y2654D01*
G01X35364Y2663D01*
G01X35413Y2671D01*
G01X35461Y2676D01*
G01X35510Y2679D01*
G01X35560Y2680D01*
G01X35609Y2679D01*
G01X35658Y2676D01*
G01X35706Y2671D01*
G01X35755Y2663D01*
G01X35803Y2654D01*
G01X35851Y2643D01*
G01X35898Y2629D01*
G01X35945Y2614D01*
G01X35991Y2596D01*
G01X36036Y2578D01*
G01X36080Y2556D01*
G01X36123Y2533D01*
G01X36166Y2509D01*
G01X36207Y2482D01*
G01X36247Y2453D01*
G01X36286Y2423D01*
G01X36324Y2392D01*
G01X36360Y2359D01*
G01X36395Y2324D01*
G01X36428Y2288D01*
G01X36459Y2250D01*
G01X36489Y2211D01*
G01X36518Y2171D01*
G01X36545Y2130D01*
G01X36569Y2087D01*
G01X36592Y2044D01*
G01X36614Y2000D01*
G01X36632Y1955D01*
G01X36650Y1909D01*
G01X36665Y1862D01*
G01X36679Y1815D01*
G01X36690Y1767D01*
G01X36699Y1719D01*
G01X36707Y1670D01*
G01X36712Y1622D01*
G01X36715Y1573D01*
G01X36716Y1524D01*
G01X36715Y1475D01*
G01X36712Y1425D01*
G01X36707Y1377D01*
G01X36699Y1328D01*
G01X36690Y1281D01*
G01X36679Y1233D01*
G01X36665Y1186D01*
G01X36650Y1139D01*
G01X36633Y1093D01*
G01X36614Y1049D01*
G01X36593Y1004D01*
G01X36570Y961D01*
G01X36545Y918D01*
G01X36519Y877D01*
G01X36491Y837D01*
G01X36461Y799D01*
G01X36429Y761D01*
G01X36396Y725D01*
G01X36362Y690D01*
G01X36326Y657D01*
G01X36288Y625D01*
G01X36250Y595D01*
G01X36210Y567D01*
G01X36169Y541D01*
G01X36126Y516D01*
G01X36083Y492D01*
G01X36039Y471D01*
G01X35994Y452D01*
G01X35981Y445D01*
G01X35968Y436D01*
G01X35957Y426D01*
G01X35948Y415D01*
G01X35941Y401D01*
G01X35935Y387D01*
G01X35932Y373D01*
G01X35931Y358D01*
G01X35932Y343D01*
G01X35935Y329D01*
G01X35940Y315D01*
G01X35947Y303D01*
G01X35956Y291D01*
G01X35966Y281D01*
G01X35978Y272D01*
G01X35990Y265D01*
G01X36004Y260D01*
G01X36018Y257D01*
G01X36032Y256D01*
G01X37627Y256D01*
G01X37641Y257D01*
G01X37655Y260D01*
G01X37669Y265D01*
G01X37681Y272D01*
G01X37693Y281D01*
G01X37703Y291D01*
G01X37712Y303D01*
G01X37719Y315D01*
G01X37724Y329D01*
G01X37727Y343D01*
G01X37728Y358D01*
G01X37727Y373D01*
G01X37724Y387D01*
G01X37719Y401D01*
G01X37711Y415D01*
G01X37702Y426D01*
G01X37691Y436D01*
G01X37678Y445D01*
G01X37665Y452D01*
G01X37620Y471D01*
G01X37576Y492D01*
G01X37533Y516D01*
G01X37490Y541D01*
G01X37449Y567D01*
G01X37409Y595D01*
G01X37371Y625D01*
G01X37333Y657D01*
G01X37297Y690D01*
G01X37263Y725D01*
G01X37230Y761D01*
G01X37198Y799D01*
G01X37168Y837D01*
G01X37140Y877D01*
G01X37114Y918D01*
G01X37089Y961D01*
G01X37066Y1004D01*
G01X37045Y1049D01*
G01X37026Y1093D01*
G01X37009Y1139D01*
G01X36994Y1186D01*
G01X36980Y1233D01*
G01X36969Y1281D01*
G01X36960Y1328D01*
G01X36952Y1377D01*
G01X36947Y1425D01*
G01X36944Y1475D01*
G01X36943Y1524D01*
G01X36944Y1573D01*
G01X36947Y1622D01*
G01X36952Y1671D01*
G01X36960Y1720D01*
G01X36969Y1769D01*
G01X36981Y1817D01*
G01X36995Y1864D01*
G01X37010Y1912D01*
G01X37028Y1958D01*
G01X37047Y2003D01*
G01X37069Y2048D01*
G01X37092Y2091D01*
G01X37117Y2134D01*
G01X37144Y2175D01*
G01X37173Y2215D01*
G01X37203Y2255D01*
G01X37235Y2292D01*
G01X37269Y2328D01*
G01X37304Y2363D01*
G01X37341Y2396D01*
G01X37379Y2428D01*
G01X37418Y2458D01*
G01X37458Y2486D01*
G01X37501Y2513D01*
G01X37512Y2521D01*
G01X37523Y2532D01*
G01X37533Y2544D01*
G01X37540Y2556D01*
G01X37545Y2570D01*
G01X37548Y2585D01*
G01X37549Y2599D01*
G01X37548Y2616D01*
G01X37544Y2631D01*
G01X37538Y2646D01*
G01X37530Y2659D01*
G01X37519Y2672D01*
G01X36056Y4135D01*
G01X36044Y4146D01*
G01X36030Y4154D01*
G01X36015Y4160D01*
G01X36000Y4164D01*
G01X35984Y4165D01*
G37*

%LPC*%
G36*
G01X29966Y1010D02*
G01X29443Y1010D01*
G01X29491Y922D01*
G01X29518Y880D01*
G01X29547Y839D01*
G01X29578Y799D01*
G01X29610Y760D01*
G01X29644Y723D01*
G01X29679Y688D01*
G01X29716Y654D01*
G01X29755Y622D01*
G01X29795Y591D01*
G01X29836Y562D01*
G01X29878Y535D01*
G01X29966Y487D01*
G01X29966Y1010D01*
G37*
G36*
G01X31516Y1010D02*
G01X30993Y1010D01*
G01X30993Y487D01*
G01X31081Y535D01*
G01X31123Y562D01*
G01X31164Y591D01*
G01X31204Y622D01*
G01X31243Y654D01*
G01X31280Y688D01*
G01X31315Y723D01*
G01X31349Y760D01*
G01X31381Y799D01*
G01X31412Y839D01*
G01X31441Y880D01*
G01X31468Y922D01*
G01X31516Y1010D01*
G37*
G36*
G01X29966Y2037D02*
G01X29966Y2560D01*
G01X29878Y2512D01*
G01X29836Y2485D01*
G01X29795Y2456D01*
G01X29755Y2425D01*
G01X29716Y2393D01*
G01X29679Y2359D01*
G01X29644Y2324D01*
G01X29610Y2287D01*
G01X29578Y2248D01*
G01X29547Y2208D01*
G01X29518Y2167D01*
G01X29491Y2125D01*
G01X29443Y2037D01*
G01X29966Y2037D01*
G37*
G36*
G01X31081Y2512D02*
G01X30993Y2560D01*
G01X30993Y2037D01*
G01X31516Y2037D01*
G01X31468Y2125D01*
G01X31441Y2167D01*
G01X31412Y2208D01*
G01X31381Y2248D01*
G01X31349Y2287D01*
G01X31315Y2324D01*
G01X31280Y2359D01*
G01X31243Y2393D01*
G01X31204Y2425D01*
G01X31164Y2456D01*
G01X31123Y2485D01*
G01X31081Y2512D01*
G37*

%LPD*%
G36*
G01X25189Y4419D02*
G01X14434Y4419D01*
G01X14418Y4418D01*
G01X14403Y4414D01*
G01X14388Y4408D01*
G01X14374Y4400D01*
G01X14362Y4389D01*
G01X12108Y2135D01*
G01X12098Y2123D01*
G01X12089Y2109D01*
G01X12083Y2094D01*
G01X12079Y2079D01*
G01X12078Y2063D01*
G01X12078Y623D01*
G01X12077Y599D01*
G01X12074Y576D01*
G01X12068Y553D01*
G01X12060Y530D01*
G01X12051Y509D01*
G01X12039Y488D01*
G01X12025Y468D01*
G01X12010Y450D01*
G01X11993Y433D01*
G01X11982Y421D01*
G01X11973Y406D01*
G01X11965Y391D01*
G01X11961Y374D01*
G01X11960Y358D01*
G01X11961Y343D01*
G01X11964Y329D01*
G01X11969Y315D01*
G01X11976Y303D01*
G01X11985Y291D01*
G01X11995Y281D01*
G01X12007Y272D01*
G01X12019Y265D01*
G01X12033Y260D01*
G01X12047Y257D01*
G01X12061Y256D01*
G01X12989Y256D01*
G01X13004Y257D01*
G01X13019Y261D01*
G01X13034Y257D01*
G01X13050Y256D01*
G01X13873Y256D01*
G01X13889Y257D01*
G01X13904Y261D01*
G01X13919Y257D01*
G01X13934Y256D01*
G01X15529Y256D01*
G01X15543Y257D01*
G01X15557Y260D01*
G01X15571Y265D01*
G01X15583Y272D01*
G01X15595Y281D01*
G01X15605Y291D01*
G01X15614Y303D01*
G01X15621Y315D01*
G01X15626Y329D01*
G01X15629Y343D01*
G01X15630Y358D01*
G01X15629Y373D01*
G01X15626Y387D01*
G01X15621Y401D01*
G01X15613Y415D01*
G01X15604Y426D01*
G01X15593Y436D01*
G01X15580Y445D01*
G01X15567Y452D01*
G01X15522Y471D01*
G01X15478Y492D01*
G01X15435Y516D01*
G01X15392Y541D01*
G01X15351Y567D01*
G01X15311Y595D01*
G01X15273Y625D01*
G01X15235Y657D01*
G01X15199Y690D01*
G01X15165Y725D01*
G01X15132Y761D01*
G01X15100Y799D01*
G01X15070Y837D01*
G01X15042Y877D01*
G01X15016Y918D01*
G01X14991Y961D01*
G01X14968Y1004D01*
G01X14947Y1049D01*
G01X14928Y1093D01*
G01X14911Y1139D01*
G01X14896Y1186D01*
G01X14882Y1233D01*
G01X14871Y1281D01*
G01X14862Y1328D01*
G01X14854Y1377D01*
G01X14849Y1425D01*
G01X14846Y1475D01*
G01X14845Y1524D01*
G01X14846Y1573D01*
G01X14849Y1622D01*
G01X14854Y1670D01*
G01X14862Y1719D01*
G01X14871Y1767D01*
G01X14882Y1815D01*
G01X14896Y1862D01*
G01X14911Y1909D01*
G01X14929Y1955D01*
G01X14947Y2000D01*
G01X14969Y2044D01*
G01X14992Y2087D01*
G01X15016Y2130D01*
G01X15043Y2171D01*
G01X15072Y2211D01*
G01X15102Y2250D01*
G01X15133Y2288D01*
G01X15166Y2324D01*
G01X15201Y2359D01*
G01X15237Y2392D01*
G01X15275Y2423D01*
G01X15314Y2453D01*
G01X15354Y2482D01*
G01X15395Y2509D01*
G01X15438Y2533D01*
G01X15481Y2556D01*
G01X15525Y2578D01*
G01X15570Y2596D01*
G01X15616Y2614D01*
G01X15663Y2629D01*
G01X15710Y2643D01*
G01X15758Y2654D01*
G01X15806Y2663D01*
G01X15855Y2671D01*
G01X15903Y2676D01*
G01X15952Y2679D01*
G01X16002Y2680D01*
G01X16051Y2679D01*
G01X16100Y2676D01*
G01X16148Y2671D01*
G01X16197Y2663D01*
G01X16245Y2654D01*
G01X16293Y2643D01*
G01X16340Y2629D01*
G01X16387Y2614D01*
G01X16433Y2596D01*
G01X16478Y2578D01*
G01X16522Y2556D01*
G01X16565Y2533D01*
G01X16608Y2509D01*
G01X16649Y2482D01*
G01X16689Y2453D01*
G01X16728Y2423D01*
G01X16766Y2392D01*
G01X16802Y2359D01*
G01X16837Y2324D01*
G01X16870Y2288D01*
G01X16901Y2250D01*
G01X16931Y2211D01*
G01X16960Y2171D01*
G01X16987Y2130D01*
G01X17011Y2087D01*
G01X17034Y2044D01*
G01X17056Y2000D01*
G01X17074Y1955D01*
G01X17092Y1909D01*
G01X17107Y1862D01*
G01X17121Y1815D01*
G01X17132Y1767D01*
G01X17141Y1719D01*
G01X17149Y1670D01*
G01X17154Y1622D01*
G01X17157Y1573D01*
G01X17158Y1524D01*
G01X17157Y1475D01*
G01X17154Y1425D01*
G01X17149Y1377D01*
G01X17141Y1328D01*
G01X17132Y1281D01*
G01X17121Y1233D01*
G01X17107Y1186D01*
G01X17092Y1139D01*
G01X17075Y1093D01*
G01X17056Y1049D01*
G01X17035Y1004D01*
G01X17012Y961D01*
G01X16987Y918D01*
G01X16961Y877D01*
G01X16933Y837D01*
G01X16903Y799D01*
G01X16871Y761D01*
G01X16838Y725D01*
G01X16804Y690D01*
G01X16768Y657D01*
G01X16730Y625D01*
G01X16692Y595D01*
G01X16652Y567D01*
G01X16611Y541D01*
G01X16568Y516D01*
G01X16525Y492D01*
G01X16481Y471D01*
G01X16436Y452D01*
G01X16423Y445D01*
G01X16410Y436D01*
G01X16399Y426D01*
G01X16390Y415D01*
G01X16383Y401D01*
G01X16377Y387D01*
G01X16374Y373D01*
G01X16373Y358D01*
G01X16374Y343D01*
G01X16377Y329D01*
G01X16382Y315D01*
G01X16389Y303D01*
G01X16398Y291D01*
G01X16408Y281D01*
G01X16420Y272D01*
G01X16432Y265D01*
G01X16446Y260D01*
G01X16460Y257D01*
G01X16474Y256D01*
G01X18069Y256D01*
G01X18083Y257D01*
G01X18097Y260D01*
G01X18111Y265D01*
G01X18123Y272D01*
G01X18135Y281D01*
G01X18145Y291D01*
G01X18154Y303D01*
G01X18161Y315D01*
G01X18166Y329D01*
G01X18169Y343D01*
G01X18170Y358D01*
G01X18169Y373D01*
G01X18166Y387D01*
G01X18161Y401D01*
G01X18153Y415D01*
G01X18144Y426D01*
G01X18133Y436D01*
G01X18120Y445D01*
G01X18107Y452D01*
G01X18062Y471D01*
G01X18018Y492D01*
G01X17975Y516D01*
G01X17932Y541D01*
G01X17891Y567D01*
G01X17851Y595D01*
G01X17813Y625D01*
G01X17775Y657D01*
G01X17739Y690D01*
G01X17705Y725D01*
G01X17672Y761D01*
G01X17640Y799D01*
G01X17610Y837D01*
G01X17582Y877D01*
G01X17556Y918D01*
G01X17531Y961D01*
G01X17508Y1004D01*
G01X17487Y1049D01*
G01X17468Y1093D01*
G01X17451Y1139D01*
G01X17436Y1186D01*
G01X17422Y1233D01*
G01X17411Y1281D01*
G01X17402Y1328D01*
G01X17394Y1377D01*
G01X17389Y1425D01*
G01X17386Y1475D01*
G01X17385Y1524D01*
G01X17386Y1573D01*
G01X17389Y1622D01*
G01X17394Y1670D01*
G01X17402Y1719D01*
G01X17411Y1767D01*
G01X17422Y1815D01*
G01X17436Y1862D01*
G01X17451Y1909D01*
G01X17469Y1955D01*
G01X17487Y2000D01*
G01X17509Y2044D01*
G01X17532Y2087D01*
G01X17556Y2130D01*
G01X17583Y2171D01*
G01X17612Y2211D01*
G01X17642Y2250D01*
G01X17673Y2288D01*
G01X17706Y2324D01*
G01X17741Y2359D01*
G01X17777Y2392D01*
G01X17815Y2423D01*
G01X17854Y2453D01*
G01X17894Y2482D01*
G01X17935Y2509D01*
G01X17978Y2533D01*
G01X18021Y2556D01*
G01X18065Y2578D01*
G01X18110Y2596D01*
G01X18156Y2614D01*
G01X18203Y2629D01*
G01X18250Y2643D01*
G01X18298Y2654D01*
G01X18346Y2663D01*
G01X18395Y2671D01*
G01X18443Y2676D01*
G01X18492Y2679D01*
G01X18542Y2680D01*
G01X18591Y2679D01*
G01X18640Y2676D01*
G01X18688Y2671D01*
G01X18737Y2663D01*
G01X18785Y2654D01*
G01X18833Y2643D01*
G01X18880Y2629D01*
G01X18927Y2614D01*
G01X18973Y2596D01*
G01X19018Y2578D01*
G01X19062Y2556D01*
G01X19105Y2533D01*
G01X19148Y2509D01*
G01X19189Y2482D01*
G01X19229Y2453D01*
G01X19268Y2423D01*
G01X19306Y2392D01*
G01X19342Y2359D01*
G01X19377Y2324D01*
G01X19410Y2288D01*
G01X19441Y2250D01*
G01X19471Y2211D01*
G01X19500Y2171D01*
G01X19527Y2130D01*
G01X19551Y2087D01*
G01X19574Y2044D01*
G01X19596Y2000D01*
G01X19614Y1955D01*
G01X19632Y1909D01*
G01X19647Y1862D01*
G01X19661Y1815D01*
G01X19672Y1767D01*
G01X19681Y1719D01*
G01X19689Y1670D01*
G01X19694Y1622D01*
G01X19697Y1573D01*
G01X19698Y1524D01*
G01X19697Y1475D01*
G01X19694Y1425D01*
G01X19689Y1377D01*
G01X19681Y1328D01*
G01X19672Y1281D01*
G01X19661Y1233D01*
G01X19647Y1186D01*
G01X19632Y1139D01*
G01X19615Y1093D01*
G01X19596Y1049D01*
G01X19575Y1004D01*
G01X19552Y961D01*
G01X19527Y918D01*
G01X19501Y877D01*
G01X19473Y837D01*
G01X19443Y799D01*
G01X19411Y761D01*
G01X19378Y725D01*
G01X19344Y690D01*
G01X19308Y657D01*
G01X19270Y625D01*
G01X19232Y595D01*
G01X19192Y567D01*
G01X19151Y541D01*
G01X19108Y516D01*
G01X19065Y492D01*
G01X19021Y471D01*
G01X18976Y452D01*
G01X18963Y445D01*
G01X18950Y436D01*
G01X18939Y426D01*
G01X18930Y415D01*
G01X18923Y401D01*
G01X18917Y387D01*
G01X18914Y373D01*
G01X18913Y358D01*
G01X18914Y343D01*
G01X18917Y329D01*
G01X18922Y315D01*
G01X18929Y303D01*
G01X18938Y291D01*
G01X18948Y281D01*
G01X18960Y272D01*
G01X18972Y265D01*
G01X18986Y260D01*
G01X19000Y257D01*
G01X19014Y256D01*
G01X20609Y256D01*
G01X20623Y257D01*
G01X20637Y260D01*
G01X20651Y265D01*
G01X20663Y272D01*
G01X20675Y281D01*
G01X20685Y291D01*
G01X20694Y303D01*
G01X20701Y315D01*
G01X20706Y329D01*
G01X20709Y343D01*
G01X20710Y358D01*
G01X20709Y373D01*
G01X20706Y387D01*
G01X20701Y401D01*
G01X20693Y415D01*
G01X20684Y426D01*
G01X20673Y436D01*
G01X20660Y445D01*
G01X20647Y452D01*
G01X20602Y471D01*
G01X20558Y492D01*
G01X20515Y516D01*
G01X20472Y541D01*
G01X20431Y567D01*
G01X20391Y595D01*
G01X20353Y625D01*
G01X20315Y657D01*
G01X20279Y690D01*
G01X20245Y725D01*
G01X20212Y761D01*
G01X20180Y799D01*
G01X20150Y837D01*
G01X20122Y877D01*
G01X20096Y918D01*
G01X20071Y961D01*
G01X20048Y1004D01*
G01X20027Y1049D01*
G01X20008Y1093D01*
G01X19991Y1139D01*
G01X19976Y1186D01*
G01X19962Y1233D01*
G01X19951Y1281D01*
G01X19942Y1328D01*
G01X19934Y1377D01*
G01X19929Y1425D01*
G01X19926Y1475D01*
G01X19925Y1524D01*
G01X19926Y1573D01*
G01X19929Y1622D01*
G01X19934Y1670D01*
G01X19942Y1719D01*
G01X19951Y1767D01*
G01X19962Y1815D01*
G01X19976Y1862D01*
G01X19991Y1909D01*
G01X20009Y1955D01*
G01X20027Y2000D01*
G01X20049Y2044D01*
G01X20072Y2087D01*
G01X20096Y2130D01*
G01X20123Y2171D01*
G01X20152Y2211D01*
G01X20182Y2250D01*
G01X20213Y2288D01*
G01X20246Y2324D01*
G01X20281Y2359D01*
G01X20317Y2392D01*
G01X20355Y2423D01*
G01X20394Y2453D01*
G01X20434Y2482D01*
G01X20475Y2509D01*
G01X20518Y2533D01*
G01X20561Y2556D01*
G01X20605Y2578D01*
G01X20650Y2596D01*
G01X20696Y2614D01*
G01X20743Y2629D01*
G01X20790Y2643D01*
G01X20838Y2654D01*
G01X20886Y2663D01*
G01X20935Y2671D01*
G01X20983Y2676D01*
G01X21032Y2679D01*
G01X21082Y2680D01*
G01X21131Y2679D01*
G01X21180Y2676D01*
G01X21228Y2671D01*
G01X21277Y2663D01*
G01X21325Y2654D01*
G01X21373Y2643D01*
G01X21420Y2629D01*
G01X21467Y2614D01*
G01X21513Y2596D01*
G01X21558Y2578D01*
G01X21602Y2556D01*
G01X21645Y2533D01*
G01X21688Y2509D01*
G01X21729Y2482D01*
G01X21769Y2453D01*
G01X21808Y2423D01*
G01X21846Y2392D01*
G01X21882Y2359D01*
G01X21917Y2324D01*
G01X21950Y2288D01*
G01X21981Y2250D01*
G01X22011Y2211D01*
G01X22040Y2171D01*
G01X22067Y2130D01*
G01X22091Y2087D01*
G01X22114Y2044D01*
G01X22136Y2000D01*
G01X22154Y1955D01*
G01X22172Y1909D01*
G01X22187Y1862D01*
G01X22201Y1815D01*
G01X22212Y1767D01*
G01X22221Y1719D01*
G01X22229Y1670D01*
G01X22234Y1622D01*
G01X22237Y1573D01*
G01X22238Y1524D01*
G01X22237Y1475D01*
G01X22234Y1425D01*
G01X22229Y1377D01*
G01X22221Y1328D01*
G01X22212Y1281D01*
G01X22201Y1233D01*
G01X22187Y1186D01*
G01X22172Y1139D01*
G01X22155Y1093D01*
G01X22136Y1049D01*
G01X22115Y1004D01*
G01X22092Y961D01*
G01X22067Y918D01*
G01X22041Y877D01*
G01X22013Y837D01*
G01X21983Y799D01*
G01X21951Y761D01*
G01X21918Y725D01*
G01X21884Y690D01*
G01X21848Y657D01*
G01X21810Y625D01*
G01X21772Y595D01*
G01X21732Y567D01*
G01X21691Y541D01*
G01X21648Y516D01*
G01X21605Y492D01*
G01X21561Y471D01*
G01X21516Y452D01*
G01X21503Y445D01*
G01X21490Y436D01*
G01X21479Y426D01*
G01X21470Y415D01*
G01X21463Y401D01*
G01X21457Y387D01*
G01X21454Y373D01*
G01X21453Y358D01*
G01X21454Y343D01*
G01X21457Y329D01*
G01X21462Y315D01*
G01X21469Y303D01*
G01X21478Y291D01*
G01X21488Y281D01*
G01X21500Y272D01*
G01X21512Y265D01*
G01X21526Y260D01*
G01X21540Y257D01*
G01X21554Y256D01*
G01X23149Y256D01*
G01X23163Y257D01*
G01X23177Y260D01*
G01X23191Y265D01*
G01X23203Y272D01*
G01X23215Y281D01*
G01X23225Y291D01*
G01X23234Y303D01*
G01X23241Y315D01*
G01X23246Y329D01*
G01X23249Y343D01*
G01X23250Y358D01*
G01X23249Y373D01*
G01X23246Y387D01*
G01X23241Y401D01*
G01X23233Y415D01*
G01X23224Y426D01*
G01X23213Y436D01*
G01X23200Y445D01*
G01X23187Y452D01*
G01X23142Y471D01*
G01X23098Y492D01*
G01X23055Y516D01*
G01X23012Y541D01*
G01X22971Y567D01*
G01X22931Y595D01*
G01X22893Y625D01*
G01X22855Y657D01*
G01X22819Y690D01*
G01X22785Y725D01*
G01X22752Y761D01*
G01X22720Y799D01*
G01X22690Y837D01*
G01X22662Y877D01*
G01X22636Y918D01*
G01X22611Y961D01*
G01X22588Y1004D01*
G01X22567Y1049D01*
G01X22548Y1093D01*
G01X22531Y1139D01*
G01X22516Y1186D01*
G01X22502Y1233D01*
G01X22491Y1281D01*
G01X22482Y1328D01*
G01X22474Y1377D01*
G01X22469Y1425D01*
G01X22466Y1475D01*
G01X22465Y1524D01*
G01X22466Y1573D01*
G01X22469Y1622D01*
G01X22474Y1670D01*
G01X22482Y1719D01*
G01X22491Y1767D01*
G01X22502Y1815D01*
G01X22516Y1862D01*
G01X22531Y1909D01*
G01X22549Y1955D01*
G01X22567Y2000D01*
G01X22589Y2044D01*
G01X22612Y2087D01*
G01X22636Y2130D01*
G01X22663Y2171D01*
G01X22692Y2211D01*
G01X22722Y2250D01*
G01X22753Y2288D01*
G01X22786Y2324D01*
G01X22821Y2359D01*
G01X22857Y2392D01*
G01X22895Y2423D01*
G01X22934Y2453D01*
G01X22974Y2482D01*
G01X23015Y2509D01*
G01X23058Y2533D01*
G01X23101Y2556D01*
G01X23145Y2578D01*
G01X23190Y2596D01*
G01X23236Y2614D01*
G01X23283Y2629D01*
G01X23330Y2643D01*
G01X23378Y2654D01*
G01X23426Y2663D01*
G01X23475Y2671D01*
G01X23523Y2676D01*
G01X23572Y2679D01*
G01X23622Y2680D01*
G01X23671Y2679D01*
G01X23720Y2676D01*
G01X23768Y2671D01*
G01X23817Y2663D01*
G01X23865Y2654D01*
G01X23913Y2643D01*
G01X23960Y2629D01*
G01X24007Y2614D01*
G01X24053Y2596D01*
G01X24098Y2578D01*
G01X24142Y2556D01*
G01X24185Y2533D01*
G01X24228Y2509D01*
G01X24269Y2482D01*
G01X24309Y2453D01*
G01X24348Y2423D01*
G01X24386Y2392D01*
G01X24422Y2359D01*
G01X24457Y2324D01*
G01X24490Y2288D01*
G01X24521Y2250D01*
G01X24551Y2211D01*
G01X24580Y2171D01*
G01X24607Y2130D01*
G01X24631Y2087D01*
G01X24654Y2044D01*
G01X24676Y2000D01*
G01X24694Y1955D01*
G01X24712Y1909D01*
G01X24727Y1862D01*
G01X24741Y1815D01*
G01X24752Y1767D01*
G01X24761Y1719D01*
G01X24769Y1670D01*
G01X24774Y1622D01*
G01X24777Y1573D01*
G01X24778Y1524D01*
G01X24777Y1475D01*
G01X24774Y1425D01*
G01X24769Y1377D01*
G01X24761Y1328D01*
G01X24752Y1281D01*
G01X24741Y1233D01*
G01X24727Y1186D01*
G01X24712Y1139D01*
G01X24695Y1093D01*
G01X24676Y1049D01*
G01X24655Y1004D01*
G01X24632Y961D01*
G01X24607Y918D01*
G01X24581Y877D01*
G01X24553Y837D01*
G01X24523Y799D01*
G01X24491Y761D01*
G01X24458Y725D01*
G01X24424Y690D01*
G01X24388Y657D01*
G01X24350Y625D01*
G01X24312Y595D01*
G01X24272Y567D01*
G01X24231Y541D01*
G01X24188Y516D01*
G01X24145Y492D01*
G01X24101Y471D01*
G01X24056Y452D01*
G01X24043Y445D01*
G01X24030Y436D01*
G01X24019Y426D01*
G01X24010Y415D01*
G01X24003Y401D01*
G01X23997Y387D01*
G01X23994Y373D01*
G01X23993Y358D01*
G01X23994Y343D01*
G01X23997Y329D01*
G01X24002Y315D01*
G01X24009Y303D01*
G01X24018Y291D01*
G01X24028Y281D01*
G01X24040Y272D01*
G01X24052Y265D01*
G01X24066Y260D01*
G01X24080Y257D01*
G01X24094Y256D01*
G01X26800Y256D01*
G01X26814Y257D01*
G01X26828Y260D01*
G01X26842Y265D01*
G01X26854Y272D01*
G01X26866Y281D01*
G01X26876Y291D01*
G01X26885Y303D01*
G01X26892Y315D01*
G01X26897Y329D01*
G01X26900Y343D01*
G01X26901Y358D01*
G01X26900Y374D01*
G01X26896Y391D01*
G01X26888Y406D01*
G01X26879Y421D01*
G01X26868Y433D01*
G01X26851Y450D01*
G01X26836Y468D01*
G01X26822Y488D01*
G01X26810Y509D01*
G01X26801Y530D01*
G01X26793Y553D01*
G01X26787Y576D01*
G01X26784Y599D01*
G01X26783Y623D01*
G01X26783Y2424D01*
G01X26784Y2448D01*
G01X26788Y2473D01*
G01X26793Y2497D01*
G01X26802Y2520D01*
G01X26812Y2543D01*
G01X26825Y2564D01*
G01X26840Y2584D01*
G01X26856Y2603D01*
G01X26874Y2620D01*
G01X26885Y2630D01*
G01X26894Y2642D01*
G01X26901Y2655D01*
G01X26906Y2669D01*
G01X26909Y2683D01*
G01X26910Y2697D01*
G01X26909Y2713D01*
G01X26906Y2729D01*
G01X26900Y2744D01*
G01X26891Y2757D01*
G01X26881Y2769D01*
G01X25261Y4389D01*
G01X25249Y4400D01*
G01X25235Y4408D01*
G01X25220Y4414D01*
G01X25205Y4418D01*
G01X25189Y4419D01*
G37*

%LPC*%
G36*
G01X12948Y1010D02*
G01X12425Y1010D01*
G01X12473Y922D01*
G01X12500Y880D01*
G01X12529Y839D01*
G01X12560Y799D01*
G01X12592Y760D01*
G01X12626Y723D01*
G01X12661Y688D01*
G01X12698Y654D01*
G01X12737Y622D01*
G01X12777Y591D01*
G01X12818Y562D01*
G01X12860Y535D01*
G01X12948Y487D01*
G01X12948Y1010D01*
G37*
G36*
G01X14498Y1010D02*
G01X13975Y1010D01*
G01X13975Y487D01*
G01X14063Y535D01*
G01X14105Y562D01*
G01X14146Y591D01*
G01X14186Y622D01*
G01X14225Y654D01*
G01X14262Y688D01*
G01X14297Y723D01*
G01X14331Y760D01*
G01X14363Y799D01*
G01X14394Y839D01*
G01X14423Y880D01*
G01X14450Y922D01*
G01X14498Y1010D01*
G37*
G36*
G01X14063Y2512D02*
G01X13975Y2560D01*
G01X13975Y2037D01*
G01X14498Y2037D01*
G01X14450Y2125D01*
G01X14423Y2167D01*
G01X14394Y2208D01*
G01X14363Y2248D01*
G01X14331Y2287D01*
G01X14297Y2324D01*
G01X14262Y2359D01*
G01X14225Y2393D01*
G01X14186Y2425D01*
G01X14146Y2456D01*
G01X14105Y2485D01*
G01X14063Y2512D01*
G37*
G36*
G01X12948Y2037D02*
G01X12948Y2560D01*
G01X12860Y2512D01*
G01X12818Y2485D01*
G01X12777Y2456D01*
G01X12737Y2425D01*
G01X12698Y2393D01*
G01X12661Y2359D01*
G01X12626Y2324D01*
G01X12592Y2287D01*
G01X12560Y2248D01*
G01X12529Y2208D01*
G01X12500Y2167D01*
G01X12473Y2125D01*
G01X12425Y2037D01*
G01X12948Y2037D01*
G37*

%LPD*%
G36*
G01X8864Y29842D02*
G01X358Y29842D01*
G01X343Y29841D01*
G01X329Y29838D01*
G01X315Y29833D01*
G01X303Y29826D01*
G01X291Y29817D01*
G01X281Y29807D01*
G01X272Y29795D01*
G01X265Y29783D01*
G01X260Y29769D01*
G01X257Y29755D01*
G01X256Y29740D01*
G01X256Y4679D01*
G01X257Y4664D01*
G01X260Y4650D01*
G01X265Y4637D01*
G01X272Y4624D01*
G01X281Y4613D01*
G01X291Y4602D01*
G01X303Y4593D01*
G01X315Y4587D01*
G01X329Y4582D01*
G01X343Y4579D01*
G01X358Y4578D01*
G01X374Y4579D01*
G01X390Y4583D01*
G01X405Y4589D01*
G01X419Y4598D01*
G01X431Y4609D01*
G01X441Y4621D01*
G01X487Y4686D01*
G01X534Y4749D01*
G01X583Y4811D01*
G01X633Y4872D01*
G01X685Y4931D01*
G01X738Y4989D01*
G01X793Y5045D01*
G01X849Y5100D01*
G01X907Y5154D01*
G01X1027Y5256D01*
G01X1089Y5305D01*
G01X1152Y5352D01*
G01X1216Y5398D01*
G01X1282Y5441D01*
G01X1348Y5483D01*
G01X1416Y5523D01*
G01X1485Y5562D01*
G01X1554Y5599D01*
G01X1625Y5634D01*
G01X1697Y5667D01*
G01X1769Y5698D01*
G01X1842Y5727D01*
G01X1916Y5754D01*
G01X1991Y5780D01*
G01X2066Y5803D01*
G01X2142Y5824D01*
G01X2218Y5844D01*
G01X2295Y5861D01*
G01X2372Y5877D01*
G01X2450Y5890D01*
G01X2528Y5901D01*
G01X2606Y5911D01*
G01X2684Y5918D01*
G01X2763Y5923D01*
G01X2842Y5926D01*
G01X2921Y5927D01*
G01X2999Y5926D01*
G01X3078Y5923D01*
G01X3156Y5918D01*
G01X3235Y5911D01*
G01X3313Y5901D01*
G01X3391Y5890D01*
G01X3469Y5877D01*
G01X3545Y5861D01*
G01X3623Y5844D01*
G01X3699Y5825D01*
G01X3774Y5803D01*
G01X3850Y5780D01*
G01X3924Y5755D01*
G01X3998Y5727D01*
G01X4071Y5698D01*
G01X4143Y5667D01*
G01X4215Y5634D01*
G01X4285Y5599D01*
G01X4355Y5563D01*
G01X4424Y5524D01*
G01X4491Y5484D01*
G01X4558Y5442D01*
G01X4623Y5398D01*
G01X4688Y5353D01*
G01X4751Y5306D01*
G01X4813Y5257D01*
G01X4873Y5207D01*
G01X4932Y5155D01*
G01X4990Y5101D01*
G01X5046Y5046D01*
G01X5101Y4990D01*
G01X5155Y4932D01*
G01X5207Y4873D01*
G01X5257Y4813D01*
G01X5306Y4751D01*
G01X5353Y4688D01*
G01X5398Y4623D01*
G01X5442Y4558D01*
G01X5484Y4491D01*
G01X5524Y4424D01*
G01X5563Y4355D01*
G01X5599Y4285D01*
G01X5634Y4215D01*
G01X5667Y4143D01*
G01X5698Y4071D01*
G01X5727Y3998D01*
G01X5755Y3924D01*
G01X5780Y3850D01*
G01X5803Y3774D01*
G01X5825Y3699D01*
G01X5844Y3623D01*
G01X5861Y3545D01*
G01X5877Y3469D01*
G01X5890Y3391D01*
G01X5901Y3313D01*
G01X5911Y3235D01*
G01X5918Y3156D01*
G01X5923Y3078D01*
G01X5926Y2999D01*
G01X5927Y2921D01*
G01X5926Y2842D01*
G01X5923Y2763D01*
G01X5918Y2684D01*
G01X5911Y2606D01*
G01X5901Y2528D01*
G01X5890Y2450D01*
G01X5877Y2372D01*
G01X5861Y2295D01*
G01X5844Y2218D01*
G01X5824Y2142D01*
G01X5803Y2066D01*
G01X5780Y1991D01*
G01X5754Y1916D01*
G01X5727Y1842D01*
G01X5698Y1769D01*
G01X5667Y1697D01*
G01X5634Y1625D01*
G01X5599Y1554D01*
G01X5562Y1485D01*
G01X5523Y1416D01*
G01X5483Y1348D01*
G01X5441Y1282D01*
G01X5398Y1216D01*
G01X5352Y1152D01*
G01X5305Y1089D01*
G01X5256Y1027D01*
G01X5154Y907D01*
G01X5100Y849D01*
G01X5045Y793D01*
G01X4989Y738D01*
G01X4931Y685D01*
G01X4872Y633D01*
G01X4811Y583D01*
G01X4749Y534D01*
G01X4686Y487D01*
G01X4621Y441D01*
G01X4609Y431D01*
G01X4598Y419D01*
G01X4589Y405D01*
G01X4583Y390D01*
G01X4579Y374D01*
G01X4578Y358D01*
G01X4579Y343D01*
G01X4582Y329D01*
G01X4587Y315D01*
G01X4593Y303D01*
G01X4602Y291D01*
G01X4613Y281D01*
G01X4624Y272D01*
G01X4637Y265D01*
G01X4650Y260D01*
G01X4664Y257D01*
G01X4679Y256D01*
G01X9782Y256D01*
G01X9796Y257D01*
G01X9810Y260D01*
G01X9824Y265D01*
G01X9836Y272D01*
G01X9848Y281D01*
G01X9858Y291D01*
G01X9867Y303D01*
G01X9874Y315D01*
G01X9879Y329D01*
G01X9882Y343D01*
G01X9883Y358D01*
G01X9882Y374D01*
G01X9878Y391D01*
G01X9870Y406D01*
G01X9861Y421D01*
G01X9850Y433D01*
G01X9833Y450D01*
G01X9818Y468D01*
G01X9804Y488D01*
G01X9792Y509D01*
G01X9783Y530D01*
G01X9775Y553D01*
G01X9769Y576D01*
G01X9766Y599D01*
G01X9765Y623D01*
G01X9765Y2424D01*
G01X9766Y2447D01*
G01X9769Y2470D01*
G01X9775Y2494D01*
G01X9782Y2516D01*
G01X9792Y2538D01*
G01X9803Y2558D01*
G01X9817Y2578D01*
G01X9832Y2596D01*
G01X9849Y2613D01*
G01X9867Y2628D01*
G01X9887Y2642D01*
G01X9907Y2653D01*
G01X9929Y2663D01*
G01X9951Y2670D01*
G01X9975Y2676D01*
G01X9998Y2679D01*
G01X10021Y2680D01*
G01X11461Y2680D01*
G01X11477Y2681D01*
G01X11492Y2685D01*
G01X11507Y2691D01*
G01X11521Y2700D01*
G01X11533Y2710D01*
G01X13831Y5007D01*
G01X13841Y5020D01*
G01X13849Y5033D01*
G01X13855Y5048D01*
G01X13859Y5063D01*
G01X13860Y5080D01*
G01X13859Y5094D01*
G01X13856Y5108D01*
G01X13851Y5122D01*
G01X13844Y5134D01*
G01X13835Y5146D01*
G01X13825Y5156D01*
G01X13814Y5165D01*
G01X13801Y5172D01*
G01X13787Y5177D01*
G01X13773Y5180D01*
G01X13759Y5181D01*
G01X12275Y5181D01*
G01X12259Y5180D01*
G01X12244Y5176D01*
G01X12229Y5170D01*
G01X12215Y5162D01*
G01X12203Y5151D01*
G01X11209Y4157D01*
G01X11188Y4137D01*
G01X11165Y4119D01*
G01X11141Y4103D01*
G01X11117Y4088D01*
G01X11090Y4075D01*
G01X11064Y4064D01*
G01X11036Y4054D01*
G01X11008Y4047D01*
G01X10979Y4042D01*
G01X10950Y4039D01*
G01X10922Y4038D01*
G01X6858Y4038D01*
G01X6829Y4039D01*
G01X6800Y4042D01*
G01X6771Y4047D01*
G01X6743Y4054D01*
G01X6715Y4064D01*
G01X6689Y4075D01*
G01X6662Y4088D01*
G01X6638Y4103D01*
G01X6614Y4119D01*
G01X6591Y4137D01*
G01X6570Y4157D01*
G01X3141Y7586D01*
G01X3121Y7607D01*
G01X3103Y7630D01*
G01X3087Y7654D01*
G01X3072Y7678D01*
G01X3059Y7705D01*
G01X3048Y7731D01*
G01X3038Y7759D01*
G01X3031Y7787D01*
G01X3026Y7816D01*
G01X3023Y7845D01*
G01X3022Y7874D01*
G01X3022Y18839D01*
G01X3021Y18855D01*
G01X3017Y18870D01*
G01X3011Y18885D01*
G01X3003Y18899D01*
G01X2992Y18911D01*
G01X1942Y19961D01*
G01X1930Y19972D01*
G01X1916Y19980D01*
G01X1901Y19986D01*
G01X1886Y19990D01*
G01X1870Y19991D01*
G01X1854Y19990D01*
G01X1838Y19986D01*
G01X1795Y19973D01*
G01X1751Y19961D01*
G01X1705Y19952D01*
G01X1660Y19945D01*
G01X1615Y19940D01*
G01X1569Y19937D01*
G01X1524Y19936D01*
G01X1478Y19937D01*
G01X1432Y19940D01*
G01X1387Y19945D01*
G01X1342Y19952D01*
G01X1297Y19961D01*
G01X1253Y19973D01*
G01X1209Y19986D01*
G01X1165Y20001D01*
G01X1123Y20018D01*
G01X1082Y20037D01*
G01X1041Y20057D01*
G01X1001Y20080D01*
G01X962Y20105D01*
G01X925Y20131D01*
G01X889Y20158D01*
G01X853Y20187D01*
G01X819Y20218D01*
G01X787Y20250D01*
G01X756Y20284D01*
G01X727Y20320D01*
G01X700Y20356D01*
G01X674Y20393D01*
G01X649Y20432D01*
G01X626Y20472D01*
G01X606Y20513D01*
G01X587Y20554D01*
G01X570Y20596D01*
G01X555Y20640D01*
G01X542Y20684D01*
G01X530Y20728D01*
G01X521Y20773D01*
G01X514Y20818D01*
G01X509Y20863D01*
G01X506Y20909D01*
G01X505Y20955D01*
G01X506Y21000D01*
G01X509Y21046D01*
G01X514Y21091D01*
G01X521Y21136D01*
G01X530Y21181D01*
G01X542Y21225D01*
G01X555Y21269D01*
G01X570Y21313D01*
G01X587Y21355D01*
G01X606Y21396D01*
G01X626Y21437D01*
G01X649Y21477D01*
G01X674Y21516D01*
G01X700Y21553D01*
G01X727Y21590D01*
G01X756Y21625D01*
G01X787Y21659D01*
G01X819Y21691D01*
G01X853Y21722D01*
G01X889Y21751D01*
G01X925Y21778D01*
G01X962Y21804D01*
G01X1001Y21829D01*
G01X1041Y21852D01*
G01X1082Y21872D01*
G01X1123Y21891D01*
G01X1165Y21908D01*
G01X1209Y21923D01*
G01X1253Y21936D01*
G01X1297Y21948D01*
G01X1342Y21957D01*
G01X1387Y21964D01*
G01X1432Y21969D01*
G01X1478Y21972D01*
G01X1524Y21973D01*
G01X1569Y21972D01*
G01X1615Y21969D01*
G01X1660Y21964D01*
G01X1705Y21957D01*
G01X1750Y21948D01*
G01X1794Y21936D01*
G01X1838Y21923D01*
G01X1882Y21908D01*
G01X1924Y21891D01*
G01X1965Y21872D01*
G01X2006Y21852D01*
G01X2046Y21829D01*
G01X2085Y21804D01*
G01X2122Y21778D01*
G01X2159Y21751D01*
G01X2194Y21722D01*
G01X2228Y21691D01*
G01X2260Y21659D01*
G01X2291Y21625D01*
G01X2320Y21590D01*
G01X2347Y21553D01*
G01X2373Y21516D01*
G01X2398Y21477D01*
G01X2421Y21437D01*
G01X2441Y21396D01*
G01X2460Y21355D01*
G01X2477Y21313D01*
G01X2492Y21269D01*
G01X2505Y21225D01*
G01X2517Y21181D01*
G01X2526Y21136D01*
G01X2533Y21091D01*
G01X2538Y21046D01*
G01X2541Y21000D01*
G01X2542Y20955D01*
G01X2541Y20909D01*
G01X2538Y20863D01*
G01X2533Y20818D01*
G01X2526Y20773D01*
G01X2517Y20727D01*
G01X2505Y20683D01*
G01X2492Y20640D01*
G01X2488Y20624D01*
G01X2487Y20608D01*
G01X2488Y20592D01*
G01X2492Y20577D01*
G01X2498Y20562D01*
G01X2506Y20548D01*
G01X2517Y20536D01*
G01X3610Y19442D01*
G01X3623Y19432D01*
G01X3636Y19424D01*
G01X3651Y19418D01*
G01X3666Y19414D01*
G01X3683Y19413D01*
G01X3697Y19414D01*
G01X3711Y19417D01*
G01X3725Y19422D01*
G01X3737Y19429D01*
G01X3749Y19438D01*
G01X3759Y19448D01*
G01X3768Y19459D01*
G01X3775Y19472D01*
G01X3780Y19486D01*
G01X3783Y19500D01*
G01X3784Y19514D01*
G01X3784Y20617D01*
G01X3783Y20633D01*
G01X3779Y20648D01*
G01X3773Y20663D01*
G01X3765Y20677D01*
G01X3754Y20689D01*
G01X1942Y22501D01*
G01X1930Y22512D01*
G01X1916Y22520D01*
G01X1901Y22526D01*
G01X1886Y22530D01*
G01X1870Y22531D01*
G01X1854Y22530D01*
G01X1838Y22526D01*
G01X1795Y22513D01*
G01X1751Y22501D01*
G01X1705Y22492D01*
G01X1660Y22485D01*
G01X1615Y22480D01*
G01X1569Y22477D01*
G01X1524Y22476D01*
G01X1478Y22477D01*
G01X1432Y22480D01*
G01X1387Y22485D01*
G01X1342Y22492D01*
G01X1297Y22501D01*
G01X1253Y22513D01*
G01X1209Y22526D01*
G01X1165Y22541D01*
G01X1123Y22558D01*
G01X1082Y22577D01*
G01X1041Y22597D01*
G01X1001Y22620D01*
G01X962Y22645D01*
G01X925Y22671D01*
G01X889Y22698D01*
G01X853Y22727D01*
G01X819Y22758D01*
G01X787Y22790D01*
G01X756Y22824D01*
G01X727Y22860D01*
G01X700Y22896D01*
G01X674Y22933D01*
G01X649Y22972D01*
G01X626Y23012D01*
G01X606Y23053D01*
G01X587Y23094D01*
G01X570Y23136D01*
G01X555Y23180D01*
G01X542Y23224D01*
G01X530Y23268D01*
G01X521Y23313D01*
G01X514Y23358D01*
G01X509Y23403D01*
G01X506Y23449D01*
G01X505Y23495D01*
G01X506Y23540D01*
G01X509Y23586D01*
G01X514Y23631D01*
G01X521Y23676D01*
G01X530Y23721D01*
G01X542Y23765D01*
G01X555Y23809D01*
G01X570Y23853D01*
G01X587Y23895D01*
G01X606Y23936D01*
G01X626Y23977D01*
G01X649Y24017D01*
G01X674Y24056D01*
G01X700Y24093D01*
G01X727Y24130D01*
G01X756Y24165D01*
G01X787Y24199D01*
G01X819Y24231D01*
G01X853Y24262D01*
G01X889Y24291D01*
G01X925Y24318D01*
G01X962Y24344D01*
G01X1001Y24369D01*
G01X1041Y24392D01*
G01X1082Y24412D01*
G01X1123Y24431D01*
G01X1165Y24448D01*
G01X1209Y24463D01*
G01X1253Y24476D01*
G01X1297Y24488D01*
G01X1342Y24497D01*
G01X1387Y24504D01*
G01X1432Y24509D01*
G01X1478Y24512D01*
G01X1524Y24513D01*
G01X1569Y24512D01*
G01X1615Y24509D01*
G01X1660Y24504D01*
G01X1705Y24497D01*
G01X1750Y24488D01*
G01X1794Y24476D01*
G01X1838Y24463D01*
G01X1882Y24448D01*
G01X1924Y24431D01*
G01X1965Y24412D01*
G01X2006Y24392D01*
G01X2046Y24369D01*
G01X2085Y24344D01*
G01X2122Y24318D01*
G01X2159Y24291D01*
G01X2194Y24262D01*
G01X2228Y24231D01*
G01X2260Y24199D01*
G01X2291Y24165D01*
G01X2320Y24130D01*
G01X2347Y24093D01*
G01X2373Y24056D01*
G01X2398Y24017D01*
G01X2421Y23977D01*
G01X2441Y23936D01*
G01X2460Y23895D01*
G01X2477Y23853D01*
G01X2492Y23809D01*
G01X2505Y23765D01*
G01X2517Y23721D01*
G01X2526Y23676D01*
G01X2533Y23631D01*
G01X2538Y23586D01*
G01X2541Y23540D01*
G01X2542Y23495D01*
G01X2541Y23449D01*
G01X2538Y23403D01*
G01X2533Y23358D01*
G01X2526Y23313D01*
G01X2517Y23267D01*
G01X2505Y23223D01*
G01X2492Y23180D01*
G01X2488Y23164D01*
G01X2487Y23148D01*
G01X2488Y23132D01*
G01X2492Y23117D01*
G01X2498Y23102D01*
G01X2506Y23088D01*
G01X2517Y23076D01*
G01X4478Y21115D01*
G01X4498Y21094D01*
G01X4516Y21071D01*
G01X4532Y21047D01*
G01X4547Y21023D01*
G01X4560Y20996D01*
G01X4572Y20970D01*
G01X4581Y20942D01*
G01X4588Y20914D01*
G01X4593Y20885D01*
G01X4596Y20856D01*
G01X4597Y20828D01*
G01X4597Y15196D01*
G01X4598Y15182D01*
G01X4601Y15168D01*
G01X4606Y15154D01*
G01X4613Y15141D01*
G01X4622Y15130D01*
G01X4632Y15120D01*
G01X4644Y15111D01*
G01X4656Y15104D01*
G01X4670Y15099D01*
G01X4684Y15096D01*
G01X4699Y15095D01*
G01X4715Y15096D01*
G01X4730Y15100D01*
G01X4745Y15106D01*
G01X4758Y15114D01*
G01X4771Y15124D01*
G01X6142Y16496D01*
G01X6153Y16510D01*
G01X6162Y16525D01*
G01X6168Y16542D01*
G01X6171Y16559D01*
G01X6175Y16593D01*
G01X6182Y16627D01*
G01X6190Y16661D01*
G01X6200Y16694D01*
G01X6213Y16726D01*
G01X6227Y16758D01*
G01X6243Y16788D01*
G01X6262Y16818D01*
G01X6281Y16846D01*
G01X6303Y16874D01*
G01X6327Y16899D01*
G01X6352Y16924D01*
G01X6378Y16946D01*
G01X6405Y16967D01*
G01X6434Y16987D01*
G01X6464Y17004D01*
G01X6495Y17019D01*
G01X6527Y17033D01*
G01X6560Y17044D01*
G01X6593Y17054D01*
G01X6627Y17061D01*
G01X6661Y17067D01*
G01X6696Y17070D01*
G01X6731Y17071D01*
G01X6765Y17070D01*
G01X6798Y17067D01*
G01X6832Y17062D01*
G01X6865Y17055D01*
G01X6898Y17045D01*
G01X6930Y17034D01*
G01X6961Y17022D01*
G01X6992Y17006D01*
G01X7021Y16990D01*
G01X7050Y16971D01*
G01X7076Y16951D01*
G01X7103Y16930D01*
G01X7151Y16882D01*
G01X7172Y16855D01*
G01X7192Y16829D01*
G01X7211Y16800D01*
G01X7227Y16771D01*
G01X7243Y16740D01*
G01X7255Y16709D01*
G01X7266Y16677D01*
G01X7276Y16644D01*
G01X7283Y16611D01*
G01X7288Y16577D01*
G01X7291Y16544D01*
G01X7292Y16510D01*
G01X7291Y16475D01*
G01X7288Y16440D01*
G01X7282Y16406D01*
G01X7275Y16372D01*
G01X7265Y16339D01*
G01X7254Y16306D01*
G01X7240Y16274D01*
G01X7225Y16243D01*
G01X7208Y16213D01*
G01X7188Y16184D01*
G01X7167Y16157D01*
G01X7145Y16131D01*
G01X7120Y16106D01*
G01X7095Y16082D01*
G01X7067Y16060D01*
G01X7039Y16041D01*
G01X7009Y16022D01*
G01X6979Y16006D01*
G01X6947Y15992D01*
G01X6915Y15979D01*
G01X6882Y15969D01*
G01X6848Y15961D01*
G01X6814Y15954D01*
G01X6780Y15950D01*
G01X6763Y15947D01*
G01X6746Y15941D01*
G01X6731Y15932D01*
G01X6717Y15921D01*
G01X5389Y14593D01*
G01X5378Y14581D01*
G01X5370Y14567D01*
G01X5364Y14552D01*
G01X5360Y14537D01*
G01X5359Y14521D01*
G01X5359Y13750D01*
G01X5360Y13736D01*
G01X5363Y13722D01*
G01X5368Y13708D01*
G01X5375Y13695D01*
G01X5384Y13683D01*
G01X5394Y13673D01*
G01X5406Y13665D01*
G01X5418Y13658D01*
G01X5432Y13653D01*
G01X5446Y13649D01*
G01X5461Y13648D01*
G01X5476Y13649D01*
G01X5491Y13653D01*
G01X5506Y13659D01*
G01X5519Y13667D01*
G01X5548Y13686D01*
G01X5577Y13703D01*
G01X5608Y13718D01*
G01X5640Y13731D01*
G01X5672Y13743D01*
G01X5705Y13752D01*
G01X5739Y13759D01*
G01X5773Y13765D01*
G01X5807Y13768D01*
G01X5842Y13769D01*
G01X5877Y13768D01*
G01X5913Y13764D01*
G01X5948Y13759D01*
G01X5982Y13751D01*
G01X6016Y13741D01*
G01X6050Y13729D01*
G01X6082Y13714D01*
G01X6114Y13698D01*
G01X6145Y13680D01*
G01X6174Y13660D01*
G01X6202Y13638D01*
G01X6216Y13628D01*
G01X6233Y13620D01*
G01X6249Y13615D01*
G01X6267Y13614D01*
G01X9099Y13614D01*
G01X9117Y13615D01*
G01X9133Y13620D01*
G01X9150Y13628D01*
G01X9164Y13638D01*
G01X9192Y13660D01*
G01X9221Y13680D01*
G01X9252Y13698D01*
G01X9284Y13714D01*
G01X9316Y13729D01*
G01X9350Y13741D01*
G01X9384Y13751D01*
G01X9418Y13759D01*
G01X9453Y13764D01*
G01X9489Y13768D01*
G01X9525Y13769D01*
G01X9559Y13768D01*
G01X9592Y13765D01*
G01X9626Y13760D01*
G01X9659Y13753D01*
G01X9692Y13743D01*
G01X9724Y13732D01*
G01X9755Y13720D01*
G01X9786Y13704D01*
G01X9815Y13688D01*
G01X9844Y13669D01*
G01X9870Y13649D01*
G01X9897Y13628D01*
G01X9945Y13580D01*
G01X9966Y13553D01*
G01X9986Y13527D01*
G01X10005Y13498D01*
G01X10021Y13469D01*
G01X10037Y13438D01*
G01X10049Y13407D01*
G01X10060Y13375D01*
G01X10070Y13342D01*
G01X10077Y13309D01*
G01X10082Y13275D01*
G01X10085Y13242D01*
G01X10086Y13208D01*
G01X10085Y13173D01*
G01X10082Y13140D01*
G01X10077Y13106D01*
G01X10070Y13073D01*
G01X10060Y13040D01*
G01X10049Y13008D01*
G01X10037Y12977D01*
G01X10021Y12946D01*
G01X10005Y12917D01*
G01X9986Y12888D01*
G01X9966Y12862D01*
G01X9945Y12835D01*
G01X9897Y12787D01*
G01X9870Y12766D01*
G01X9844Y12746D01*
G01X9815Y12727D01*
G01X9786Y12711D01*
G01X9755Y12695D01*
G01X9724Y12683D01*
G01X9692Y12672D01*
G01X9659Y12662D01*
G01X9626Y12655D01*
G01X9592Y12650D01*
G01X9559Y12647D01*
G01X9525Y12646D01*
G01X9489Y12647D01*
G01X9453Y12651D01*
G01X9418Y12656D01*
G01X9384Y12664D01*
G01X9350Y12674D01*
G01X9316Y12686D01*
G01X9284Y12701D01*
G01X9252Y12717D01*
G01X9221Y12735D01*
G01X9192Y12755D01*
G01X9164Y12777D01*
G01X9150Y12787D01*
G01X9133Y12795D01*
G01X9117Y12800D01*
G01X9099Y12801D01*
G01X6267Y12801D01*
G01X6249Y12800D01*
G01X6233Y12795D01*
G01X6216Y12787D01*
G01X6202Y12777D01*
G01X6174Y12755D01*
G01X6145Y12735D01*
G01X6114Y12717D01*
G01X6082Y12701D01*
G01X6050Y12686D01*
G01X6016Y12674D01*
G01X5982Y12664D01*
G01X5948Y12656D01*
G01X5913Y12651D01*
G01X5877Y12647D01*
G01X5842Y12646D01*
G01X5807Y12647D01*
G01X5773Y12650D01*
G01X5739Y12656D01*
G01X5705Y12663D01*
G01X5672Y12672D01*
G01X5640Y12684D01*
G01X5608Y12697D01*
G01X5577Y12712D01*
G01X5548Y12729D01*
G01X5519Y12748D01*
G01X5506Y12756D01*
G01X5491Y12762D01*
G01X5476Y12766D01*
G01X5461Y12767D01*
G01X5446Y12766D01*
G01X5432Y12762D01*
G01X5418Y12757D01*
G01X5406Y12750D01*
G01X5394Y12742D01*
G01X5384Y12732D01*
G01X5375Y12720D01*
G01X5368Y12707D01*
G01X5363Y12693D01*
G01X5360Y12679D01*
G01X5359Y12665D01*
G01X5359Y9354D01*
G01X5360Y9338D01*
G01X5364Y9323D01*
G01X5370Y9308D01*
G01X5378Y9294D01*
G01X5389Y9282D01*
G01X6484Y8187D01*
G01X6496Y8177D01*
G01X6510Y8169D01*
G01X6524Y8163D01*
G01X6540Y8158D01*
G01X6556Y8157D01*
G01X6583Y8161D01*
G01X6619Y8170D01*
G01X6656Y8176D01*
G01X6693Y8180D01*
G01X6731Y8181D01*
G01X6765Y8180D01*
G01X6798Y8177D01*
G01X6832Y8172D01*
G01X6865Y8165D01*
G01X6898Y8155D01*
G01X6930Y8144D01*
G01X6961Y8132D01*
G01X6992Y8116D01*
G01X7021Y8100D01*
G01X7050Y8081D01*
G01X7076Y8061D01*
G01X7103Y8040D01*
G01X7151Y7992D01*
G01X7172Y7965D01*
G01X7192Y7939D01*
G01X7211Y7910D01*
G01X7227Y7881D01*
G01X7243Y7850D01*
G01X7255Y7819D01*
G01X7266Y7787D01*
G01X7276Y7754D01*
G01X7283Y7721D01*
G01X7288Y7687D01*
G01X7291Y7654D01*
G01X7292Y7620D01*
G01X7291Y7585D01*
G01X7288Y7552D01*
G01X7283Y7518D01*
G01X7276Y7485D01*
G01X7266Y7452D01*
G01X7255Y7420D01*
G01X7243Y7389D01*
G01X7227Y7358D01*
G01X7211Y7329D01*
G01X7192Y7300D01*
G01X7172Y7274D01*
G01X7151Y7247D01*
G01X7103Y7199D01*
G01X7076Y7178D01*
G01X7050Y7158D01*
G01X7021Y7139D01*
G01X6992Y7123D01*
G01X6961Y7107D01*
G01X6930Y7095D01*
G01X6898Y7084D01*
G01X6865Y7074D01*
G01X6832Y7067D01*
G01X6798Y7062D01*
G01X6765Y7059D01*
G01X6731Y7058D01*
G01X6695Y7059D01*
G01X6660Y7063D01*
G01X6625Y7068D01*
G01X6591Y7076D01*
G01X6557Y7086D01*
G01X6524Y7098D01*
G01X6491Y7112D01*
G01X6460Y7128D01*
G01X6429Y7146D01*
G01X6400Y7166D01*
G01X6372Y7187D01*
G01X6346Y7211D01*
G01X6321Y7236D01*
G01X6308Y7248D01*
G01X6293Y7257D01*
G01X6265Y7273D01*
G01X6238Y7290D01*
G01X6213Y7310D01*
G01X6189Y7332D01*
G01X4771Y8751D01*
G01X4758Y8761D01*
G01X4745Y8769D01*
G01X4730Y8775D01*
G01X4715Y8779D01*
G01X4699Y8780D01*
G01X4684Y8779D01*
G01X4670Y8776D01*
G01X4656Y8771D01*
G01X4644Y8764D01*
G01X4632Y8755D01*
G01X4622Y8745D01*
G01X4613Y8734D01*
G01X4606Y8721D01*
G01X4601Y8707D01*
G01X4598Y8693D01*
G01X4597Y8679D01*
G01X4597Y8465D01*
G01X4598Y8449D01*
G01X4602Y8434D01*
G01X4608Y8419D01*
G01X4616Y8405D01*
G01X4627Y8393D01*
G01X7504Y5516D01*
G01X7516Y5505D01*
G01X7530Y5497D01*
G01X7545Y5491D01*
G01X7560Y5487D01*
G01X7576Y5486D01*
G01X10076Y5486D01*
G01X10092Y5487D01*
G01X10107Y5491D01*
G01X10122Y5497D01*
G01X10136Y5505D01*
G01X10148Y5516D01*
G01X11396Y6764D01*
G01X11414Y6781D01*
G01X11426Y6793D01*
G01X11436Y6808D01*
G01X11443Y6823D01*
G01X11447Y6840D01*
G01X11449Y6858D01*
G01X11448Y6872D01*
G01X11445Y6886D01*
G01X11440Y6900D01*
G01X11433Y6912D01*
G01X11424Y6924D01*
G01X11414Y6934D01*
G01X11402Y6943D01*
G01X11389Y6950D01*
G01X11376Y6955D01*
G01X11361Y6958D01*
G01X11347Y6959D01*
G01X10668Y6959D01*
G01X10639Y6960D01*
G01X10610Y6963D01*
G01X10581Y6968D01*
G01X10553Y6975D01*
G01X10525Y6985D01*
G01X10499Y6996D01*
G01X10472Y7009D01*
G01X10448Y7024D01*
G01X10424Y7040D01*
G01X10401Y7058D01*
G01X10380Y7078D01*
G01X9284Y8174D01*
G01X9271Y8185D01*
G01X9255Y8194D01*
G01X9238Y8200D01*
G01X9221Y8203D01*
G01X9187Y8207D01*
G01X9153Y8214D01*
G01X9119Y8222D01*
G01X9086Y8232D01*
G01X9054Y8245D01*
G01X9022Y8259D01*
G01X8992Y8275D01*
G01X8962Y8294D01*
G01X8934Y8313D01*
G01X8906Y8335D01*
G01X8881Y8359D01*
G01X8856Y8384D01*
G01X8834Y8410D01*
G01X8813Y8437D01*
G01X8793Y8466D01*
G01X8776Y8496D01*
G01X8761Y8527D01*
G01X8747Y8559D01*
G01X8736Y8592D01*
G01X8726Y8625D01*
G01X8719Y8659D01*
G01X8713Y8693D01*
G01X8710Y8728D01*
G01X8709Y8763D01*
G01X8710Y8797D01*
G01X8713Y8830D01*
G01X8718Y8864D01*
G01X8725Y8897D01*
G01X8735Y8930D01*
G01X8746Y8962D01*
G01X8758Y8993D01*
G01X8774Y9024D01*
G01X8790Y9053D01*
G01X8809Y9082D01*
G01X8829Y9108D01*
G01X8850Y9135D01*
G01X8898Y9183D01*
G01X8925Y9204D01*
G01X8951Y9224D01*
G01X8980Y9243D01*
G01X9009Y9259D01*
G01X9040Y9275D01*
G01X9071Y9287D01*
G01X9103Y9298D01*
G01X9136Y9308D01*
G01X9169Y9315D01*
G01X9203Y9320D01*
G01X9236Y9323D01*
G01X9271Y9324D01*
G01X9305Y9323D01*
G01X9340Y9320D01*
G01X9374Y9314D01*
G01X9408Y9307D01*
G01X9441Y9297D01*
G01X9474Y9286D01*
G01X9506Y9272D01*
G01X9537Y9257D01*
G01X9567Y9240D01*
G01X9596Y9220D01*
G01X9623Y9199D01*
G01X9649Y9177D01*
G01X9674Y9152D01*
G01X9698Y9127D01*
G01X9720Y9099D01*
G01X9739Y9071D01*
G01X9758Y9041D01*
G01X9774Y9011D01*
G01X9788Y8979D01*
G01X9801Y8947D01*
G01X9811Y8914D01*
G01X9819Y8880D01*
G01X9826Y8846D01*
G01X9830Y8812D01*
G01X9833Y8795D01*
G01X9839Y8778D01*
G01X9848Y8763D01*
G01X9859Y8749D01*
G01X10806Y7802D01*
G01X10818Y7791D01*
G01X10832Y7783D01*
G01X10847Y7777D01*
G01X10862Y7773D01*
G01X10878Y7772D01*
G01X18542Y7772D01*
G01X18570Y7771D01*
G01X18599Y7768D01*
G01X18628Y7763D01*
G01X18656Y7756D01*
G01X18684Y7747D01*
G01X18710Y7735D01*
G01X18737Y7722D01*
G01X18761Y7707D01*
G01X18785Y7691D01*
G01X18808Y7673D01*
G01X18829Y7653D01*
G01X20306Y6176D01*
G01X20320Y6165D01*
G01X20335Y6156D01*
G01X20352Y6150D01*
G01X20369Y6147D01*
G01X20413Y6141D01*
G01X20457Y6132D01*
G01X20482Y6129D01*
G01X20497Y6130D01*
G01X20511Y6133D01*
G01X20524Y6138D01*
G01X20537Y6145D01*
G01X20549Y6153D01*
G01X20559Y6164D01*
G01X20568Y6175D01*
G01X20575Y6188D01*
G01X20580Y6202D01*
G01X20583Y6216D01*
G01X20584Y6230D01*
G01X20583Y6246D01*
G01X20579Y6262D01*
G01X20573Y6276D01*
G01X20564Y6290D01*
G01X20554Y6302D01*
G01X11672Y15184D01*
G01X11660Y15195D01*
G01X11646Y15203D01*
G01X11631Y15209D01*
G01X11616Y15213D01*
G01X11600Y15214D01*
G01X10966Y15214D01*
G01X10948Y15213D01*
G01X10932Y15208D01*
G01X10915Y15200D01*
G01X10901Y15190D01*
G01X10873Y15168D01*
G01X10844Y15148D01*
G01X10813Y15130D01*
G01X10781Y15114D01*
G01X10749Y15099D01*
G01X10715Y15087D01*
G01X10681Y15077D01*
G01X10647Y15069D01*
G01X10612Y15064D01*
G01X10576Y15060D01*
G01X10541Y15059D01*
G01X10506Y15060D01*
G01X10473Y15063D01*
G01X10439Y15068D01*
G01X10406Y15075D01*
G01X10373Y15085D01*
G01X10341Y15096D01*
G01X10310Y15108D01*
G01X10279Y15124D01*
G01X10250Y15140D01*
G01X10221Y15159D01*
G01X10195Y15179D01*
G01X10168Y15200D01*
G01X10120Y15248D01*
G01X10099Y15275D01*
G01X10079Y15301D01*
G01X10060Y15330D01*
G01X10044Y15359D01*
G01X10028Y15390D01*
G01X10016Y15421D01*
G01X10005Y15453D01*
G01X9995Y15486D01*
G01X9988Y15519D01*
G01X9983Y15553D01*
G01X9980Y15586D01*
G01X9979Y15621D01*
G01X9981Y15662D01*
G01X9985Y15703D01*
G01X9986Y15718D01*
G01X9985Y15733D01*
G01X9982Y15746D01*
G01X9977Y15760D01*
G01X9970Y15773D01*
G01X9961Y15785D01*
G01X9951Y15795D01*
G01X9940Y15803D01*
G01X9927Y15810D01*
G01X9914Y15816D01*
G01X9899Y15819D01*
G01X9885Y15820D01*
G01X9869Y15819D01*
G01X9853Y15815D01*
G01X9838Y15808D01*
G01X9825Y15800D01*
G01X9813Y15790D01*
G01X8589Y14566D01*
G01X8578Y14553D01*
G01X8569Y14537D01*
G01X8563Y14521D01*
G01X8560Y14503D01*
G01X8556Y14469D01*
G01X8549Y14434D01*
G01X8541Y14401D01*
G01X8531Y14368D01*
G01X8518Y14335D01*
G01X8504Y14304D01*
G01X8488Y14273D01*
G01X8450Y14215D01*
G01X8428Y14188D01*
G01X8404Y14163D01*
G01X8379Y14139D01*
G01X8353Y14116D01*
G01X8326Y14095D01*
G01X8297Y14076D01*
G01X8267Y14058D01*
G01X8236Y14043D01*
G01X8204Y14029D01*
G01X8171Y14018D01*
G01X8138Y14008D01*
G01X8104Y14000D01*
G01X8070Y13995D01*
G01X8035Y13992D01*
G01X8001Y13991D01*
G01X7966Y13992D01*
G01X7933Y13995D01*
G01X7899Y14000D01*
G01X7866Y14008D01*
G01X7833Y14017D01*
G01X7801Y14027D01*
G01X7739Y14055D01*
G01X7710Y14072D01*
G01X7681Y14090D01*
G01X7655Y14111D01*
G01X7628Y14132D01*
G01X7604Y14155D01*
G01X7580Y14180D01*
G01X7559Y14206D01*
G01X7539Y14234D01*
G01X7520Y14262D01*
G01X7488Y14322D01*
G01X7476Y14354D01*
G01X7465Y14386D01*
G01X7455Y14418D01*
G01X7448Y14451D01*
G01X7443Y14485D01*
G01X7440Y14519D01*
G01X7439Y14552D01*
G01X7440Y14587D01*
G01X7443Y14622D01*
G01X7449Y14656D01*
G01X7456Y14690D01*
G01X7466Y14723D01*
G01X7477Y14756D01*
G01X7491Y14788D01*
G01X7506Y14819D01*
G01X7523Y14849D01*
G01X7543Y14878D01*
G01X7564Y14905D01*
G01X7586Y14932D01*
G01X7611Y14957D01*
G01X7636Y14979D01*
G01X7664Y15001D01*
G01X7692Y15021D01*
G01X7722Y15039D01*
G01X7752Y15056D01*
G01X7784Y15070D01*
G01X7816Y15083D01*
G01X7849Y15093D01*
G01X7883Y15101D01*
G01X7917Y15107D01*
G01X7951Y15111D01*
G01X7968Y15115D01*
G01X7985Y15121D01*
G01X8001Y15130D01*
G01X8014Y15141D01*
G01X13000Y20127D01*
G01X13011Y20140D01*
G01X13020Y20156D01*
G01X13026Y20172D01*
G01X13029Y20190D01*
G01X13033Y20224D01*
G01X13040Y20259D01*
G01X13048Y20292D01*
G01X13058Y20325D01*
G01X13071Y20358D01*
G01X13085Y20389D01*
G01X13101Y20420D01*
G01X13120Y20449D01*
G01X13139Y20477D01*
G01X13161Y20504D01*
G01X13185Y20530D01*
G01X13210Y20554D01*
G01X13236Y20577D01*
G01X13263Y20598D01*
G01X13292Y20617D01*
G01X13322Y20634D01*
G01X13353Y20650D01*
G01X13385Y20663D01*
G01X13418Y20675D01*
G01X13451Y20685D01*
G01X13485Y20692D01*
G01X13519Y20697D01*
G01X13554Y20701D01*
G01X13589Y20702D01*
G01X13623Y20701D01*
G01X13656Y20697D01*
G01X13690Y20692D01*
G01X13723Y20685D01*
G01X13756Y20676D01*
G01X13788Y20665D01*
G01X13819Y20652D01*
G01X13850Y20638D01*
G01X13879Y20621D01*
G01X13908Y20602D01*
G01X13934Y20582D01*
G01X13961Y20561D01*
G01X14009Y20513D01*
G01X14030Y20487D01*
G01X14050Y20459D01*
G01X14069Y20431D01*
G01X14101Y20371D01*
G01X14113Y20339D01*
G01X14124Y20307D01*
G01X14134Y20275D01*
G01X14141Y20242D01*
G01X14146Y20208D01*
G01X14149Y20174D01*
G01X14150Y20140D01*
G01X14149Y20106D01*
G01X14146Y20071D01*
G01X14140Y20037D01*
G01X14133Y20003D01*
G01X14123Y19970D01*
G01X14112Y19937D01*
G01X14098Y19905D01*
G01X14083Y19874D01*
G01X14066Y19844D01*
G01X14046Y19815D01*
G01X14025Y19788D01*
G01X14003Y19761D01*
G01X13978Y19736D01*
G01X13953Y19713D01*
G01X13925Y19692D01*
G01X13897Y19672D01*
G01X13867Y19654D01*
G01X13837Y19637D01*
G01X13805Y19623D01*
G01X13773Y19610D01*
G01X13740Y19600D01*
G01X13706Y19592D01*
G01X13672Y19585D01*
G01X13638Y19581D01*
G01X13621Y19578D01*
G01X13604Y19572D01*
G01X13589Y19563D01*
G01X13575Y19552D01*
G01X10371Y16348D01*
G01X10361Y16336D01*
G01X10353Y16323D01*
G01X10346Y16308D01*
G01X10342Y16292D01*
G01X10341Y16276D01*
G01X10342Y16262D01*
G01X10345Y16247D01*
G01X10351Y16234D01*
G01X10358Y16221D01*
G01X10366Y16210D01*
G01X10376Y16200D01*
G01X10388Y16191D01*
G01X10401Y16184D01*
G01X10415Y16179D01*
G01X10428Y16176D01*
G01X10443Y16175D01*
G01X10458Y16176D01*
G01X10499Y16180D01*
G01X10541Y16182D01*
G01X10576Y16181D01*
G01X10612Y16177D01*
G01X10647Y16172D01*
G01X10681Y16164D01*
G01X10715Y16154D01*
G01X10749Y16142D01*
G01X10781Y16127D01*
G01X10813Y16111D01*
G01X10844Y16093D01*
G01X10873Y16073D01*
G01X10901Y16051D01*
G01X10915Y16041D01*
G01X10932Y16033D01*
G01X10948Y16028D01*
G01X10966Y16027D01*
G01X11811Y16027D01*
G01X11839Y16026D01*
G01X11868Y16023D01*
G01X11897Y16018D01*
G01X11925Y16011D01*
G01X11953Y16002D01*
G01X11979Y15990D01*
G01X12006Y15977D01*
G01X12030Y15962D01*
G01X12054Y15946D01*
G01X12077Y15928D01*
G01X12098Y15908D01*
G01X21982Y6024D01*
G01X21994Y6013D01*
G01X22008Y6005D01*
G01X22023Y5999D01*
G01X22038Y5995D01*
G01X22054Y5994D01*
G01X24279Y5994D01*
G01X24294Y5995D01*
G01X24308Y5998D01*
G01X24322Y6003D01*
G01X24334Y6010D01*
G01X24345Y6019D01*
G01X24356Y6029D01*
G01X24365Y6041D01*
G01X24371Y6053D01*
G01X24376Y6067D01*
G01X24379Y6081D01*
G01X24380Y6096D01*
G01X24379Y6115D01*
G01X24373Y6135D01*
G01X24360Y6169D01*
G01X24349Y6204D01*
G01X24341Y6240D01*
G01X24335Y6276D01*
G01X24331Y6313D01*
G01X24330Y6350D01*
G01X24331Y6384D01*
G01X24334Y6417D01*
G01X24339Y6451D01*
G01X24346Y6484D01*
G01X24366Y6548D01*
G01X24379Y6579D01*
G01X24394Y6610D01*
G01X24410Y6639D01*
G01X24429Y6668D01*
G01X24437Y6681D01*
G01X24442Y6695D01*
G01X24445Y6710D01*
G01X24447Y6725D01*
G01X24445Y6740D01*
G01X24442Y6754D01*
G01X24437Y6769D01*
G01X24430Y6782D01*
G01X24420Y6793D01*
G01X24409Y6804D01*
G01X24382Y6827D01*
G01X24358Y6852D01*
G01X24334Y6878D01*
G01X24312Y6906D01*
G01X24292Y6936D01*
G01X24274Y6966D01*
G01X24258Y6998D01*
G01X24243Y7030D01*
G01X24231Y7064D01*
G01X24221Y7098D01*
G01X24213Y7132D01*
G01X24208Y7168D01*
G01X24204Y7203D01*
G01X24203Y7239D01*
G01X24204Y7273D01*
G01X24207Y7306D01*
G01X24212Y7340D01*
G01X24219Y7373D01*
G01X24229Y7406D01*
G01X24240Y7438D01*
G01X24252Y7469D01*
G01X24268Y7500D01*
G01X24284Y7529D01*
G01X24303Y7558D01*
G01X24323Y7584D01*
G01X24344Y7611D01*
G01X24392Y7659D01*
G01X24419Y7680D01*
G01X24445Y7700D01*
G01X24474Y7719D01*
G01X24503Y7735D01*
G01X24534Y7751D01*
G01X24565Y7763D01*
G01X24597Y7774D01*
G01X24630Y7784D01*
G01X24663Y7791D01*
G01X24697Y7796D01*
G01X24730Y7799D01*
G01X24765Y7800D01*
G01X24800Y7799D01*
G01X24836Y7795D01*
G01X24871Y7790D01*
G01X24905Y7782D01*
G01X24939Y7772D01*
G01X24973Y7760D01*
G01X25005Y7745D01*
G01X25037Y7729D01*
G01X25068Y7711D01*
G01X25097Y7691D01*
G01X25125Y7669D01*
G01X25139Y7659D01*
G01X25156Y7651D01*
G01X25172Y7646D01*
G01X25190Y7645D01*
G01X25637Y7645D01*
G01X25651Y7646D01*
G01X25665Y7649D01*
G01X25679Y7654D01*
G01X25692Y7661D01*
G01X25703Y7670D01*
G01X25713Y7680D01*
G01X25722Y7692D01*
G01X25729Y7704D01*
G01X25734Y7718D01*
G01X25737Y7732D01*
G01X25738Y7747D01*
G01X25737Y7762D01*
G01X25733Y7777D01*
G01X25728Y7792D01*
G01X25720Y7805D01*
G01X25710Y7817D01*
G01X25698Y7828D01*
G01X25685Y7836D01*
G01X25671Y7843D01*
G01X25656Y7847D01*
G01X25640Y7848D01*
G01X25609Y7850D01*
G01X25579Y7855D01*
G01X25549Y7861D01*
G01X25520Y7870D01*
G01X25492Y7882D01*
G01X25464Y7895D01*
G01X25438Y7910D01*
G01X25412Y7927D01*
G01X25388Y7946D01*
G01X25366Y7967D01*
G01X16349Y16984D01*
G01X16329Y17005D01*
G01X16311Y17028D01*
G01X16295Y17052D01*
G01X16280Y17076D01*
G01X16267Y17103D01*
G01X16256Y17129D01*
G01X16246Y17157D01*
G01X16239Y17185D01*
G01X16234Y17214D01*
G01X16231Y17243D01*
G01X16230Y17272D01*
G01X16230Y19386D01*
G01X16229Y19404D01*
G01X16224Y19420D01*
G01X16216Y19437D01*
G01X16206Y19451D01*
G01X16184Y19479D01*
G01X16164Y19508D01*
G01X16146Y19539D01*
G01X16130Y19571D01*
G01X16115Y19603D01*
G01X16103Y19637D01*
G01X16093Y19671D01*
G01X16085Y19705D01*
G01X16080Y19740D01*
G01X16076Y19776D01*
G01X16075Y19812D01*
G01X16076Y19846D01*
G01X16079Y19879D01*
G01X16084Y19913D01*
G01X16091Y19946D01*
G01X16101Y19979D01*
G01X16112Y20011D01*
G01X16124Y20042D01*
G01X16140Y20073D01*
G01X16156Y20102D01*
G01X16175Y20131D01*
G01X16195Y20157D01*
G01X16216Y20184D01*
G01X16264Y20232D01*
G01X16291Y20253D01*
G01X16317Y20273D01*
G01X16346Y20292D01*
G01X16375Y20308D01*
G01X16406Y20324D01*
G01X16437Y20336D01*
G01X16469Y20347D01*
G01X16502Y20357D01*
G01X16535Y20364D01*
G01X16569Y20369D01*
G01X16602Y20372D01*
G01X16637Y20373D01*
G01X16671Y20372D01*
G01X16704Y20369D01*
G01X16738Y20364D01*
G01X16771Y20357D01*
G01X16804Y20347D01*
G01X16836Y20336D01*
G01X16867Y20324D01*
G01X16898Y20308D01*
G01X16927Y20292D01*
G01X16956Y20273D01*
G01X16982Y20253D01*
G01X17009Y20232D01*
G01X17057Y20184D01*
G01X17078Y20157D01*
G01X17098Y20131D01*
G01X17117Y20102D01*
G01X17133Y20073D01*
G01X17149Y20042D01*
G01X17161Y20011D01*
G01X17172Y19979D01*
G01X17182Y19946D01*
G01X17189Y19913D01*
G01X17194Y19879D01*
G01X17197Y19846D01*
G01X17198Y19812D01*
G01X17197Y19776D01*
G01X17193Y19740D01*
G01X17188Y19705D01*
G01X17180Y19671D01*
G01X17170Y19637D01*
G01X17158Y19603D01*
G01X17143Y19571D01*
G01X17127Y19539D01*
G01X17109Y19508D01*
G01X17089Y19479D01*
G01X17067Y19451D01*
G01X17057Y19437D01*
G01X17049Y19420D01*
G01X17044Y19404D01*
G01X17043Y19386D01*
G01X17043Y17482D01*
G01X17044Y17466D01*
G01X17048Y17451D01*
G01X17054Y17436D01*
G01X17062Y17422D01*
G01X17073Y17410D01*
G01X23473Y11010D01*
G01X23485Y11000D01*
G01X23499Y10991D01*
G01X23513Y10985D01*
G01X23529Y10981D01*
G01X23545Y10980D01*
G01X23559Y10981D01*
G01X23573Y10984D01*
G01X23587Y10990D01*
G01X23600Y10996D01*
G01X23611Y11005D01*
G01X23622Y11015D01*
G01X23630Y11027D01*
G01X23637Y11040D01*
G01X23642Y11053D01*
G01X23645Y11067D01*
G01X23646Y11082D01*
G01X23645Y11097D01*
G01X23642Y11112D01*
G01X23624Y11154D01*
G01X23614Y11183D01*
G01X23606Y11212D01*
G01X23601Y11242D01*
G01X23597Y11272D01*
G01X23596Y11303D01*
G01X23596Y16553D01*
G01X23595Y16569D01*
G01X23591Y16584D01*
G01X23585Y16599D01*
G01X23577Y16613D01*
G01X23566Y16625D01*
G01X20968Y19223D01*
G01X20955Y19234D01*
G01X20939Y19243D01*
G01X20922Y19249D01*
G01X20905Y19252D01*
G01X20871Y19256D01*
G01X20837Y19263D01*
G01X20803Y19271D01*
G01X20770Y19281D01*
G01X20738Y19294D01*
G01X20706Y19308D01*
G01X20676Y19324D01*
G01X20646Y19343D01*
G01X20618Y19362D01*
G01X20590Y19384D01*
G01X20565Y19408D01*
G01X20540Y19433D01*
G01X20518Y19459D01*
G01X20497Y19486D01*
G01X20477Y19515D01*
G01X20460Y19545D01*
G01X20445Y19576D01*
G01X20431Y19608D01*
G01X20420Y19641D01*
G01X20410Y19674D01*
G01X20403Y19708D01*
G01X20397Y19742D01*
G01X20394Y19777D01*
G01X20393Y19812D01*
G01X20394Y19846D01*
G01X20397Y19879D01*
G01X20402Y19913D01*
G01X20409Y19946D01*
G01X20419Y19979D01*
G01X20430Y20011D01*
G01X20442Y20042D01*
G01X20458Y20073D01*
G01X20474Y20102D01*
G01X20493Y20131D01*
G01X20513Y20157D01*
G01X20534Y20184D01*
G01X20582Y20232D01*
G01X20609Y20253D01*
G01X20635Y20273D01*
G01X20664Y20292D01*
G01X20693Y20308D01*
G01X20724Y20324D01*
G01X20755Y20336D01*
G01X20787Y20347D01*
G01X20820Y20357D01*
G01X20853Y20364D01*
G01X20887Y20369D01*
G01X20920Y20372D01*
G01X20955Y20373D01*
G01X20989Y20372D01*
G01X21024Y20369D01*
G01X21058Y20363D01*
G01X21092Y20356D01*
G01X21125Y20346D01*
G01X21158Y20335D01*
G01X21190Y20321D01*
G01X21221Y20306D01*
G01X21251Y20289D01*
G01X21280Y20269D01*
G01X21307Y20248D01*
G01X21333Y20226D01*
G01X21358Y20201D01*
G01X21382Y20176D01*
G01X21404Y20148D01*
G01X21423Y20120D01*
G01X21442Y20090D01*
G01X21458Y20060D01*
G01X21472Y20028D01*
G01X21485Y19996D01*
G01X21495Y19963D01*
G01X21503Y19929D01*
G01X21510Y19895D01*
G01X21514Y19861D01*
G01X21517Y19844D01*
G01X21523Y19827D01*
G01X21532Y19812D01*
G01X21543Y19798D01*
G01X24290Y17051D01*
G01X24310Y17030D01*
G01X24328Y17007D01*
G01X24344Y16983D01*
G01X24359Y16959D01*
G01X24372Y16932D01*
G01X24384Y16906D01*
G01X24393Y16878D01*
G01X24400Y16850D01*
G01X24405Y16821D01*
G01X24408Y16792D01*
G01X24409Y16764D01*
G01X24409Y14385D01*
G01X24410Y14371D01*
G01X24413Y14357D01*
G01X24418Y14343D01*
G01X24425Y14330D01*
G01X24434Y14318D01*
G01X24444Y14308D01*
G01X24456Y14300D01*
G01X24468Y14293D01*
G01X24482Y14288D01*
G01X24496Y14284D01*
G01X24511Y14283D01*
G01X24526Y14284D01*
G01X24541Y14288D01*
G01X24556Y14294D01*
G01X24569Y14302D01*
G01X24598Y14321D01*
G01X24627Y14338D01*
G01X24658Y14353D01*
G01X24690Y14366D01*
G01X24722Y14378D01*
G01X24755Y14387D01*
G01X24789Y14394D01*
G01X24823Y14400D01*
G01X24857Y14403D01*
G01X24892Y14404D01*
G01X24927Y14403D01*
G01X24963Y14399D01*
G01X24998Y14394D01*
G01X25032Y14386D01*
G01X25066Y14376D01*
G01X25100Y14364D01*
G01X25132Y14349D01*
G01X25164Y14333D01*
G01X25195Y14315D01*
G01X25224Y14295D01*
G01X25252Y14273D01*
G01X25266Y14263D01*
G01X25283Y14255D01*
G01X25299Y14250D01*
G01X25317Y14249D01*
G01X27875Y14249D01*
G01X27890Y14250D01*
G01X27904Y14253D01*
G01X27918Y14258D01*
G01X27930Y14265D01*
G01X27942Y14274D01*
G01X27952Y14284D01*
G01X27961Y14296D01*
G01X27968Y14308D01*
G01X27973Y14322D01*
G01X27976Y14336D01*
G01X27977Y14351D01*
G01X27976Y14365D01*
G01X27973Y14379D01*
G01X27968Y14393D01*
G01X27961Y14405D01*
G01X27953Y14417D01*
G01X27943Y14427D01*
G01X27931Y14436D01*
G01X27918Y14443D01*
G01X27905Y14448D01*
G01X27872Y14459D01*
G01X27841Y14471D01*
G01X27810Y14486D01*
G01X27780Y14503D01*
G01X27751Y14521D01*
G01X27724Y14541D01*
G01X27697Y14563D01*
G01X27672Y14586D01*
G01X27648Y14611D01*
G01X27627Y14637D01*
G01X27606Y14664D01*
G01X27587Y14693D01*
G01X27555Y14753D01*
G01X27542Y14785D01*
G01X27531Y14817D01*
G01X27522Y14850D01*
G01X27514Y14883D01*
G01X27509Y14917D01*
G01X27506Y14951D01*
G01X27505Y14986D01*
G01X27506Y15021D01*
G01X27510Y15057D01*
G01X27515Y15092D01*
G01X27523Y15126D01*
G01X27533Y15160D01*
G01X27545Y15194D01*
G01X27560Y15226D01*
G01X27576Y15258D01*
G01X27594Y15289D01*
G01X27614Y15318D01*
G01X27636Y15346D01*
G01X27646Y15360D01*
G01X27654Y15377D01*
G01X27659Y15393D01*
G01X27660Y15411D01*
G01X27660Y17569D01*
G01X27659Y17585D01*
G01X27655Y17600D01*
G01X27649Y17615D01*
G01X27641Y17629D01*
G01X27630Y17641D01*
G01X26429Y18842D01*
G01X26416Y18853D01*
G01X26400Y18862D01*
G01X26383Y18868D01*
G01X26366Y18871D01*
G01X26332Y18875D01*
G01X26298Y18882D01*
G01X26264Y18890D01*
G01X26231Y18900D01*
G01X26199Y18913D01*
G01X26167Y18927D01*
G01X26137Y18943D01*
G01X26107Y18962D01*
G01X26079Y18981D01*
G01X26051Y19003D01*
G01X26026Y19027D01*
G01X26001Y19052D01*
G01X25979Y19078D01*
G01X25958Y19105D01*
G01X25938Y19134D01*
G01X25921Y19164D01*
G01X25906Y19195D01*
G01X25892Y19227D01*
G01X25881Y19260D01*
G01X25871Y19293D01*
G01X25864Y19327D01*
G01X25858Y19361D01*
G01X25855Y19396D01*
G01X25854Y19431D01*
G01X25855Y19465D01*
G01X25858Y19498D01*
G01X25863Y19532D01*
G01X25870Y19565D01*
G01X25880Y19598D01*
G01X25891Y19630D01*
G01X25903Y19661D01*
G01X25919Y19692D01*
G01X25935Y19721D01*
G01X25954Y19750D01*
G01X25974Y19776D01*
G01X25995Y19803D01*
G01X26043Y19851D01*
G01X26070Y19872D01*
G01X26096Y19892D01*
G01X26125Y19911D01*
G01X26154Y19927D01*
G01X26185Y19943D01*
G01X26216Y19955D01*
G01X26248Y19966D01*
G01X26281Y19976D01*
G01X26314Y19983D01*
G01X26348Y19988D01*
G01X26381Y19991D01*
G01X26416Y19992D01*
G01X26450Y19991D01*
G01X26485Y19988D01*
G01X26519Y19982D01*
G01X26553Y19975D01*
G01X26586Y19965D01*
G01X26619Y19954D01*
G01X26651Y19940D01*
G01X26682Y19925D01*
G01X26712Y19908D01*
G01X26741Y19888D01*
G01X26768Y19867D01*
G01X26794Y19845D01*
G01X26819Y19820D01*
G01X26843Y19795D01*
G01X26865Y19767D01*
G01X26884Y19739D01*
G01X26903Y19709D01*
G01X26919Y19679D01*
G01X26933Y19647D01*
G01X26946Y19615D01*
G01X26956Y19582D01*
G01X26964Y19548D01*
G01X26971Y19514D01*
G01X26975Y19480D01*
G01X26978Y19463D01*
G01X26984Y19446D01*
G01X26993Y19431D01*
G01X27004Y19417D01*
G01X28354Y18067D01*
G01X28374Y18046D01*
G01X28392Y18023D01*
G01X28408Y17999D01*
G01X28423Y17975D01*
G01X28436Y17948D01*
G01X28448Y17922D01*
G01X28457Y17894D01*
G01X28464Y17866D01*
G01X28469Y17837D01*
G01X28472Y17808D01*
G01X28473Y17780D01*
G01X28473Y15411D01*
G01X28474Y15393D01*
G01X28479Y15377D01*
G01X28487Y15360D01*
G01X28497Y15346D01*
G01X28519Y15318D01*
G01X28539Y15289D01*
G01X28557Y15258D01*
G01X28573Y15226D01*
G01X28588Y15194D01*
G01X28600Y15160D01*
G01X28610Y15126D01*
G01X28618Y15092D01*
G01X28623Y15057D01*
G01X28627Y15021D01*
G01X28628Y14986D01*
G01X28627Y14951D01*
G01X28624Y14917D01*
G01X28619Y14883D01*
G01X28611Y14850D01*
G01X28602Y14817D01*
G01X28591Y14785D01*
G01X28578Y14753D01*
G01X28546Y14693D01*
G01X28527Y14664D01*
G01X28506Y14637D01*
G01X28485Y14611D01*
G01X28461Y14586D01*
G01X28436Y14563D01*
G01X28409Y14541D01*
G01X28382Y14521D01*
G01X28353Y14503D01*
G01X28323Y14486D01*
G01X28292Y14471D01*
G01X28261Y14459D01*
G01X28228Y14448D01*
G01X28215Y14443D01*
G01X28202Y14436D01*
G01X28190Y14427D01*
G01X28180Y14417D01*
G01X28172Y14405D01*
G01X28165Y14393D01*
G01X28160Y14379D01*
G01X28157Y14365D01*
G01X28156Y14351D01*
G01X28157Y14336D01*
G01X28160Y14322D01*
G01X28165Y14308D01*
G01X28172Y14296D01*
G01X28181Y14284D01*
G01X28191Y14274D01*
G01X28203Y14265D01*
G01X28215Y14258D01*
G01X28229Y14253D01*
G01X28243Y14250D01*
G01X28258Y14249D01*
G01X34798Y14249D01*
G01X34812Y14250D01*
G01X34826Y14253D01*
G01X34840Y14258D01*
G01X34852Y14265D01*
G01X34864Y14274D01*
G01X34874Y14284D01*
G01X34883Y14296D01*
G01X34890Y14308D01*
G01X34895Y14322D01*
G01X34898Y14336D01*
G01X34899Y14351D01*
G01X34899Y17399D01*
G01X34900Y17427D01*
G01X34903Y17456D01*
G01X34908Y17485D01*
G01X34915Y17513D01*
G01X34925Y17541D01*
G01X34936Y17567D01*
G01X34949Y17594D01*
G01X34964Y17618D01*
G01X34980Y17642D01*
G01X34998Y17665D01*
G01X35018Y17686D01*
G01X40046Y22714D01*
G01X40056Y22726D01*
G01X40065Y22740D01*
G01X40071Y22754D01*
G01X40075Y22770D01*
G01X40076Y22786D01*
G01X40074Y22805D01*
G01X40069Y22822D01*
G01X40051Y22873D01*
G01X40035Y22924D01*
G01X40022Y22976D01*
G01X40011Y23028D01*
G01X40002Y23080D01*
G01X39996Y23134D01*
G01X39992Y23187D01*
G01X39991Y23241D01*
G01X39992Y23290D01*
G01X39995Y23339D01*
G01X40000Y23387D01*
G01X40008Y23436D01*
G01X40017Y23484D01*
G01X40028Y23532D01*
G01X40042Y23579D01*
G01X40057Y23626D01*
G01X40075Y23672D01*
G01X40093Y23717D01*
G01X40115Y23761D01*
G01X40138Y23804D01*
G01X40162Y23847D01*
G01X40189Y23888D01*
G01X40218Y23928D01*
G01X40248Y23967D01*
G01X40279Y24005D01*
G01X40312Y24041D01*
G01X40347Y24076D01*
G01X40383Y24109D01*
G01X40421Y24140D01*
G01X40460Y24170D01*
G01X40500Y24199D01*
G01X40541Y24226D01*
G01X40584Y24250D01*
G01X40627Y24273D01*
G01X40671Y24295D01*
G01X40716Y24313D01*
G01X40762Y24331D01*
G01X40809Y24346D01*
G01X40856Y24360D01*
G01X40904Y24371D01*
G01X40952Y24380D01*
G01X41001Y24388D01*
G01X41049Y24393D01*
G01X41098Y24396D01*
G01X41148Y24397D01*
G01X41197Y24396D01*
G01X41246Y24393D01*
G01X41294Y24388D01*
G01X41343Y24380D01*
G01X41391Y24371D01*
G01X41439Y24360D01*
G01X41486Y24346D01*
G01X41533Y24331D01*
G01X41579Y24313D01*
G01X41624Y24295D01*
G01X41668Y24273D01*
G01X41711Y24250D01*
G01X41754Y24226D01*
G01X41795Y24199D01*
G01X41835Y24170D01*
G01X41874Y24140D01*
G01X41912Y24109D01*
G01X41948Y24076D01*
G01X41983Y24041D01*
G01X42016Y24005D01*
G01X42047Y23967D01*
G01X42077Y23928D01*
G01X42106Y23888D01*
G01X42133Y23847D01*
G01X42157Y23804D01*
G01X42180Y23761D01*
G01X42202Y23717D01*
G01X42220Y23672D01*
G01X42238Y23626D01*
G01X42253Y23579D01*
G01X42267Y23532D01*
G01X42278Y23484D01*
G01X42287Y23436D01*
G01X42295Y23387D01*
G01X42300Y23339D01*
G01X42303Y23290D01*
G01X42304Y23241D01*
G01X42303Y23191D01*
G01X42300Y23142D01*
G01X42295Y23094D01*
G01X42287Y23045D01*
G01X42278Y22997D01*
G01X42267Y22949D01*
G01X42253Y22902D01*
G01X42238Y22855D01*
G01X42220Y22809D01*
G01X42202Y22764D01*
G01X42180Y22720D01*
G01X42157Y22677D01*
G01X42133Y22634D01*
G01X42106Y22593D01*
G01X42077Y22553D01*
G01X42047Y22514D01*
G01X42016Y22476D01*
G01X41983Y22440D01*
G01X41948Y22405D01*
G01X41912Y22372D01*
G01X41874Y22341D01*
G01X41835Y22311D01*
G01X41795Y22282D01*
G01X41754Y22255D01*
G01X41711Y22231D01*
G01X41668Y22208D01*
G01X41624Y22186D01*
G01X41579Y22168D01*
G01X41533Y22150D01*
G01X41486Y22135D01*
G01X41439Y22121D01*
G01X41391Y22110D01*
G01X41343Y22101D01*
G01X41294Y22093D01*
G01X41246Y22088D01*
G01X41197Y22085D01*
G01X41148Y22084D01*
G01X41094Y22085D01*
G01X41041Y22089D01*
G01X40987Y22095D01*
G01X40935Y22104D01*
G01X40883Y22115D01*
G01X40831Y22128D01*
G01X40780Y22144D01*
G01X40729Y22162D01*
G01X40712Y22167D01*
G01X40693Y22169D01*
G01X40677Y22168D01*
G01X40661Y22164D01*
G01X40647Y22158D01*
G01X40633Y22149D01*
G01X40621Y22139D01*
G01X35742Y17260D01*
G01X35731Y17248D01*
G01X35723Y17234D01*
G01X35717Y17219D01*
G01X35713Y17204D01*
G01X35712Y17188D01*
G01X35712Y13843D01*
G01X35711Y13814D01*
G01X35708Y13785D01*
G01X35703Y13756D01*
G01X35696Y13728D01*
G01X35687Y13700D01*
G01X35675Y13674D01*
G01X35662Y13647D01*
G01X35647Y13623D01*
G01X35631Y13599D01*
G01X35613Y13576D01*
G01X35593Y13555D01*
G01X35572Y13535D01*
G01X35549Y13517D01*
G01X35525Y13501D01*
G01X35501Y13486D01*
G01X35474Y13473D01*
G01X35448Y13462D01*
G01X35420Y13452D01*
G01X35392Y13445D01*
G01X35363Y13440D01*
G01X35334Y13437D01*
G01X35306Y13436D01*
G01X25317Y13436D01*
G01X25299Y13435D01*
G01X25283Y13430D01*
G01X25266Y13422D01*
G01X25252Y13412D01*
G01X25224Y13390D01*
G01X25195Y13370D01*
G01X25164Y13352D01*
G01X25132Y13336D01*
G01X25100Y13321D01*
G01X25066Y13309D01*
G01X25032Y13299D01*
G01X24998Y13291D01*
G01X24963Y13286D01*
G01X24927Y13282D01*
G01X24892Y13281D01*
G01X24857Y13282D01*
G01X24823Y13285D01*
G01X24789Y13291D01*
G01X24755Y13298D01*
G01X24722Y13307D01*
G01X24690Y13319D01*
G01X24658Y13332D01*
G01X24627Y13347D01*
G01X24598Y13364D01*
G01X24569Y13383D01*
G01X24556Y13391D01*
G01X24541Y13397D01*
G01X24526Y13401D01*
G01X24511Y13402D01*
G01X24496Y13401D01*
G01X24482Y13397D01*
G01X24468Y13392D01*
G01X24456Y13385D01*
G01X24444Y13377D01*
G01X24434Y13367D01*
G01X24425Y13355D01*
G01X24418Y13342D01*
G01X24413Y13328D01*
G01X24410Y13314D01*
G01X24409Y13300D01*
G01X24409Y11513D01*
G01X24410Y11497D01*
G01X24414Y11482D01*
G01X24420Y11467D01*
G01X24428Y11453D01*
G01X24439Y11441D01*
G01X26173Y9707D01*
G01X26185Y9696D01*
G01X26199Y9688D01*
G01X26214Y9682D01*
G01X26229Y9678D01*
G01X26245Y9677D01*
G01X27514Y9677D01*
G01X27532Y9678D01*
G01X27548Y9683D01*
G01X27565Y9691D01*
G01X27579Y9701D01*
G01X27607Y9723D01*
G01X27636Y9743D01*
G01X27667Y9761D01*
G01X27699Y9777D01*
G01X27731Y9792D01*
G01X27765Y9804D01*
G01X27799Y9814D01*
G01X27833Y9822D01*
G01X27868Y9827D01*
G01X27904Y9831D01*
G01X27940Y9832D01*
G01X27974Y9831D01*
G01X28007Y9828D01*
G01X28041Y9823D01*
G01X28074Y9816D01*
G01X28107Y9806D01*
G01X28139Y9795D01*
G01X28170Y9783D01*
G01X28201Y9767D01*
G01X28230Y9751D01*
G01X28259Y9732D01*
G01X28285Y9712D01*
G01X28312Y9691D01*
G01X28360Y9643D01*
G01X28381Y9616D01*
G01X28401Y9590D01*
G01X28420Y9561D01*
G01X28436Y9532D01*
G01X28452Y9501D01*
G01X28464Y9470D01*
G01X28475Y9438D01*
G01X28485Y9405D01*
G01X28492Y9372D01*
G01X28497Y9338D01*
G01X28500Y9305D01*
G01X28501Y9271D01*
G01X28500Y9236D01*
G01X28497Y9203D01*
G01X28492Y9169D01*
G01X28485Y9136D01*
G01X28475Y9103D01*
G01X28464Y9071D01*
G01X28452Y9040D01*
G01X28436Y9009D01*
G01X28420Y8980D01*
G01X28401Y8951D01*
G01X28381Y8925D01*
G01X28360Y8898D01*
G01X28312Y8850D01*
G01X28285Y8829D01*
G01X28259Y8809D01*
G01X28230Y8790D01*
G01X28201Y8774D01*
G01X28170Y8758D01*
G01X28139Y8746D01*
G01X28107Y8735D01*
G01X28074Y8725D01*
G01X28041Y8718D01*
G01X28007Y8713D01*
G01X27974Y8710D01*
G01X27940Y8709D01*
G01X27904Y8710D01*
G01X27868Y8714D01*
G01X27833Y8719D01*
G01X27799Y8727D01*
G01X27765Y8737D01*
G01X27731Y8749D01*
G01X27699Y8764D01*
G01X27667Y8780D01*
G01X27636Y8798D01*
G01X27607Y8818D01*
G01X27579Y8840D01*
G01X27565Y8850D01*
G01X27548Y8858D01*
G01X27532Y8863D01*
G01X27514Y8864D01*
G01X27350Y8864D01*
G01X27335Y8863D01*
G01X27321Y8860D01*
G01X27308Y8855D01*
G01X27295Y8848D01*
G01X27283Y8839D01*
G01X27273Y8829D01*
G01X27264Y8817D01*
G01X27257Y8805D01*
G01X27252Y8791D01*
G01X27249Y8777D01*
G01X27248Y8763D01*
G01X27249Y8748D01*
G01X27252Y8733D01*
G01X27258Y8719D01*
G01X27265Y8707D01*
G01X27274Y8695D01*
G01X27284Y8685D01*
G01X27311Y8661D01*
G01X27335Y8637D01*
G01X27358Y8610D01*
G01X27379Y8582D01*
G01X27399Y8553D01*
G01X27416Y8523D01*
G01X27432Y8492D01*
G01X27446Y8460D01*
G01X27458Y8427D01*
G01X27468Y8393D01*
G01X27475Y8359D01*
G01X27480Y8324D01*
G01X27484Y8290D01*
G01X27485Y8255D01*
G01X27484Y8219D01*
G01X27480Y8185D01*
G01X27475Y8150D01*
G01X27468Y8116D01*
G01X27458Y8082D01*
G01X27446Y8049D01*
G01X27432Y8017D01*
G01X27416Y7986D01*
G01X27399Y7956D01*
G01X27379Y7927D01*
G01X27358Y7899D01*
G01X27335Y7872D01*
G01X27311Y7848D01*
G01X27284Y7824D01*
G01X27274Y7814D01*
G01X27265Y7802D01*
G01X27258Y7790D01*
G01X27252Y7776D01*
G01X27249Y7761D01*
G01X27248Y7747D01*
G01X27249Y7732D01*
G01X27252Y7718D01*
G01X27257Y7704D01*
G01X27264Y7692D01*
G01X27273Y7680D01*
G01X27283Y7670D01*
G01X27295Y7661D01*
G01X27308Y7654D01*
G01X27321Y7649D01*
G01X27335Y7646D01*
G01X27350Y7645D01*
G01X29165Y7645D01*
G01X29183Y7646D01*
G01X29199Y7651D01*
G01X29216Y7659D01*
G01X29230Y7669D01*
G01X29258Y7691D01*
G01X29287Y7711D01*
G01X29318Y7729D01*
G01X29350Y7745D01*
G01X29382Y7760D01*
G01X29416Y7772D01*
G01X29450Y7782D01*
G01X29484Y7790D01*
G01X29519Y7795D01*
G01X29555Y7799D01*
G01X29591Y7800D01*
G01X29625Y7799D01*
G01X29658Y7796D01*
G01X29692Y7791D01*
G01X29725Y7784D01*
G01X29758Y7774D01*
G01X29790Y7763D01*
G01X29821Y7751D01*
G01X29852Y7735D01*
G01X29881Y7719D01*
G01X29910Y7700D01*
G01X29936Y7680D01*
G01X29963Y7659D01*
G01X30011Y7611D01*
G01X30032Y7584D01*
G01X30052Y7558D01*
G01X30071Y7529D01*
G01X30087Y7500D01*
G01X30103Y7469D01*
G01X30115Y7438D01*
G01X30126Y7406D01*
G01X30136Y7373D01*
G01X30143Y7340D01*
G01X30148Y7306D01*
G01X30151Y7273D01*
G01X30152Y7239D01*
G01X30151Y7204D01*
G01X30148Y7170D01*
G01X30142Y7136D01*
G01X30135Y7102D01*
G01X30126Y7069D01*
G01X30114Y7037D01*
G01X30101Y7005D01*
G01X30086Y6974D01*
G01X30069Y6945D01*
G01X30050Y6916D01*
G01X30042Y6903D01*
G01X30036Y6888D01*
G01X30032Y6873D01*
G01X30031Y6858D01*
G01X30032Y6843D01*
G01X30036Y6829D01*
G01X30041Y6815D01*
G01X30048Y6803D01*
G01X30056Y6791D01*
G01X30066Y6781D01*
G01X30078Y6772D01*
G01X30091Y6765D01*
G01X30105Y6760D01*
G01X30119Y6757D01*
G01X30133Y6756D01*
G01X32594Y6756D01*
G01X32612Y6757D01*
G01X32628Y6762D01*
G01X32645Y6770D01*
G01X32659Y6780D01*
G01X32687Y6802D01*
G01X32716Y6822D01*
G01X32747Y6840D01*
G01X32779Y6856D01*
G01X32811Y6871D01*
G01X32845Y6883D01*
G01X32879Y6893D01*
G01X32913Y6901D01*
G01X32948Y6906D01*
G01X32984Y6910D01*
G01X33020Y6911D01*
G01X33054Y6910D01*
G01X33087Y6907D01*
G01X33121Y6902D01*
G01X33154Y6895D01*
G01X33187Y6885D01*
G01X33219Y6874D01*
G01X33250Y6862D01*
G01X33281Y6846D01*
G01X33310Y6830D01*
G01X33339Y6811D01*
G01X33365Y6791D01*
G01X33392Y6770D01*
G01X33440Y6722D01*
G01X33461Y6695D01*
G01X33481Y6669D01*
G01X33500Y6640D01*
G01X33516Y6611D01*
G01X33532Y6580D01*
G01X33544Y6549D01*
G01X33555Y6517D01*
G01X33565Y6484D01*
G01X33572Y6451D01*
G01X33577Y6417D01*
G01X33580Y6384D01*
G01X33581Y6350D01*
G01X33580Y6313D01*
G01X33576Y6276D01*
G01X33570Y6240D01*
G01X33562Y6204D01*
G01X33551Y6169D01*
G01X33538Y6135D01*
G01X33532Y6115D01*
G01X33531Y6096D01*
G01X33532Y6081D01*
G01X33535Y6067D01*
G01X33540Y6053D01*
G01X33546Y6041D01*
G01X33555Y6029D01*
G01X33566Y6019D01*
G01X33577Y6010D01*
G01X33589Y6003D01*
G01X33603Y5998D01*
G01X33617Y5995D01*
G01X33632Y5994D01*
G01X36576Y5994D01*
G01X36604Y5993D01*
G01X36633Y5990D01*
G01X36662Y5985D01*
G01X36690Y5978D01*
G01X36718Y5969D01*
G01X36744Y5957D01*
G01X36771Y5944D01*
G01X36795Y5929D01*
G01X36819Y5913D01*
G01X36842Y5895D01*
G01X36863Y5875D01*
G01X40113Y2625D01*
G01X40125Y2615D01*
G01X40139Y2606D01*
G01X40153Y2600D01*
G01X40169Y2596D01*
G01X40185Y2595D01*
G01X40204Y2597D01*
G01X40221Y2602D01*
G01X40272Y2620D01*
G01X40323Y2636D01*
G01X40375Y2649D01*
G01X40427Y2660D01*
G01X40479Y2669D01*
G01X40533Y2675D01*
G01X40586Y2679D01*
G01X40640Y2680D01*
G01X40689Y2679D01*
G01X40738Y2676D01*
G01X40786Y2671D01*
G01X40835Y2663D01*
G01X40883Y2654D01*
G01X40931Y2643D01*
G01X40978Y2629D01*
G01X41025Y2614D01*
G01X41071Y2596D01*
G01X41116Y2578D01*
G01X41160Y2556D01*
G01X41203Y2533D01*
G01X41246Y2509D01*
G01X41287Y2482D01*
G01X41327Y2453D01*
G01X41366Y2423D01*
G01X41404Y2392D01*
G01X41440Y2359D01*
G01X41475Y2324D01*
G01X41508Y2288D01*
G01X41539Y2250D01*
G01X41569Y2211D01*
G01X41598Y2171D01*
G01X41625Y2130D01*
G01X41649Y2087D01*
G01X41672Y2044D01*
G01X41694Y2000D01*
G01X41712Y1955D01*
G01X41730Y1909D01*
G01X41745Y1862D01*
G01X41759Y1815D01*
G01X41770Y1767D01*
G01X41779Y1719D01*
G01X41787Y1670D01*
G01X41792Y1622D01*
G01X41795Y1573D01*
G01X41796Y1524D01*
G01X41795Y1475D01*
G01X41792Y1425D01*
G01X41787Y1377D01*
G01X41779Y1328D01*
G01X41770Y1281D01*
G01X41759Y1233D01*
G01X41745Y1186D01*
G01X41730Y1139D01*
G01X41713Y1093D01*
G01X41694Y1049D01*
G01X41673Y1004D01*
G01X41650Y961D01*
G01X41625Y918D01*
G01X41599Y877D01*
G01X41571Y837D01*
G01X41541Y799D01*
G01X41509Y761D01*
G01X41476Y725D01*
G01X41442Y690D01*
G01X41406Y657D01*
G01X41368Y625D01*
G01X41330Y595D01*
G01X41290Y567D01*
G01X41249Y541D01*
G01X41206Y516D01*
G01X41163Y492D01*
G01X41119Y471D01*
G01X41074Y452D01*
G01X41061Y445D01*
G01X41048Y436D01*
G01X41037Y426D01*
G01X41028Y415D01*
G01X41021Y401D01*
G01X41015Y387D01*
G01X41012Y373D01*
G01X41011Y358D01*
G01X41012Y343D01*
G01X41015Y329D01*
G01X41020Y315D01*
G01X41027Y303D01*
G01X41036Y291D01*
G01X41046Y281D01*
G01X41058Y272D01*
G01X41070Y265D01*
G01X41084Y260D01*
G01X41098Y257D01*
G01X41112Y256D01*
G01X42567Y256D01*
G01X42582Y257D01*
G01X42596Y260D01*
G01X42610Y265D01*
G01X42622Y272D01*
G01X42634Y281D01*
G01X42644Y291D01*
G01X42653Y303D01*
G01X42660Y315D01*
G01X42665Y329D01*
G01X42668Y343D01*
G01X42669Y358D01*
G01X42669Y13862D01*
G01X42668Y13877D01*
G01X42665Y13891D01*
G01X42660Y13904D01*
G01X42653Y13917D01*
G01X42644Y13928D01*
G01X42634Y13939D01*
G01X42622Y13948D01*
G01X42610Y13954D01*
G01X42596Y13959D01*
G01X42582Y13962D01*
G01X42567Y13963D01*
G01X42551Y13962D01*
G01X42535Y13958D01*
G01X42520Y13952D01*
G01X42506Y13943D01*
G01X42494Y13932D01*
G01X42484Y13920D01*
G01X42438Y13855D01*
G01X42391Y13792D01*
G01X42342Y13730D01*
G01X42292Y13669D01*
G01X42240Y13610D01*
G01X42187Y13552D01*
G01X42132Y13496D01*
G01X42076Y13441D01*
G01X42018Y13387D01*
G01X41898Y13285D01*
G01X41836Y13236D01*
G01X41773Y13189D01*
G01X41709Y13143D01*
G01X41643Y13100D01*
G01X41577Y13058D01*
G01X41509Y13018D01*
G01X41440Y12979D01*
G01X41371Y12942D01*
G01X41300Y12907D01*
G01X41228Y12874D01*
G01X41156Y12843D01*
G01X41083Y12814D01*
G01X41009Y12787D01*
G01X40934Y12761D01*
G01X40859Y12738D01*
G01X40783Y12717D01*
G01X40707Y12697D01*
G01X40630Y12680D01*
G01X40553Y12664D01*
G01X40475Y12651D01*
G01X40397Y12640D01*
G01X40319Y12630D01*
G01X40241Y12623D01*
G01X40162Y12618D01*
G01X40083Y12615D01*
G01X40005Y12614D01*
G01X39926Y12615D01*
G01X39847Y12618D01*
G01X39769Y12623D01*
G01X39690Y12630D01*
G01X39612Y12640D01*
G01X39534Y12651D01*
G01X39456Y12664D01*
G01X39380Y12680D01*
G01X39302Y12697D01*
G01X39226Y12716D01*
G01X39151Y12738D01*
G01X39075Y12761D01*
G01X39001Y12786D01*
G01X38927Y12814D01*
G01X38854Y12843D01*
G01X38782Y12874D01*
G01X38710Y12907D01*
G01X38640Y12942D01*
G01X38570Y12978D01*
G01X38501Y13017D01*
G01X38434Y13057D01*
G01X38367Y13099D01*
G01X38302Y13143D01*
G01X38237Y13188D01*
G01X38174Y13235D01*
G01X38112Y13284D01*
G01X38052Y13335D01*
G01X37993Y13386D01*
G01X37935Y13440D01*
G01X37879Y13495D01*
G01X37824Y13551D01*
G01X37770Y13609D01*
G01X37719Y13668D01*
G01X37668Y13728D01*
G01X37619Y13790D01*
G01X37572Y13853D01*
G01X37527Y13918D01*
G01X37483Y13983D01*
G01X37441Y14050D01*
G01X37401Y14117D01*
G01X37362Y14186D01*
G01X37326Y14256D01*
G01X37291Y14326D01*
G01X37258Y14398D01*
G01X37227Y14470D01*
G01X37198Y14543D01*
G01X37170Y14617D01*
G01X37145Y14691D01*
G01X37122Y14767D01*
G01X37100Y14842D01*
G01X37081Y14918D01*
G01X37064Y14996D01*
G01X37048Y15072D01*
G01X37035Y15150D01*
G01X37024Y15228D01*
G01X37014Y15306D01*
G01X37007Y15385D01*
G01X37002Y15463D01*
G01X36999Y15542D01*
G01X36998Y15621D01*
G01X36999Y15699D01*
G01X37002Y15778D01*
G01X37007Y15856D01*
G01X37014Y15935D01*
G01X37024Y16013D01*
G01X37035Y16091D01*
G01X37048Y16169D01*
G01X37064Y16245D01*
G01X37081Y16323D01*
G01X37100Y16399D01*
G01X37122Y16474D01*
G01X37145Y16550D01*
G01X37170Y16624D01*
G01X37198Y16698D01*
G01X37227Y16771D01*
G01X37258Y16843D01*
G01X37291Y16915D01*
G01X37326Y16985D01*
G01X37362Y17055D01*
G01X37401Y17124D01*
G01X37441Y17191D01*
G01X37483Y17258D01*
G01X37527Y17323D01*
G01X37572Y17388D01*
G01X37619Y17451D01*
G01X37668Y17513D01*
G01X37719Y17573D01*
G01X37770Y17632D01*
G01X37824Y17690D01*
G01X37879Y17746D01*
G01X37935Y17801D01*
G01X37993Y17855D01*
G01X38052Y17907D01*
G01X38112Y17957D01*
G01X38174Y18006D01*
G01X38237Y18053D01*
G01X38302Y18098D01*
G01X38367Y18142D01*
G01X38434Y18184D01*
G01X38501Y18224D01*
G01X38570Y18263D01*
G01X38640Y18299D01*
G01X38710Y18334D01*
G01X38782Y18367D01*
G01X38854Y18398D01*
G01X38927Y18427D01*
G01X39001Y18455D01*
G01X39075Y18480D01*
G01X39151Y18503D01*
G01X39226Y18525D01*
G01X39302Y18544D01*
G01X39380Y18561D01*
G01X39456Y18577D01*
G01X39534Y18590D01*
G01X39612Y18601D01*
G01X39690Y18611D01*
G01X39769Y18618D01*
G01X39847Y18623D01*
G01X39926Y18626D01*
G01X40005Y18627D01*
G01X40083Y18626D01*
G01X40162Y18623D01*
G01X40241Y18618D01*
G01X40319Y18611D01*
G01X40397Y18601D01*
G01X40475Y18590D01*
G01X40553Y18577D01*
G01X40630Y18561D01*
G01X40707Y18544D01*
G01X40783Y18524D01*
G01X40859Y18503D01*
G01X40934Y18480D01*
G01X41009Y18454D01*
G01X41083Y18427D01*
G01X41156Y18398D01*
G01X41228Y18367D01*
G01X41300Y18334D01*
G01X41371Y18299D01*
G01X41440Y18262D01*
G01X41509Y18223D01*
G01X41577Y18183D01*
G01X41643Y18141D01*
G01X41709Y18098D01*
G01X41773Y18052D01*
G01X41836Y18005D01*
G01X41898Y17956D01*
G01X42018Y17854D01*
G01X42076Y17800D01*
G01X42132Y17745D01*
G01X42187Y17689D01*
G01X42240Y17631D01*
G01X42292Y17572D01*
G01X42342Y17511D01*
G01X42391Y17449D01*
G01X42438Y17386D01*
G01X42484Y17321D01*
G01X42494Y17309D01*
G01X42506Y17298D01*
G01X42520Y17289D01*
G01X42535Y17283D01*
G01X42551Y17279D01*
G01X42567Y17278D01*
G01X42582Y17279D01*
G01X42596Y17282D01*
G01X42610Y17287D01*
G01X42622Y17293D01*
G01X42634Y17302D01*
G01X42644Y17313D01*
G01X42653Y17324D01*
G01X42660Y17337D01*
G01X42665Y17350D01*
G01X42668Y17364D01*
G01X42669Y17379D01*
G01X42669Y29740D01*
G01X42668Y29755D01*
G01X42665Y29769D01*
G01X42660Y29783D01*
G01X42653Y29795D01*
G01X42644Y29807D01*
G01X42634Y29817D01*
G01X42622Y29826D01*
G01X42610Y29833D01*
G01X42596Y29838D01*
G01X42582Y29841D01*
G01X42567Y29842D01*
G01X12725Y29842D01*
G01X12711Y29841D01*
G01X12696Y29838D01*
G01X12683Y29833D01*
G01X12670Y29826D01*
G01X12658Y29817D01*
G01X12648Y29807D01*
G01X12632Y29783D01*
G01X12627Y29769D01*
G01X12624Y29755D01*
G01X12623Y29740D01*
G01X12625Y29725D01*
G01X12628Y29710D01*
G01X12633Y29696D01*
G01X12641Y29683D01*
G01X12651Y29671D01*
G01X12662Y29661D01*
G01X12724Y29610D01*
G01X12784Y29558D01*
G01X12843Y29505D01*
G01X12901Y29450D01*
G01X12957Y29393D01*
G01X13011Y29335D01*
G01X13064Y29276D01*
G01X13116Y29215D01*
G01X13165Y29153D01*
G01X13214Y29090D01*
G01X13260Y29025D01*
G01X13305Y28959D01*
G01X13348Y28892D01*
G01X13389Y28824D01*
G01X13428Y28754D01*
G01X13466Y28684D01*
G01X13501Y28613D01*
G01X13535Y28541D01*
G01X13567Y28468D01*
G01X13597Y28394D01*
G01X13625Y28319D01*
G01X13650Y28244D01*
G01X13674Y28168D01*
G01X13696Y28091D01*
G01X13716Y28015D01*
G01X13734Y27937D01*
G01X13750Y27859D01*
G01X13763Y27780D01*
G01X13775Y27702D01*
G01X13784Y27623D01*
G01X13792Y27543D01*
G01X13797Y27464D01*
G01X13800Y27384D01*
G01X13801Y27305D01*
G01X13800Y27225D01*
G01X13797Y27145D01*
G01X13792Y27066D01*
G01X13784Y26987D01*
G01X13775Y26908D01*
G01X13763Y26830D01*
G01X13750Y26751D01*
G01X13734Y26673D01*
G01X13717Y26596D01*
G01X13697Y26519D01*
G01X13675Y26442D01*
G01X13651Y26366D01*
G01X13625Y26291D01*
G01X13597Y26216D01*
G01X13568Y26143D01*
G01X13536Y26070D01*
G01X13502Y25998D01*
G01X13467Y25927D01*
G01X13429Y25857D01*
G01X13390Y25788D01*
G01X13349Y25719D01*
G01X13307Y25652D01*
G01X13262Y25586D01*
G01X13216Y25522D01*
G01X13167Y25458D01*
G01X13118Y25396D01*
G01X13067Y25335D01*
G01X13014Y25276D01*
G01X12959Y25218D01*
G01X12903Y25162D01*
G01X12846Y25106D01*
G01X12787Y25053D01*
G01X12727Y25001D01*
G01X12665Y24951D01*
G01X12602Y24902D01*
G01X12538Y24855D01*
G01X12473Y24810D01*
G01X12406Y24767D01*
G01X12339Y24725D01*
G01X12327Y24716D01*
G01X12315Y24706D01*
G01X12306Y24694D01*
G01X12299Y24681D01*
G01X12294Y24667D01*
G01X12291Y24653D01*
G01X12289Y24638D01*
G01X12290Y24623D01*
G01X12294Y24609D01*
G01X12299Y24595D01*
G01X12305Y24583D01*
G01X12314Y24571D01*
G01X12324Y24561D01*
G01X12336Y24552D01*
G01X12348Y24545D01*
G01X12362Y24540D01*
G01X12376Y24537D01*
G01X12391Y24536D01*
G01X25990Y24536D01*
G01X26008Y24537D01*
G01X26024Y24542D01*
G01X26041Y24550D01*
G01X26055Y24560D01*
G01X26083Y24582D01*
G01X26112Y24602D01*
G01X26143Y24620D01*
G01X26175Y24636D01*
G01X26207Y24651D01*
G01X26241Y24663D01*
G01X26275Y24673D01*
G01X26309Y24681D01*
G01X26344Y24686D01*
G01X26380Y24690D01*
G01X26416Y24691D01*
G01X26450Y24690D01*
G01X26483Y24687D01*
G01X26517Y24682D01*
G01X26550Y24675D01*
G01X26583Y24665D01*
G01X26615Y24654D01*
G01X26646Y24642D01*
G01X26677Y24626D01*
G01X26706Y24610D01*
G01X26735Y24591D01*
G01X26761Y24571D01*
G01X26788Y24550D01*
G01X26836Y24502D01*
G01X26857Y24475D01*
G01X26877Y24449D01*
G01X26896Y24420D01*
G01X26912Y24391D01*
G01X26928Y24360D01*
G01X26940Y24329D01*
G01X26951Y24297D01*
G01X26961Y24264D01*
G01X26968Y24231D01*
G01X26973Y24197D01*
G01X26976Y24164D01*
G01X26977Y24130D01*
G01X26976Y24093D01*
G01X26972Y24058D01*
G01X26967Y24022D01*
G01X26965Y24003D01*
G01X26966Y23988D01*
G01X26969Y23974D01*
G01X26974Y23960D01*
G01X26981Y23948D01*
G01X26990Y23936D01*
G01X27000Y23926D01*
G01X27011Y23917D01*
G01X27024Y23910D01*
G01X27038Y23905D01*
G01X27052Y23902D01*
G01X27066Y23901D01*
G01X30083Y23901D01*
G01X30099Y23902D01*
G01X30114Y23906D01*
G01X30128Y23912D01*
G01X30141Y23920D01*
G01X30153Y23929D01*
G01X30164Y23941D01*
G01X30172Y23954D01*
G01X30178Y23968D01*
G01X30183Y23983D01*
G01X30190Y24017D01*
G01X30200Y24051D01*
G01X30212Y24084D01*
G01X30227Y24116D01*
G01X30243Y24148D01*
G01X30261Y24178D01*
G01X30280Y24207D01*
G01X30302Y24235D01*
G01X30325Y24261D01*
G01X30350Y24285D01*
G01X30377Y24309D01*
G01X30404Y24330D01*
G01X30434Y24350D01*
G01X30464Y24368D01*
G01X30495Y24384D01*
G01X30527Y24398D01*
G01X30561Y24409D01*
G01X30594Y24420D01*
G01X30629Y24427D01*
G01X30663Y24432D01*
G01X30698Y24436D01*
G01X30734Y24437D01*
G01X30768Y24436D01*
G01X30801Y24433D01*
G01X30835Y24428D01*
G01X30868Y24421D01*
G01X30901Y24411D01*
G01X30933Y24400D01*
G01X30964Y24388D01*
G01X30995Y24372D01*
G01X31024Y24356D01*
G01X31053Y24337D01*
G01X31079Y24317D01*
G01X31106Y24296D01*
G01X31154Y24248D01*
G01X31175Y24221D01*
G01X31195Y24195D01*
G01X31214Y24166D01*
G01X31230Y24137D01*
G01X31246Y24106D01*
G01X31258Y24075D01*
G01X31269Y24043D01*
G01X31279Y24010D01*
G01X31286Y23977D01*
G01X31291Y23943D01*
G01X31294Y23910D01*
G01X31295Y23876D01*
G01X31294Y23839D01*
G01X31290Y23804D01*
G01X31285Y23769D01*
G01X31277Y23734D01*
G01X31266Y23699D01*
G01X31254Y23666D01*
G01X31239Y23633D01*
G01X31223Y23601D01*
G01X31204Y23570D01*
G01X31184Y23541D01*
G01X31162Y23513D01*
G01X31153Y23500D01*
G01X31146Y23486D01*
G01X31141Y23472D01*
G01X31138Y23456D01*
G01X31134Y23427D01*
G01X31129Y23398D01*
G01X31121Y23371D01*
G01X31111Y23343D01*
G01X31099Y23316D01*
G01X31085Y23290D01*
G01X31069Y23265D01*
G01X31052Y23242D01*
G01X31033Y23219D01*
G01X31012Y23198D01*
G01X30990Y23179D01*
G01X30967Y23161D01*
G01X30942Y23146D01*
G01X30916Y23131D01*
G01X30889Y23119D01*
G01X30862Y23109D01*
G01X30834Y23101D01*
G01X30805Y23094D01*
G01X30776Y23090D01*
G01X30747Y23088D01*
G01X30731Y23087D01*
G01X30716Y23083D01*
G01X30702Y23076D01*
G01X30689Y23068D01*
G01X30677Y23057D01*
G01X30667Y23045D01*
G01X30659Y23032D01*
G01X30654Y23017D01*
G01X30650Y23002D01*
G01X30649Y22987D01*
G01X30650Y22972D01*
G01X30653Y22958D01*
G01X30658Y22944D01*
G01X30665Y22932D01*
G01X30674Y22920D01*
G01X30684Y22910D01*
G01X30695Y22901D01*
G01X30708Y22894D01*
G01X30722Y22889D01*
G01X30736Y22886D01*
G01X30750Y22885D01*
G01X32340Y22885D01*
G01X32358Y22886D01*
G01X32374Y22891D01*
G01X32391Y22899D01*
G01X32405Y22909D01*
G01X32433Y22931D01*
G01X32462Y22951D01*
G01X32493Y22969D01*
G01X32525Y22985D01*
G01X32557Y23000D01*
G01X32591Y23012D01*
G01X32625Y23022D01*
G01X32659Y23030D01*
G01X32694Y23035D01*
G01X32730Y23039D01*
G01X32766Y23040D01*
G01X32800Y23039D01*
G01X32833Y23036D01*
G01X32867Y23031D01*
G01X32900Y23024D01*
G01X32933Y23014D01*
G01X32965Y23003D01*
G01X32996Y22991D01*
G01X33027Y22975D01*
G01X33056Y22959D01*
G01X33085Y22940D01*
G01X33111Y22920D01*
G01X33138Y22899D01*
G01X33186Y22851D01*
G01X33207Y22824D01*
G01X33227Y22798D01*
G01X33246Y22769D01*
G01X33262Y22740D01*
G01X33278Y22709D01*
G01X33290Y22678D01*
G01X33301Y22646D01*
G01X33311Y22613D01*
G01X33318Y22580D01*
G01X33323Y22546D01*
G01X33326Y22513D01*
G01X33327Y22479D01*
G01X33326Y22444D01*
G01X33323Y22411D01*
G01X33318Y22377D01*
G01X33311Y22344D01*
G01X33301Y22311D01*
G01X33290Y22279D01*
G01X33278Y22248D01*
G01X33262Y22217D01*
G01X33246Y22188D01*
G01X33227Y22159D01*
G01X33207Y22133D01*
G01X33186Y22106D01*
G01X33138Y22058D01*
G01X33111Y22037D01*
G01X33085Y22017D01*
G01X33056Y21998D01*
G01X33027Y21982D01*
G01X32996Y21966D01*
G01X32965Y21954D01*
G01X32933Y21943D01*
G01X32900Y21933D01*
G01X32867Y21926D01*
G01X32833Y21921D01*
G01X32800Y21918D01*
G01X32766Y21917D01*
G01X32730Y21918D01*
G01X32694Y21922D01*
G01X32659Y21927D01*
G01X32625Y21935D01*
G01X32591Y21945D01*
G01X32557Y21957D01*
G01X32525Y21972D01*
G01X32493Y21988D01*
G01X32462Y22006D01*
G01X32433Y22026D01*
G01X32405Y22048D01*
G01X32391Y22058D01*
G01X32374Y22066D01*
G01X32358Y22071D01*
G01X32340Y22072D01*
G01X20745Y22072D01*
G01X20727Y22071D01*
G01X20711Y22066D01*
G01X20694Y22058D01*
G01X20680Y22048D01*
G01X20652Y22026D01*
G01X20623Y22006D01*
G01X20592Y21988D01*
G01X20560Y21972D01*
G01X20528Y21957D01*
G01X20494Y21945D01*
G01X20460Y21935D01*
G01X20426Y21927D01*
G01X20391Y21922D01*
G01X20355Y21918D01*
G01X20320Y21917D01*
G01X20285Y21918D01*
G01X20252Y21921D01*
G01X20218Y21926D01*
G01X20185Y21933D01*
G01X20152Y21943D01*
G01X20120Y21954D01*
G01X20089Y21966D01*
G01X20058Y21982D01*
G01X20029Y21998D01*
G01X20000Y22017D01*
G01X19974Y22037D01*
G01X19947Y22058D01*
G01X19899Y22106D01*
G01X19878Y22133D01*
G01X19858Y22159D01*
G01X19839Y22188D01*
G01X19823Y22217D01*
G01X19807Y22248D01*
G01X19795Y22279D01*
G01X19784Y22311D01*
G01X19774Y22344D01*
G01X19767Y22377D01*
G01X19762Y22411D01*
G01X19759Y22444D01*
G01X19758Y22479D01*
G01X19759Y22514D01*
G01X19763Y22548D01*
G01X19768Y22583D01*
G01X19775Y22617D01*
G01X19785Y22651D01*
G01X19797Y22684D01*
G01X19811Y22716D01*
G01X19827Y22747D01*
G01X19844Y22777D01*
G01X19864Y22806D01*
G01X19885Y22834D01*
G01X19908Y22861D01*
G01X19932Y22885D01*
G01X19959Y22909D01*
G01X19969Y22919D01*
G01X19978Y22931D01*
G01X19985Y22943D01*
G01X19991Y22957D01*
G01X19994Y22972D01*
G01X19995Y22987D01*
G01X19994Y23001D01*
G01X19991Y23015D01*
G01X19986Y23029D01*
G01X19979Y23041D01*
G01X19970Y23053D01*
G01X19960Y23063D01*
G01X19948Y23072D01*
G01X19935Y23079D01*
G01X19922Y23084D01*
G01X19908Y23087D01*
G01X19893Y23088D01*
G01X8211Y23088D01*
G01X8195Y23087D01*
G01X8180Y23083D01*
G01X8165Y23077D01*
G01X8151Y23069D01*
G01X8139Y23058D01*
G01X7700Y22619D01*
G01X7689Y22606D01*
G01X7680Y22590D01*
G01X7674Y22573D01*
G01X7671Y22556D01*
G01X7667Y22522D01*
G01X7660Y22488D01*
G01X7652Y22454D01*
G01X7642Y22421D01*
G01X7629Y22389D01*
G01X7615Y22357D01*
G01X7599Y22327D01*
G01X7580Y22297D01*
G01X7561Y22269D01*
G01X7539Y22241D01*
G01X7515Y22216D01*
G01X7490Y22191D01*
G01X7464Y22169D01*
G01X7437Y22148D01*
G01X7408Y22128D01*
G01X7378Y22111D01*
G01X7347Y22096D01*
G01X7315Y22082D01*
G01X7282Y22071D01*
G01X7249Y22061D01*
G01X7215Y22054D01*
G01X7181Y22048D01*
G01X7146Y22045D01*
G01X7112Y22044D01*
G01X7077Y22045D01*
G01X7044Y22048D01*
G01X7010Y22053D01*
G01X6977Y22060D01*
G01X6944Y22070D01*
G01X6912Y22081D01*
G01X6881Y22093D01*
G01X6850Y22109D01*
G01X6821Y22125D01*
G01X6792Y22144D01*
G01X6766Y22164D01*
G01X6739Y22185D01*
G01X6691Y22233D01*
G01X6670Y22260D01*
G01X6650Y22286D01*
G01X6631Y22315D01*
G01X6615Y22344D01*
G01X6599Y22375D01*
G01X6587Y22406D01*
G01X6576Y22438D01*
G01X6566Y22471D01*
G01X6559Y22504D01*
G01X6554Y22538D01*
G01X6551Y22571D01*
G01X6550Y22606D01*
G01X6551Y22640D01*
G01X6554Y22673D01*
G01X6559Y22707D01*
G01X6566Y22740D01*
G01X6576Y22773D01*
G01X6587Y22805D01*
G01X6592Y22823D01*
G01X6593Y22841D01*
G01X6592Y22857D01*
G01X6589Y22872D01*
G01X6583Y22887D01*
G01X6575Y22900D01*
G01X6564Y22912D01*
G01X6552Y22922D01*
G01X6539Y22931D01*
G01X6524Y22937D01*
G01X6509Y22941D01*
G01X6475Y22948D01*
G01X6442Y22957D01*
G01X6410Y22968D01*
G01X6378Y22980D01*
G01X6347Y22995D01*
G01X6317Y23011D01*
G01X6289Y23030D01*
G01X6261Y23050D01*
G01X6234Y23072D01*
G01X6209Y23095D01*
G01X6185Y23120D01*
G01X6164Y23146D01*
G01X6143Y23173D01*
G01X6124Y23202D01*
G01X6108Y23231D01*
G01X6092Y23262D01*
G01X6079Y23294D01*
G01X6068Y23326D01*
G01X6059Y23359D01*
G01X6051Y23392D01*
G01X6046Y23426D01*
G01X6043Y23460D01*
G01X6042Y23495D01*
G01X6043Y23529D01*
G01X6046Y23564D01*
G01X6052Y23598D01*
G01X6059Y23632D01*
G01X6069Y23665D01*
G01X6080Y23698D01*
G01X6094Y23730D01*
G01X6109Y23761D01*
G01X6126Y23791D01*
G01X6146Y23820D01*
G01X6167Y23847D01*
G01X6189Y23873D01*
G01X6214Y23898D01*
G01X6239Y23922D01*
G01X6267Y23944D01*
G01X6295Y23963D01*
G01X6325Y23982D01*
G01X6355Y23998D01*
G01X6387Y24012D01*
G01X6419Y24025D01*
G01X6452Y24035D01*
G01X6486Y24043D01*
G01X6520Y24050D01*
G01X6554Y24054D01*
G01X6571Y24057D01*
G01X6588Y24063D01*
G01X6604Y24072D01*
G01X6617Y24083D01*
G01X6951Y24417D01*
G01X6972Y24437D01*
G01X6995Y24455D01*
G01X7019Y24471D01*
G01X7043Y24486D01*
G01X7070Y24499D01*
G01X7096Y24511D01*
G01X7124Y24520D01*
G01X7152Y24527D01*
G01X7181Y24532D01*
G01X7210Y24535D01*
G01X7239Y24536D01*
G01X9198Y24536D01*
G01X9213Y24537D01*
G01X9227Y24540D01*
G01X9241Y24545D01*
G01X9253Y24552D01*
G01X9265Y24561D01*
G01X9275Y24571D01*
G01X9284Y24583D01*
G01X9290Y24595D01*
G01X9295Y24609D01*
G01X9299Y24623D01*
G01X9300Y24638D01*
G01X9298Y24653D01*
G01X9295Y24667D01*
G01X9290Y24681D01*
G01X9283Y24694D01*
G01X9274Y24706D01*
G01X9262Y24716D01*
G01X9250Y24725D01*
G01X9183Y24767D01*
G01X9116Y24810D01*
G01X9051Y24855D01*
G01X8987Y24902D01*
G01X8924Y24951D01*
G01X8862Y25001D01*
G01X8802Y25053D01*
G01X8743Y25106D01*
G01X8686Y25162D01*
G01X8630Y25218D01*
G01X8575Y25276D01*
G01X8522Y25335D01*
G01X8471Y25396D01*
G01X8422Y25458D01*
G01X8373Y25522D01*
G01X8327Y25586D01*
G01X8282Y25652D01*
G01X8240Y25719D01*
G01X8199Y25788D01*
G01X8160Y25857D01*
G01X8122Y25927D01*
G01X8087Y25998D01*
G01X8053Y26070D01*
G01X8021Y26143D01*
G01X7992Y26216D01*
G01X7964Y26291D01*
G01X7938Y26366D01*
G01X7914Y26442D01*
G01X7892Y26519D01*
G01X7872Y26596D01*
G01X7855Y26673D01*
G01X7839Y26751D01*
G01X7826Y26830D01*
G01X7814Y26908D01*
G01X7805Y26987D01*
G01X7797Y27066D01*
G01X7792Y27145D01*
G01X7789Y27225D01*
G01X7788Y27305D01*
G01X7789Y27384D01*
G01X7792Y27464D01*
G01X7797Y27543D01*
G01X7805Y27623D01*
G01X7814Y27702D01*
G01X7826Y27780D01*
G01X7839Y27859D01*
G01X7855Y27937D01*
G01X7873Y28015D01*
G01X7893Y28091D01*
G01X7915Y28168D01*
G01X7939Y28244D01*
G01X7964Y28319D01*
G01X7992Y28394D01*
G01X8022Y28468D01*
G01X8054Y28541D01*
G01X8088Y28613D01*
G01X8123Y28684D01*
G01X8161Y28754D01*
G01X8200Y28824D01*
G01X8241Y28892D01*
G01X8284Y28959D01*
G01X8329Y29025D01*
G01X8375Y29090D01*
G01X8424Y29153D01*
G01X8473Y29215D01*
G01X8525Y29276D01*
G01X8578Y29335D01*
G01X8632Y29393D01*
G01X8688Y29450D01*
G01X8746Y29505D01*
G01X8805Y29558D01*
G01X8865Y29610D01*
G01X8927Y29661D01*
G01X8938Y29671D01*
G01X8948Y29683D01*
G01X8956Y29696D01*
G01X8961Y29710D01*
G01X8964Y29725D01*
G01X8966Y29740D01*
G01X8965Y29755D01*
G01X8962Y29769D01*
G01X8957Y29783D01*
G01X8941Y29807D01*
G01X8931Y29817D01*
G01X8919Y29826D01*
G01X8906Y29833D01*
G01X8893Y29838D01*
G01X8878Y29841D01*
G01X8864Y29842D01*
G37*

%LPC*%
G36*
G01X1079Y10350D02*
G01X607Y10350D01*
G01X629Y10307D01*
G01X654Y10265D01*
G01X680Y10224D01*
G01X708Y10184D01*
G01X738Y10146D01*
G01X770Y10109D01*
G01X803Y10074D01*
G01X838Y10041D01*
G01X875Y10009D01*
G01X913Y9979D01*
G01X953Y9951D01*
G01X994Y9925D01*
G01X1036Y9900D01*
G01X1079Y9878D01*
G01X1079Y10350D01*
G37*
G36*
G01X2440Y10350D02*
G01X1968Y10350D01*
G01X1968Y9878D01*
G01X2011Y9900D01*
G01X2053Y9925D01*
G01X2094Y9951D01*
G01X2134Y9979D01*
G01X2172Y10009D01*
G01X2209Y10041D01*
G01X2244Y10074D01*
G01X2277Y10109D01*
G01X2309Y10146D01*
G01X2339Y10184D01*
G01X2367Y10224D01*
G01X2393Y10265D01*
G01X2418Y10307D01*
G01X2440Y10350D01*
G37*
G36*
G01X1079Y11239D02*
G01X1079Y11711D01*
G01X1036Y11689D01*
G01X994Y11664D01*
G01X953Y11638D01*
G01X913Y11610D01*
G01X875Y11580D01*
G01X838Y11548D01*
G01X803Y11515D01*
G01X770Y11480D01*
G01X738Y11443D01*
G01X708Y11405D01*
G01X680Y11365D01*
G01X654Y11324D01*
G01X629Y11282D01*
G01X607Y11239D01*
G01X1079Y11239D01*
G37*
G36*
G01X2011Y11689D02*
G01X1968Y11711D01*
G01X1968Y11239D01*
G01X2440Y11239D01*
G01X2418Y11282D01*
G01X2393Y11324D01*
G01X2367Y11365D01*
G01X2339Y11405D01*
G01X2309Y11443D01*
G01X2277Y11480D01*
G01X2244Y11515D01*
G01X2209Y11548D01*
G01X2172Y11580D01*
G01X2134Y11610D01*
G01X2094Y11638D01*
G01X2053Y11664D01*
G01X2011Y11689D01*
G37*
G36*
G01X1569Y14352D02*
G01X1524Y14353D01*
G01X1478Y14352D01*
G01X1432Y14349D01*
G01X1387Y14344D01*
G01X1342Y14337D01*
G01X1297Y14328D01*
G01X1253Y14316D01*
G01X1209Y14303D01*
G01X1165Y14288D01*
G01X1123Y14271D01*
G01X1082Y14252D01*
G01X1041Y14232D01*
G01X1001Y14209D01*
G01X962Y14184D01*
G01X925Y14158D01*
G01X889Y14131D01*
G01X853Y14102D01*
G01X819Y14071D01*
G01X787Y14039D01*
G01X756Y14005D01*
G01X727Y13970D01*
G01X700Y13933D01*
G01X674Y13896D01*
G01X649Y13857D01*
G01X626Y13817D01*
G01X606Y13776D01*
G01X587Y13735D01*
G01X570Y13693D01*
G01X555Y13649D01*
G01X542Y13605D01*
G01X530Y13561D01*
G01X521Y13516D01*
G01X514Y13471D01*
G01X509Y13426D01*
G01X506Y13380D01*
G01X505Y13335D01*
G01X506Y13289D01*
G01X509Y13243D01*
G01X514Y13198D01*
G01X521Y13153D01*
G01X530Y13108D01*
G01X542Y13064D01*
G01X555Y13020D01*
G01X570Y12976D01*
G01X587Y12934D01*
G01X606Y12893D01*
G01X626Y12852D01*
G01X649Y12812D01*
G01X674Y12773D01*
G01X700Y12736D01*
G01X727Y12700D01*
G01X756Y12664D01*
G01X787Y12630D01*
G01X819Y12598D01*
G01X853Y12567D01*
G01X889Y12538D01*
G01X925Y12511D01*
G01X962Y12485D01*
G01X1001Y12460D01*
G01X1041Y12437D01*
G01X1082Y12417D01*
G01X1123Y12398D01*
G01X1165Y12381D01*
G01X1209Y12366D01*
G01X1253Y12353D01*
G01X1297Y12341D01*
G01X1342Y12332D01*
G01X1387Y12325D01*
G01X1432Y12320D01*
G01X1478Y12317D01*
G01X1524Y12316D01*
G01X1569Y12317D01*
G01X1615Y12320D01*
G01X1660Y12325D01*
G01X1705Y12332D01*
G01X1750Y12341D01*
G01X1794Y12353D01*
G01X1838Y12366D01*
G01X1882Y12381D01*
G01X1924Y12398D01*
G01X1965Y12417D01*
G01X2006Y12437D01*
G01X2046Y12460D01*
G01X2085Y12485D01*
G01X2122Y12511D01*
G01X2159Y12538D01*
G01X2194Y12567D01*
G01X2228Y12598D01*
G01X2260Y12630D01*
G01X2291Y12664D01*
G01X2320Y12700D01*
G01X2347Y12736D01*
G01X2373Y12773D01*
G01X2398Y12812D01*
G01X2421Y12852D01*
G01X2441Y12893D01*
G01X2460Y12934D01*
G01X2477Y12976D01*
G01X2492Y13020D01*
G01X2505Y13064D01*
G01X2517Y13108D01*
G01X2526Y13153D01*
G01X2533Y13198D01*
G01X2538Y13243D01*
G01X2541Y13289D01*
G01X2542Y13335D01*
G01X2541Y13380D01*
G01X2538Y13426D01*
G01X2533Y13471D01*
G01X2526Y13516D01*
G01X2517Y13561D01*
G01X2505Y13605D01*
G01X2492Y13649D01*
G01X2477Y13693D01*
G01X2460Y13735D01*
G01X2441Y13776D01*
G01X2421Y13817D01*
G01X2398Y13857D01*
G01X2373Y13896D01*
G01X2347Y13933D01*
G01X2320Y13970D01*
G01X2291Y14005D01*
G01X2260Y14039D01*
G01X2228Y14071D01*
G01X2194Y14102D01*
G01X2159Y14131D01*
G01X2122Y14158D01*
G01X2085Y14184D01*
G01X2046Y14209D01*
G01X2006Y14232D01*
G01X1965Y14252D01*
G01X1924Y14271D01*
G01X1882Y14288D01*
G01X1838Y14303D01*
G01X1794Y14316D01*
G01X1750Y14328D01*
G01X1705Y14337D01*
G01X1660Y14344D01*
G01X1615Y14349D01*
G01X1569Y14352D01*
G37*
G36*
G01X1569Y16892D02*
G01X1524Y16893D01*
G01X1478Y16892D01*
G01X1432Y16889D01*
G01X1387Y16884D01*
G01X1342Y16877D01*
G01X1297Y16868D01*
G01X1253Y16856D01*
G01X1209Y16843D01*
G01X1165Y16828D01*
G01X1123Y16811D01*
G01X1082Y16792D01*
G01X1041Y16772D01*
G01X1001Y16749D01*
G01X962Y16724D01*
G01X925Y16698D01*
G01X889Y16671D01*
G01X853Y16642D01*
G01X819Y16611D01*
G01X787Y16579D01*
G01X756Y16545D01*
G01X727Y16510D01*
G01X700Y16473D01*
G01X674Y16436D01*
G01X649Y16397D01*
G01X626Y16357D01*
G01X606Y16316D01*
G01X587Y16275D01*
G01X570Y16233D01*
G01X555Y16189D01*
G01X542Y16145D01*
G01X530Y16101D01*
G01X521Y16056D01*
G01X514Y16011D01*
G01X509Y15966D01*
G01X506Y15920D01*
G01X505Y15875D01*
G01X506Y15829D01*
G01X509Y15783D01*
G01X514Y15738D01*
G01X521Y15693D01*
G01X530Y15648D01*
G01X542Y15604D01*
G01X555Y15560D01*
G01X570Y15516D01*
G01X587Y15474D01*
G01X606Y15433D01*
G01X626Y15392D01*
G01X649Y15352D01*
G01X674Y15313D01*
G01X700Y15276D01*
G01X727Y15240D01*
G01X756Y15204D01*
G01X787Y15170D01*
G01X819Y15138D01*
G01X853Y15107D01*
G01X889Y15078D01*
G01X925Y15051D01*
G01X962Y15025D01*
G01X1001Y15000D01*
G01X1041Y14977D01*
G01X1082Y14957D01*
G01X1123Y14938D01*
G01X1165Y14921D01*
G01X1209Y14906D01*
G01X1253Y14893D01*
G01X1297Y14881D01*
G01X1342Y14872D01*
G01X1387Y14865D01*
G01X1432Y14860D01*
G01X1478Y14857D01*
G01X1524Y14856D01*
G01X1569Y14857D01*
G01X1615Y14860D01*
G01X1660Y14865D01*
G01X1705Y14872D01*
G01X1750Y14881D01*
G01X1794Y14893D01*
G01X1838Y14906D01*
G01X1882Y14921D01*
G01X1924Y14938D01*
G01X1965Y14957D01*
G01X2006Y14977D01*
G01X2046Y15000D01*
G01X2085Y15025D01*
G01X2122Y15051D01*
G01X2159Y15078D01*
G01X2194Y15107D01*
G01X2228Y15138D01*
G01X2260Y15170D01*
G01X2291Y15204D01*
G01X2320Y15240D01*
G01X2347Y15276D01*
G01X2373Y15313D01*
G01X2398Y15352D01*
G01X2421Y15392D01*
G01X2441Y15433D01*
G01X2460Y15474D01*
G01X2477Y15516D01*
G01X2492Y15560D01*
G01X2505Y15604D01*
G01X2517Y15648D01*
G01X2526Y15693D01*
G01X2533Y15738D01*
G01X2538Y15783D01*
G01X2541Y15829D01*
G01X2542Y15875D01*
G01X2541Y15920D01*
G01X2538Y15966D01*
G01X2533Y16011D01*
G01X2526Y16056D01*
G01X2517Y16101D01*
G01X2505Y16145D01*
G01X2492Y16189D01*
G01X2477Y16233D01*
G01X2460Y16275D01*
G01X2441Y16316D01*
G01X2421Y16357D01*
G01X2398Y16397D01*
G01X2373Y16436D01*
G01X2347Y16473D01*
G01X2320Y16510D01*
G01X2291Y16545D01*
G01X2260Y16579D01*
G01X2228Y16611D01*
G01X2194Y16642D01*
G01X2159Y16671D01*
G01X2122Y16698D01*
G01X2085Y16724D01*
G01X2046Y16749D01*
G01X2006Y16772D01*
G01X1965Y16792D01*
G01X1924Y16811D01*
G01X1882Y16828D01*
G01X1838Y16843D01*
G01X1794Y16856D01*
G01X1750Y16868D01*
G01X1705Y16877D01*
G01X1660Y16884D01*
G01X1615Y16889D01*
G01X1569Y16892D01*
G37*
G36*
G01X1569Y19432D02*
G01X1524Y19433D01*
G01X1478Y19432D01*
G01X1432Y19429D01*
G01X1387Y19424D01*
G01X1342Y19417D01*
G01X1297Y19408D01*
G01X1253Y19396D01*
G01X1209Y19383D01*
G01X1165Y19368D01*
G01X1123Y19351D01*
G01X1082Y19332D01*
G01X1041Y19312D01*
G01X1001Y19289D01*
G01X962Y19264D01*
G01X925Y19238D01*
G01X889Y19211D01*
G01X853Y19182D01*
G01X819Y19151D01*
G01X787Y19119D01*
G01X756Y19085D01*
G01X727Y19050D01*
G01X700Y19013D01*
G01X674Y18976D01*
G01X649Y18937D01*
G01X626Y18897D01*
G01X606Y18856D01*
G01X587Y18815D01*
G01X570Y18773D01*
G01X555Y18729D01*
G01X542Y18685D01*
G01X530Y18641D01*
G01X521Y18596D01*
G01X514Y18551D01*
G01X509Y18506D01*
G01X506Y18460D01*
G01X505Y18415D01*
G01X506Y18369D01*
G01X509Y18323D01*
G01X514Y18278D01*
G01X521Y18233D01*
G01X530Y18188D01*
G01X542Y18144D01*
G01X555Y18100D01*
G01X570Y18056D01*
G01X587Y18014D01*
G01X606Y17973D01*
G01X626Y17932D01*
G01X649Y17892D01*
G01X674Y17853D01*
G01X700Y17816D01*
G01X727Y17780D01*
G01X756Y17744D01*
G01X787Y17710D01*
G01X819Y17678D01*
G01X853Y17647D01*
G01X889Y17618D01*
G01X925Y17591D01*
G01X962Y17565D01*
G01X1001Y17540D01*
G01X1041Y17517D01*
G01X1082Y17497D01*
G01X1123Y17478D01*
G01X1165Y17461D01*
G01X1209Y17446D01*
G01X1253Y17433D01*
G01X1297Y17421D01*
G01X1342Y17412D01*
G01X1387Y17405D01*
G01X1432Y17400D01*
G01X1478Y17397D01*
G01X1524Y17396D01*
G01X1569Y17397D01*
G01X1615Y17400D01*
G01X1660Y17405D01*
G01X1705Y17412D01*
G01X1750Y17421D01*
G01X1794Y17433D01*
G01X1838Y17446D01*
G01X1882Y17461D01*
G01X1924Y17478D01*
G01X1965Y17497D01*
G01X2006Y17517D01*
G01X2046Y17540D01*
G01X2085Y17565D01*
G01X2122Y17591D01*
G01X2159Y17618D01*
G01X2194Y17647D01*
G01X2228Y17678D01*
G01X2260Y17710D01*
G01X2291Y17744D01*
G01X2320Y17780D01*
G01X2347Y17816D01*
G01X2373Y17853D01*
G01X2398Y17892D01*
G01X2421Y17932D01*
G01X2441Y17973D01*
G01X2460Y18014D01*
G01X2477Y18056D01*
G01X2492Y18100D01*
G01X2505Y18144D01*
G01X2517Y18188D01*
G01X2526Y18233D01*
G01X2533Y18278D01*
G01X2538Y18323D01*
G01X2541Y18369D01*
G01X2542Y18415D01*
G01X2541Y18460D01*
G01X2538Y18506D01*
G01X2533Y18551D01*
G01X2526Y18596D01*
G01X2517Y18641D01*
G01X2505Y18685D01*
G01X2492Y18729D01*
G01X2477Y18773D01*
G01X2460Y18815D01*
G01X2441Y18856D01*
G01X2421Y18897D01*
G01X2398Y18937D01*
G01X2373Y18976D01*
G01X2347Y19013D01*
G01X2320Y19050D01*
G01X2291Y19085D01*
G01X2260Y19119D01*
G01X2228Y19151D01*
G01X2194Y19182D01*
G01X2159Y19211D01*
G01X2122Y19238D01*
G01X2085Y19264D01*
G01X2046Y19289D01*
G01X2006Y19312D01*
G01X1965Y19332D01*
G01X1924Y19351D01*
G01X1882Y19368D01*
G01X1838Y19383D01*
G01X1794Y19396D01*
G01X1750Y19408D01*
G01X1705Y19417D01*
G01X1660Y19424D01*
G01X1615Y19429D01*
G01X1569Y19432D01*
G37*
G36*
G01X42184Y20187D02*
G01X41661Y20187D01*
G01X41661Y19664D01*
G01X41749Y19712D01*
G01X41791Y19739D01*
G01X41832Y19768D01*
G01X41872Y19799D01*
G01X41911Y19831D01*
G01X41948Y19865D01*
G01X41983Y19900D01*
G01X42017Y19937D01*
G01X42049Y19976D01*
G01X42080Y20016D01*
G01X42109Y20057D01*
G01X42136Y20099D01*
G01X42184Y20187D01*
G37*
G36*
G01X40634Y20187D02*
G01X40111Y20187D01*
G01X40159Y20099D01*
G01X40186Y20057D01*
G01X40215Y20016D01*
G01X40246Y19976D01*
G01X40278Y19937D01*
G01X40312Y19900D01*
G01X40347Y19865D01*
G01X40384Y19831D01*
G01X40423Y19799D01*
G01X40463Y19768D01*
G01X40504Y19739D01*
G01X40546Y19712D01*
G01X40634Y19664D01*
G01X40634Y20187D01*
G37*
G36*
G01X41749Y21689D02*
G01X41661Y21737D01*
G01X41661Y21214D01*
G01X42184Y21214D01*
G01X42136Y21302D01*
G01X42109Y21344D01*
G01X42080Y21385D01*
G01X42049Y21425D01*
G01X42017Y21464D01*
G01X41983Y21501D01*
G01X41948Y21536D01*
G01X41911Y21570D01*
G01X41872Y21602D01*
G01X41832Y21633D01*
G01X41791Y21662D01*
G01X41749Y21689D01*
G37*
G36*
G01X40634Y21214D02*
G01X40634Y21737D01*
G01X40546Y21689D01*
G01X40504Y21662D01*
G01X40463Y21633D01*
G01X40423Y21602D01*
G01X40384Y21570D01*
G01X40347Y21536D01*
G01X40312Y21501D01*
G01X40278Y21464D01*
G01X40246Y21425D01*
G01X40215Y21385D01*
G01X40186Y21344D01*
G01X40159Y21302D01*
G01X40111Y21214D01*
G01X40634Y21214D01*
G37*
G36*
G01X42184Y25267D02*
G01X41661Y25267D01*
G01X41661Y24744D01*
G01X41749Y24792D01*
G01X41791Y24819D01*
G01X41832Y24848D01*
G01X41872Y24879D01*
G01X41911Y24911D01*
G01X41948Y24945D01*
G01X41983Y24980D01*
G01X42017Y25017D01*
G01X42049Y25056D01*
G01X42080Y25096D01*
G01X42109Y25137D01*
G01X42136Y25179D01*
G01X42184Y25267D01*
G37*
G36*
G01X40634Y25267D02*
G01X40111Y25267D01*
G01X40159Y25179D01*
G01X40186Y25137D01*
G01X40215Y25096D01*
G01X40246Y25056D01*
G01X40278Y25017D01*
G01X40312Y24980D01*
G01X40347Y24945D01*
G01X40384Y24911D01*
G01X40423Y24879D01*
G01X40463Y24848D01*
G01X40504Y24819D01*
G01X40546Y24792D01*
G01X40634Y24744D01*
G01X40634Y25267D01*
G37*
G36*
G01X2440Y25590D02*
G01X1968Y25590D01*
G01X1968Y25118D01*
G01X2011Y25140D01*
G01X2053Y25165D01*
G01X2094Y25191D01*
G01X2134Y25219D01*
G01X2172Y25249D01*
G01X2209Y25281D01*
G01X2244Y25314D01*
G01X2277Y25349D01*
G01X2309Y25386D01*
G01X2339Y25424D01*
G01X2367Y25464D01*
G01X2393Y25505D01*
G01X2418Y25547D01*
G01X2440Y25590D01*
G37*
G36*
G01X1079Y25590D02*
G01X607Y25590D01*
G01X629Y25547D01*
G01X654Y25505D01*
G01X680Y25464D01*
G01X708Y25424D01*
G01X738Y25386D01*
G01X770Y25349D01*
G01X803Y25314D01*
G01X838Y25281D01*
G01X875Y25249D01*
G01X913Y25219D01*
G01X953Y25191D01*
G01X994Y25165D01*
G01X1036Y25140D01*
G01X1079Y25118D01*
G01X1079Y25590D01*
G37*
G36*
G01X41749Y26769D02*
G01X41661Y26817D01*
G01X41661Y26294D01*
G01X42184Y26294D01*
G01X42136Y26382D01*
G01X42109Y26424D01*
G01X42080Y26465D01*
G01X42049Y26505D01*
G01X42017Y26544D01*
G01X41983Y26581D01*
G01X41948Y26616D01*
G01X41911Y26650D01*
G01X41872Y26682D01*
G01X41832Y26713D01*
G01X41791Y26742D01*
G01X41749Y26769D01*
G37*
G36*
G01X40634Y26294D02*
G01X40634Y26817D01*
G01X40546Y26769D01*
G01X40504Y26742D01*
G01X40463Y26713D01*
G01X40423Y26682D01*
G01X40384Y26650D01*
G01X40347Y26616D01*
G01X40312Y26581D01*
G01X40278Y26544D01*
G01X40246Y26505D01*
G01X40215Y26465D01*
G01X40186Y26424D01*
G01X40159Y26382D01*
G01X40111Y26294D01*
G01X40634Y26294D01*
G37*
G36*
G01X2011Y26929D02*
G01X1968Y26951D01*
G01X1968Y26479D01*
G01X2440Y26479D01*
G01X2418Y26522D01*
G01X2393Y26564D01*
G01X2367Y26605D01*
G01X2339Y26645D01*
G01X2309Y26683D01*
G01X2277Y26720D01*
G01X2244Y26755D01*
G01X2209Y26788D01*
G01X2172Y26820D01*
G01X2134Y26850D01*
G01X2094Y26878D01*
G01X2053Y26904D01*
G01X2011Y26929D01*
G37*
G36*
G01X1079Y26479D02*
G01X1079Y26951D01*
G01X1036Y26929D01*
G01X994Y26904D01*
G01X953Y26878D01*
G01X913Y26850D01*
G01X875Y26820D01*
G01X838Y26788D01*
G01X803Y26755D01*
G01X770Y26720D01*
G01X738Y26683D01*
G01X708Y26645D01*
G01X680Y26605D01*
G01X654Y26564D01*
G01X629Y26522D01*
G01X607Y26479D01*
G01X1079Y26479D01*
G37*
G36*
G01X42048Y29477D02*
G01X40247Y29477D01*
G01X40224Y29476D01*
G01X40201Y29473D01*
G01X40177Y29467D01*
G01X40155Y29460D01*
G01X40133Y29450D01*
G01X40113Y29439D01*
G01X40093Y29425D01*
G01X40075Y29410D01*
G01X40058Y29393D01*
G01X40043Y29375D01*
G01X40029Y29355D01*
G01X40018Y29335D01*
G01X40008Y29313D01*
G01X40001Y29291D01*
G01X39995Y29267D01*
G01X39992Y29244D01*
G01X39991Y29221D01*
G01X39991Y27420D01*
G01X39992Y27397D01*
G01X39995Y27374D01*
G01X40001Y27350D01*
G01X40008Y27328D01*
G01X40018Y27306D01*
G01X40029Y27286D01*
G01X40043Y27266D01*
G01X40058Y27248D01*
G01X40075Y27231D01*
G01X40093Y27216D01*
G01X40113Y27202D01*
G01X40133Y27191D01*
G01X40155Y27181D01*
G01X40177Y27174D01*
G01X40201Y27168D01*
G01X40224Y27165D01*
G01X40247Y27164D01*
G01X42048Y27164D01*
G01X42071Y27165D01*
G01X42094Y27168D01*
G01X42118Y27174D01*
G01X42140Y27181D01*
G01X42162Y27191D01*
G01X42182Y27202D01*
G01X42202Y27216D01*
G01X42220Y27231D01*
G01X42237Y27248D01*
G01X42252Y27266D01*
G01X42266Y27286D01*
G01X42277Y27306D01*
G01X42287Y27328D01*
G01X42294Y27350D01*
G01X42300Y27374D01*
G01X42303Y27397D01*
G01X42304Y27420D01*
G01X42304Y29221D01*
G01X42303Y29244D01*
G01X42300Y29267D01*
G01X42294Y29291D01*
G01X42287Y29313D01*
G01X42277Y29335D01*
G01X42266Y29355D01*
G01X42252Y29375D01*
G01X42237Y29393D01*
G01X42220Y29410D01*
G01X42202Y29425D01*
G01X42182Y29439D01*
G01X42162Y29450D01*
G01X42140Y29460D01*
G01X42118Y29467D01*
G01X42094Y29473D01*
G01X42071Y29476D01*
G01X42048Y29477D01*
G37*
G36*
G01X1569Y29592D02*
G01X1524Y29593D01*
G01X1478Y29592D01*
G01X1432Y29589D01*
G01X1387Y29584D01*
G01X1342Y29577D01*
G01X1297Y29568D01*
G01X1253Y29556D01*
G01X1209Y29543D01*
G01X1165Y29528D01*
G01X1123Y29511D01*
G01X1082Y29492D01*
G01X1041Y29472D01*
G01X1001Y29449D01*
G01X962Y29424D01*
G01X925Y29398D01*
G01X889Y29371D01*
G01X853Y29342D01*
G01X819Y29311D01*
G01X787Y29279D01*
G01X756Y29245D01*
G01X727Y29210D01*
G01X700Y29173D01*
G01X674Y29136D01*
G01X649Y29097D01*
G01X626Y29057D01*
G01X606Y29016D01*
G01X587Y28975D01*
G01X570Y28933D01*
G01X555Y28889D01*
G01X542Y28845D01*
G01X530Y28801D01*
G01X521Y28756D01*
G01X514Y28711D01*
G01X509Y28666D01*
G01X506Y28620D01*
G01X505Y28575D01*
G01X506Y28529D01*
G01X509Y28483D01*
G01X514Y28438D01*
G01X521Y28393D01*
G01X530Y28348D01*
G01X542Y28304D01*
G01X555Y28260D01*
G01X570Y28216D01*
G01X587Y28174D01*
G01X606Y28133D01*
G01X626Y28092D01*
G01X649Y28052D01*
G01X674Y28013D01*
G01X700Y27976D01*
G01X727Y27940D01*
G01X756Y27904D01*
G01X787Y27870D01*
G01X819Y27838D01*
G01X853Y27807D01*
G01X889Y27778D01*
G01X925Y27751D01*
G01X962Y27725D01*
G01X1001Y27700D01*
G01X1041Y27677D01*
G01X1082Y27657D01*
G01X1123Y27638D01*
G01X1165Y27621D01*
G01X1209Y27606D01*
G01X1253Y27593D01*
G01X1297Y27581D01*
G01X1342Y27572D01*
G01X1387Y27565D01*
G01X1432Y27560D01*
G01X1478Y27557D01*
G01X1524Y27556D01*
G01X1569Y27557D01*
G01X1615Y27560D01*
G01X1660Y27565D01*
G01X1705Y27572D01*
G01X1750Y27581D01*
G01X1794Y27593D01*
G01X1838Y27606D01*
G01X1882Y27621D01*
G01X1924Y27638D01*
G01X1965Y27657D01*
G01X2006Y27677D01*
G01X2046Y27700D01*
G01X2085Y27725D01*
G01X2122Y27751D01*
G01X2159Y27778D01*
G01X2194Y27807D01*
G01X2228Y27838D01*
G01X2260Y27870D01*
G01X2291Y27904D01*
G01X2320Y27940D01*
G01X2347Y27976D01*
G01X2373Y28013D01*
G01X2398Y28052D01*
G01X2421Y28092D01*
G01X2441Y28133D01*
G01X2460Y28174D01*
G01X2477Y28216D01*
G01X2492Y28260D01*
G01X2505Y28304D01*
G01X2517Y28348D01*
G01X2526Y28393D01*
G01X2533Y28438D01*
G01X2538Y28483D01*
G01X2541Y28529D01*
G01X2542Y28575D01*
G01X2541Y28620D01*
G01X2538Y28666D01*
G01X2533Y28711D01*
G01X2526Y28756D01*
G01X2517Y28801D01*
G01X2505Y28845D01*
G01X2492Y28889D01*
G01X2477Y28933D01*
G01X2460Y28975D01*
G01X2441Y29016D01*
G01X2421Y29057D01*
G01X2398Y29097D01*
G01X2373Y29136D01*
G01X2347Y29173D01*
G01X2320Y29210D01*
G01X2291Y29245D01*
G01X2260Y29279D01*
G01X2228Y29311D01*
G01X2194Y29342D01*
G01X2159Y29371D01*
G01X2122Y29398D01*
G01X2085Y29424D01*
G01X2046Y29449D01*
G01X2006Y29472D01*
G01X1965Y29492D01*
G01X1924Y29511D01*
G01X1882Y29528D01*
G01X1838Y29543D01*
G01X1794Y29556D01*
G01X1750Y29568D01*
G01X1705Y29577D01*
G01X1660Y29584D01*
G01X1615Y29589D01*
G01X1569Y29592D01*
G37*

%LPD*%
G54D11*
G01X10922Y1524D02*
G01X14224Y4826D01*
G01X25400Y4826D01*
G01X27940Y2286D01*
G01X27940Y1524D01*
G01X24892Y13843D02*
G01X35306Y13843D01*
G01X35306Y17399D01*
G01X41148Y23241D01*
G01X40640Y1524D02*
G01X36576Y5588D01*
G01X21844Y5588D01*
G01X11811Y15621D01*
G01X10541Y15621D01*
G01X16637Y19812D02*
G01X16637Y17272D01*
G01X25654Y8255D01*
G01X26924Y8255D01*
G01X20955Y19812D02*
G01X24003Y16764D01*
G01X24003Y11303D01*
G01X26035Y9271D01*
G01X27940Y9271D01*
G01X13589Y20140D02*
G01X8001Y14552D01*
G01X8001Y14478D01*
G01X5842Y13208D02*
G01X9525Y13208D01*
G01X1524Y20955D02*
G01X3429Y19050D01*
G01X3429Y7874D01*
G01X6858Y4445D01*
G01X10922Y4445D01*
G01X12065Y5588D01*
G01X17145Y5588D01*
G01X1524Y23495D02*
G01X4191Y20828D01*
G01X4191Y8255D01*
G01X7366Y5080D01*
G01X10287Y5080D01*
G01X11684Y6477D01*
G01X13970Y6477D01*
G01X24765Y7239D02*
G01X29591Y7239D01*
G01X24892Y6350D02*
G01X33020Y6350D01*
G01X6604Y23495D02*
G01X7239Y24130D01*
G01X26416Y24130D01*
G01X7112Y22606D02*
G01X8001Y23495D01*
G01X30734Y23495D01*
G01X30734Y23876D01*
G01X6731Y16510D02*
G01X4953Y14732D01*
G01X4953Y9144D01*
G01X6477Y7620D01*
G01X6731Y7620D01*
G01X20320Y5588D02*
G01X18542Y7366D01*
G01X11303Y7366D01*
G01X10668Y7366D01*
G01X9271Y8763D01*
G01X9271Y8890D01*
G01X26416Y19431D02*
G01X28067Y17780D01*
G01X28067Y14986D01*
G01X6223Y10033D02*
G01X6604Y9652D01*
G01X10668Y9652D01*
G01X25146Y25527D02*
G01X32385Y25527D01*
G01X34036Y23876D01*
G01X20320Y22479D02*
G01X32766Y22479D01*
G01X27940Y1524D02*
G01X30988Y4572D01*
G01X36195Y4572D01*
G01X38100Y2667D01*
G01X38100Y1524D01*
G54D16*
G01X40005Y15621D03*
G01X2921Y2921D03*
G01X10795Y27305D03*
G54D17*
G01X41148Y28321D03*
G54D18*
G01X41148Y25781D03*
G01X41148Y23241D03*
G01X41148Y20701D03*
G54D19*
G01X1524Y10795D03*
G01X1524Y13335D03*
G01X1524Y15875D03*
G01X1524Y18415D03*
G01X1524Y20955D03*
G01X1524Y23495D03*
G01X1524Y26035D03*
G01X1524Y28575D03*
G54D18*
G01X23622Y1524D03*
G01X21082Y1524D03*
G01X18542Y1524D03*
G01X16002Y1524D03*
G01X13462Y1524D03*
G54D17*
G01X10922Y1524D03*
G54D18*
G01X40640Y1524D03*
G01X38100Y1524D03*
G01X35560Y1524D03*
G01X33020Y1524D03*
G01X30480Y1524D03*
G54D17*
G01X27940Y1524D03*
G54D14*
G01X24892Y13843D03*
G01X10541Y15621D03*
G01X20320Y22479D03*
G01X32766Y22479D03*
G01X9525Y13208D03*
G01X16637Y19812D03*
G01X20955Y19812D03*
G01X26924Y8255D03*
G01X27940Y9271D03*
G01X13589Y20140D03*
G01X8001Y14552D03*
G01X5842Y13208D03*
G01X17145Y5588D03*
G01X13970Y6477D03*
G01X24765Y7239D03*
G01X24892Y6350D03*
G01X33020Y6350D03*
G01X29591Y7239D03*
G01X6604Y23495D03*
G01X7112Y22606D03*
G01X26416Y24130D03*
G01X30734Y23876D03*
G01X6731Y7620D03*
G01X6731Y16510D03*
G01X20320Y5588D03*
G01X9271Y8763D03*
G01X28067Y14986D03*
G01X26416Y19431D03*
G01X6223Y10033D03*
G01X10668Y9652D03*
G01X25146Y25527D03*
G01X34036Y23876D03*
M00*
M02*
