G04 Layer: TopPasteMaskLayer*
G04 EasyEDA v6.3.22, 2020-01-17T17:02:50--8:00*
G04 00b4f696a6e84f9c838c38f8efb8d84c,fa4d7a5b45b64ba9a5df01c69efcfd0a,10*
G04 Gerber Generator version 0.2*
G04 Scale: 100 percent, Rotated: No, Reflected: No *
G04 Dimensions in millimeters *
G04 leading zeros omitted , absolute positions ,3 integer and 3 decimal *
%FSLAX33Y33*%
%MOMM*%
G90*
G71D02*

%ADD12C,0.599999*%
%ADD13C,0.699999*%
%ADD15R,1.099998X0.999998*%

%LPD*%
G54D12*
G01X35306Y26755D02*
G01X35306Y27955D01*
G01X34036Y26755D02*
G01X34036Y27955D01*
G01X32766Y26755D02*
G01X32766Y27955D01*
G01X31496Y26755D02*
G01X31496Y27955D01*
G01X30226Y26755D02*
G01X30226Y27955D01*
G01X28956Y26755D02*
G01X28956Y27955D01*
G01X27686Y26755D02*
G01X27686Y27955D01*
G01X26416Y26755D02*
G01X26416Y27955D01*
G01X35306Y20812D02*
G01X35306Y22012D01*
G01X34036Y20812D02*
G01X34036Y22012D01*
G01X32766Y20812D02*
G01X32766Y22012D01*
G01X31496Y20812D02*
G01X31496Y22012D01*
G01X30226Y20812D02*
G01X30226Y22012D01*
G01X28956Y20812D02*
G01X28956Y22012D01*
G01X27686Y20812D02*
G01X27686Y22012D01*
G01X26416Y20812D02*
G01X26416Y22012D01*
G01X22225Y26757D02*
G01X22225Y27957D01*
G01X20955Y26757D02*
G01X20955Y27957D01*
G01X19685Y26757D02*
G01X19685Y27957D01*
G01X18415Y26757D02*
G01X18415Y27957D01*
G01X17145Y26757D02*
G01X17145Y27957D01*
G01X15875Y26757D02*
G01X15875Y27957D01*
G01X14605Y26757D02*
G01X14605Y27957D01*
G01X22225Y20556D02*
G01X22225Y21756D01*
G01X20955Y20556D02*
G01X20955Y21756D01*
G01X19685Y20556D02*
G01X19685Y21756D01*
G01X18415Y20556D02*
G01X18415Y21756D01*
G01X17145Y20556D02*
G01X17145Y21756D01*
G01X15875Y20556D02*
G01X15875Y21756D01*
G01X14605Y20556D02*
G01X14605Y21756D01*
G01X34798Y16470D02*
G01X34798Y17670D01*
G01X33528Y16470D02*
G01X33528Y17670D01*
G01X32258Y16470D02*
G01X32258Y17670D01*
G01X30988Y16470D02*
G01X30988Y17670D01*
G01X29718Y16470D02*
G01X29718Y17670D01*
G01X28448Y16470D02*
G01X28448Y17670D01*
G01X27178Y16470D02*
G01X27178Y17670D01*
G01X34798Y10269D02*
G01X34798Y11469D01*
G01X33528Y10269D02*
G01X33528Y11469D01*
G01X32258Y10269D02*
G01X32258Y11469D01*
G01X30988Y10269D02*
G01X30988Y11469D01*
G01X29718Y10269D02*
G01X29718Y11469D01*
G01X28448Y10269D02*
G01X28448Y11469D01*
G01X27178Y10269D02*
G01X27178Y11469D01*
G54D13*
G01X7874Y10705D02*
G01X7874Y12205D01*
G01X9144Y10705D02*
G01X9144Y12205D01*
G01X10414Y10705D02*
G01X10414Y12205D01*
G01X11684Y10705D02*
G01X11684Y12205D01*
G01X7874Y16750D02*
G01X7874Y18250D01*
G01X9144Y16750D02*
G01X9144Y18250D01*
G01X10414Y16750D02*
G01X10414Y18250D01*
G01X11684Y16750D02*
G01X11684Y18250D01*
G54D15*
G01X5842Y26404D03*
G01X5842Y28205D03*
G01X7747Y8419D03*
G01X7747Y6820D03*
G01X9144Y20409D03*
G01X9144Y22008D03*
M00*
M02*
