0
SECTION
2
HEADER
9
$INSUNITS
70
4
9
$ACADVER
1
AC1014
9
$HANDSEED
5
FFFF
0
ENDSEC
0
SECTION
2
TABLES
0
TABLE
2
VPORT
5
8
100
AcDbSymbolTable
0
ENDTAB
0
TABLE
2
LTYPE
5
5
100
AcDbSymbolTable
0
LTYPE
5
14
100
AcDbSymbolTableRecord
100
AcDbLinetypeTableRecord
2
BYBLOCK
70
0
0
LTYPE
5
15
100
AcDbSymbolTableRecord
100
AcDbLinetypeTableRecord
2
BYLAYER
70
0
0
ENDTAB
0
TABLE
2
LAYER
5
2
100
AcDbSymbolTable
70
2
0
LAYER
5
50
100
AcDbSymbolTableRecord
100
AcDbLayerTableRecord
2
0
70
0
6
CONTINUOUS
0
ENDTAB
0
TABLE
2
STYLE
5
3
100
AcDbSymbolTable
70
1
0
STYLE
5
11
100
AcDbSymbolTableRecord
100
AcDbTextStyleTableRecord
2
STANDARD
70
0
0
ENDTAB
0
TABLE
2
VIEW
5
6
100
AcDbSymbolTable
70
0
0
ENDTAB
0
TABLE
2
UCS
5
7
100
AcDbSymbolTable
70
0
0
ENDTAB
0
TABLE
2
APPID
5
9
100
AcDbSymbolTable
70
2
0
APPID
5
12
100
AcDbSymbolTableRecord
100
AcDbRegAppTableRecord
2
ACAD
70
0
0
ENDTAB
0
TABLE
2
DIMSTYLE
5
A
100
AcDbSymbolTable
70
1
0
ENDTAB
0
TABLE
2
BLOCK_RECORD
5
1
100
AcDbSymbolTable
70
1
0
BLOCK_RECORD
5
1F
100
AcDbSymbolTableRecord
100
AcDbBlockTableRecord
2
*MODEL_SPACE
0
BLOCK_RECORD
5
1B
100
AcDbSymbolTableRecord
100
AcDbBlockTableRecord
2
*PAPER_SPACE
0
ENDTAB
0
ENDSEC
0
SECTION
2
BLOCKS
0
BLOCK
5
20
100
AcDbEntity
100
AcDbBlockBegin
2
*MODEL_SPACE
0
ENDBLK
5
21
100
AcDbEntity
100
AcDbBlockEnd
0
BLOCK
5
1C
100
AcDbEntity
100
AcDbBlockBegin
2
*PAPER_SPACE
0
ENDBLK
5
1D
100
AcDbEntity
100
AcDbBlockEnd
0
ENDSEC
0
SECTION
2
ENTITIES
0
LWPOLYLINE
5
100
100
AcDbEntity
8
0
100
AcDbPolyline
90
24
70
1
43
0.0
10
-6.5947241872473148
20
-25.850595104898378
10
-6.594724187247305
20
-21.699272514384226
42
0.50687295381940933
10
0.97059910364623025
20
-16.153860255470196
10
0.97059910364446944
20
7.885396625268033
42
0.5068729538203548
10
-6.594724187247234
20
13.430808884166776
10
-6.5947241872473121
20
14.633960675497608
42
0.30534707071105832
10
-1.6374500762852839
20
21.994557846352365
10
-1.6374500762853561
20
26.066466858678076
10
-15.818359332214683
20
26.066466858677984
10
-15.81835933221679
20
21.994557846352372
42
0.30534707071109002
10
-10.86108522125244
20
14.633960675495089
10
-10.861085221251134
20
0.32002437683969776
10
-14.386405430753086
20
0.32002437683970819
10
-14.386405430753086
20
-3.4195313262561799
10
-10.926371034446706
20
-3.4195313262561804
10
-10.926371034446706
20
-4.8552562067990177
10
-14.386405430753086
20
-4.8552562067990177
10
-14.386405430753086
20
-8.5948119098949061
10
-10.926371034446706
20
-8.5948119098949043
10
-10.926371034446706
20
-10.03053679043774
10
-14.386405430753086
20
-10.03053679043774
10
-14.386405430753086
20
-13.770092493533625
10
-10.861085221252436
20
-13.770092493533632
10
-10.861085221252436
20
-25.850595104898378
0
LWPOLYLINE
5
101
100
AcDbEntity
8
0
100
AcDbPolyline
90
4
70
1
43
0.0
10
4.6105402950967767
20
21.492890027633116
10
22.77659092518843
20
21.492890027633116
10
22.776590925188437
20
23.979657829428625
10
4.6105402950967767
20
23.979657829428625
0
LWPOLYLINE
5
102
100
AcDbEntity
8
0
100
AcDbPolyline
90
12
70
1
43
0.0
10
4.6105402950967678
20
-23.520404993509292
10
22.776590925188415
20
-23.520404993509292
10
22.776590925188415
20
-5.7288339820039011
10
20.907938325188415
20
-5.7288339820039003
10
20.907938325188415
20
-21.296518456478228
10
14.627891910142598
20
-21.296518456478204
10
14.627891910142598
20
-6.3500002026557905
10
12.759239310142597
20
-6.3500002026557967
10
12.759239310142565
20
-21.296518456478193
10
6.479192895096749
20
-21.296518456478189
10
6.4791928950967677
20
-5.7288339820038559
10
4.6105402950967687
20
-5.728833982003863
0
LWPOLYLINE
5
103
100
AcDbEntity
8
0
100
AcDbPolyline
90
7
70
1
43
0.0
10
4.6105402950967678
20
-3.964009016115523
10
22.776590925188415
20
5.6407569142783656
10
22.776590925188415
20
8.8073172445424532
10
4.6105402950967793
20
18.412083174938726
10
4.6105402950967767
20
15.796901670088966
10
20.824896098010846
20
7.2240370794105324
10
4.6105402950967687
20
-1.3488275112657622
0
LWPOLYLINE
5
104
100
AcDbEntity
8
0
100
AcDbPolyline
90
2
70
1
43
0.0
10
-40.510626099107057
20
-24.554038650664907
10
-40.51062609910705
20
24.554038650664928
42
-3.5791108480937091
0
CIRCLE
5
105
100
AcDbEntity
8
0
100
AcDbCircle
10
0
20
-38.100000000000001
30
0
40
2.2478999999999996
210
0
220
0
230
1
0
CIRCLE
5
106
100
AcDbEntity
8
0
100
AcDbCircle
10
0
20
38.100000000000001
30
0
40
2.2478999999999996
210
0
220
0
230
1
0
ENDSEC
0
SECTION
2
OBJECTS
0
DICTIONARY
5
C
100
AcDbDictionary
3
ACAD_GROUP
350
D
3
ACAD_MLINESTYLE
350
17
0
DICTIONARY
5
D
100
AcDbDictionary
0
DICTIONARY
5
1A
330
C
100
AcDbDictionary
0
DICTIONARY
5
17
100
AcDbDictionary
0
ENDSEC
0
EOF
